<?xml version="1.0" encoding="UTF-8"?>
<svg id="_图层_1" data-name="图层 1" xmlns="http://www.w3.org/2000/svg" viewBox="0 0 138.81 113.03">
  <defs>
    <style>
      .cls-1, .cls-2 {
        fill: #1b4a9c;
        stroke-width: 0px;
      }

      .cls-2 {
        fill-rule: evenodd;
      }
    </style>
  </defs>
  <g id="_纵向" data-name="纵向">
    <g>
      <polygon class="cls-1" points="70.71 54.25 70.79 54.1 70.86 53.95 70.95 53.81 71.03 53.68 71.14 53.54 71.28 53.37 71.47 53.16 71.69 52.93 71.89 52.71 72.08 52.49 72.16 52.38 72.25 52.27 72.32 52.17 72.39 52.06 72.46 51.95 72.51 51.83 72.56 51.72 72.59 51.6 72.62 51.48 72.62 51.35 72.63 51.22 72.62 51.09 72.61 50.93 72.58 50.77 72.54 50.63 72.49 50.5 72.46 50.44 72.43 50.38 72.4 50.32 72.36 50.27 72.32 50.21 72.28 50.16 72.24 50.12 72.19 50.07 72.15 50.02 72.09 49.99 72.04 49.95 71.99 49.91 71.93 49.89 71.87 49.86 71.81 49.83 71.75 49.81 71.69 49.8 71.62 49.79 71.55 49.77 71.48 49.76 71.41 49.76 71.34 49.76 71.26 49.76 71.18 49.76 71.1 49.78 71.02 49.79 70.95 49.8 70.87 49.82 70.81 49.85 70.74 49.87 70.67 49.89 70.61 49.93 70.55 49.96 70.49 50 70.43 50.04 70.39 50.09 70.34 50.14 70.29 50.19 70.24 50.24 70.2 50.31 70.16 50.36 70.13 50.42 70.09 50.49 70.07 50.56 70.04 50.63 70.01 50.71 70 50.79 69.98 50.87 69.96 50.95 69.94 51.04 69.93 51.13 69.93 51.22 69.92 51.41 69.93 51.61 70.59 51.55 70.57 51.4 70.57 51.25 70.58 51.11 70.6 50.99 70.61 50.88 70.65 50.78 70.68 50.69 70.72 50.62 70.77 50.55 70.82 50.49 70.88 50.44 70.94 50.4 71 50.37 71.07 50.34 71.13 50.33 71.2 50.31 71.28 50.31 71.36 50.31 71.43 50.33 71.5 50.35 71.56 50.38 71.63 50.41 71.68 50.46 71.73 50.51 71.77 50.58 71.8 50.63 71.84 50.7 71.87 50.78 71.89 50.86 71.91 50.94 71.92 51.03 71.94 51.12 71.94 51.21 71.94 51.3 71.94 51.39 71.92 51.48 71.9 51.57 71.87 51.66 71.85 51.74 71.81 51.82 71.77 51.9 71.71 51.99 71.66 52.08 71.59 52.18 71.52 52.27 71.43 52.37 71.35 52.47 71.26 52.56 71.12 52.69 71 52.82 70.89 52.95 70.79 53.07 70.69 53.19 70.61 53.3 70.53 53.41 70.46 53.51 70.39 53.62 70.33 53.73 70.27 53.83 70.22 53.94 70.18 54.05 70.13 54.17 70.09 54.28 70.06 54.4 70.09 54.86 73.02 54.6 72.97 54.06 70.71 54.25"/>
      <polygon class="cls-1" points="64.1 49.28 64.05 49.36 63.99 49.44 63.93 49.5 63.86 49.56 63.79 49.61 63.71 49.65 63.64 49.69 63.55 49.71 63.46 49.74 63.37 49.75 63.26 49.75 63.16 49.75 63.05 49.74 62.93 49.72 62.8 49.69 62.72 50.02 63.56 50.23 62.63 53.95 63.27 54.11 64.48 49.28 64.14 49.2 64.1 49.28"/>
      <polygon class="cls-1" points="74.79 49.16 74.79 49.26 74.78 49.36 74.77 49.45 74.74 49.54 74.72 49.62 74.68 49.7 74.63 49.77 74.58 49.84 74.52 49.9 74.44 49.96 74.37 50.02 74.28 50.07 74.18 50.11 74.08 50.15 73.97 50.19 73.85 50.23 73.93 50.56 74.76 50.35 75.69 54.07 76.33 53.91 75.13 49.08 74.79 49.16"/>
      <path class="cls-1" d="M68.82,51.28v-.12s-.02-.12-.02-.12l-.02-.11-.02-.11-.02-.1-.03-.09-.04-.09-.04-.08-.04-.08-.05-.07-.05-.07-.05-.07-.06-.06-.06-.06-.05-.05-.06-.05-.06-.04-.07-.04-.07-.03-.07-.03-.07-.03-.07-.02-.08-.02-.08-.02h-.09s-.09-.01-.09-.01h-.24s-.07.02-.07.02h-.07s-.07.03-.07.03l-.07.02-.07.03-.06.03-.06.03-.06.04-.05.04-.05.04-.06.05-.05.05-.04.06-.04.06-.04.06-.04.06-.03.07-.04.07-.03.07-.03.08-.02.07-.02.08-.02.08-.02.08-.03.17-.02.18v.18s-.01.17-.01.17v.08s.01.08.01.08v.08s.02.08.02.08l.02.07.02.07.02.06.02.07.02.06.03.06.04.05.04.06.04.06.05.05.04.05.04.04.05.04.05.03.05.03.05.03.05.03.06.02.06.02.06.02.06.02h.06s.06.02.06.02h.07s.08.01.08.01h.16s.07-.02.07-.02l.07-.02.07-.02.07-.03.07-.03.06-.04.07-.05.06-.05.06-.05.05-.06.06-.06.04-.07.04-.07-.04.23-.04.21-.04.2-.05.18-.05.17-.06.15-.06.14-.06.13-.03.06-.03.05-.04.04-.04.05-.04.04-.04.03-.04.04-.04.03-.05.02-.04.02-.05.02h-.04s-.05.02-.05.02h-.05s-.05,0-.05,0h-.11s-.06-.02-.06-.02l-.06-.03-.05-.03-.05-.04-.04-.05-.05-.05-.03-.06-.04-.06-.02-.07-.02-.07-.02-.06v-.07s-.02-.07-.02-.07v-.14l-.66-.06v.12s0,.12,0,.12v.12s.04.12.04.12l.03.12.05.11.06.11.08.11.04.06.04.05.04.04.04.04.04.04.05.03.05.03.05.03.05.03.06.02.06.03.06.02h.06s.06.03.06.03h.06s.07.01.07.01h.1s.09,0,.09,0h.09s.09-.01.09-.01l.09-.02.09-.02.08-.03.08-.03.08-.05.07-.04.07-.05.07-.06.07-.06.07-.07.06-.07.06-.08.06-.09.05-.09.06-.09.05-.1.04-.1.04-.11.04-.11.04-.11.04-.12.03-.12.02-.13.03-.13.02-.13.02-.14v-.14s.03-.15.03-.15v-.16s.02-.15.02-.15v-.15s0-.14,0-.14v-.27s-.02-.13-.02-.13ZM68.17,51.41v.15s-.02.09-.02.09l-.02.09-.02.09-.03.08-.04.07-.05.07-.05.07-.06.06-.06.06-.07.05-.07.04-.07.03-.08.02-.08.02h-.26s-.08-.03-.08-.03l-.07-.03-.06-.04-.05-.04-.05-.05-.04-.06-.04-.07-.03-.07-.02-.08-.02-.08-.02-.09v-.1s-.01-.11-.01-.11v-.12s.01-.11.01-.11l.02-.15.02-.15.03-.13.03-.12.04-.11.04-.08.05-.08.05-.06.06-.06.06-.04.06-.03.06-.03.06-.02h.06s.07-.02.07-.02h.16s.08.04.08.04l.08.03.08.04.07.05.06.05.06.07.05.08.04.09.03.09.03.11.02.11v.13s.02.13.02.13v.15Z"/>
      <polygon class="cls-1" points="58.2 48.97 58.18 48.87 58.14 48.77 58.1 48.69 58.05 48.61 57.99 48.54 57.93 48.46 57.85 48.4 57.78 48.35 57.7 48.29 57.61 48.25 57.52 48.21 57.42 48.2 57.33 48.18 57.23 48.17 57.13 48.18 57.03 48.2 56.93 48.21 56.84 48.25 56.76 48.29 56.67 48.35 56.6 48.4 56.53 48.46 56.46 48.54 56.4 48.61 56.35 48.69 56.31 48.77 56.28 48.87 56.25 48.97 56.24 49.06 56.24 49.17 56.24 49.27 56.25 49.36 56.28 49.46 56.31 49.55 56.35 49.64 56.4 49.72 56.46 49.8 56.53 49.86 56.6 49.93 56.67 49.99 56.76 50.04 56.84 50.08 56.93 50.11 57.03 50.14 57.13 50.15 57.23 50.15 57.33 50.15 57.42 50.14 57.52 50.11 57.61 50.08 57.7 50.04 57.78 49.99 57.85 49.93 57.93 49.86 57.99 49.8 58.05 49.72 58.1 49.64 58.14 49.55 58.18 49.46 58.2 49.36 58.21 49.27 58.22 49.17 58.21 49.06 58.2 48.97"/>
      <polygon class="cls-1" points="82.68 48.97 82.65 48.87 82.62 48.77 82.58 48.69 82.52 48.61 82.47 48.54 82.41 48.46 82.33 48.4 82.26 48.35 82.18 48.29 82.09 48.25 82 48.21 81.91 48.2 81.81 48.18 81.7 48.17 81.6 48.18 81.51 48.2 81.41 48.21 81.32 48.25 81.23 48.29 81.15 48.35 81.07 48.4 81 48.46 80.93 48.54 80.88 48.61 80.83 48.69 80.79 48.77 80.76 48.87 80.73 48.97 80.72 49.06 80.72 49.17 80.72 49.27 80.73 49.36 80.76 49.46 80.79 49.55 80.83 49.64 80.88 49.72 80.93 49.8 81 49.86 81.07 49.93 81.15 49.99 81.23 50.04 81.32 50.08 81.41 50.11 81.51 50.14 81.6 50.15 81.7 50.15 81.81 50.15 81.91 50.14 82 50.11 82.09 50.08 82.18 50.04 82.26 49.99 82.33 49.93 82.41 49.86 82.47 49.8 82.52 49.72 82.58 49.64 82.62 49.55 82.65 49.46 82.68 49.36 82.69 49.27 82.7 49.17 82.69 49.06 82.68 48.97"/>
      <path class="cls-1" d="M85.38,13.82l-.06.05-.06.04-.06.03-.06.02-.06.02h-.06s-.06,0-.06,0h-.05s-.06-.03-.06-.03l-.05-.02-.05-.04-.05-.03-.05-.05-.04-.06-.05-.06-.12.1,1.47,1.81.13-.1-.06-.07-.04-.06-.04-.07-.03-.06-.02-.06v-.06s-.01-.06-.01-.06v-.11s.04-.05.04-.05l.03-.05.03-.05.05-.05.05-.04.06-.05.07-.04,1.05-.85.12.15-.79,2.48.89,1.1.12-.1-.02-.02-.02-.03v-.03s-.02-.03-.02-.03v-.04s0-.04,0-.04v-.05s.01-.05.01-.05l.65-2.34.12.08.11.07.11.06.11.05.1.04.11.02.1.02h.1s.1,0,.1,0h.1s.1-.02.1-.02l.09-.02.09-.03.1-.05.09-.06.08-.07.06-.05.05-.05.05-.05.04-.06.04-.06.03-.05.03-.06.03-.06.03-.06.02-.06v-.07s.02-.06.02-.06v-.07s0-.07,0-.07v-.07s-.01-.07-.01-.07v-.07s-.02-.07-.02-.07l-.02-.07-.02-.08-.02-.07-.03-.08-.04-.08-.03-.09-.09-.17-.11-.17-.13-.18-.13-.19-1.41-1.72-.13.1.05.06.04.06.03.05.03.06.02.06v.06s.01.06.01.06v.1s-.03.06-.03.06l-.03.05-.03.05-.04.06-.05.05-.06.05-.07.05-2.38,1.93-.07.06ZM88.78,12.54l.02-.03.02-.02.02-.02h.03s.02-.02.02-.02h.09s.03.02.03.02l.04.02.03.02.03.03.07.07.07.09.06.09.05.08.04.08.03.08.02.08v.08s.01.08.01.08v.08s-.03.08-.03.08l-.03.08-.04.08-.05.08-.06.08-.07.08-.08.08-.09.08-.11.09-.1.07-.05.04-.06.02-.05.02-.05.02h-.06s-.05.03-.05.03h-.05s-.06.02-.06.02h-.05s-.05,0-.05,0h-.05s-.06-.01-.06-.01h-.05s-.05-.03-.05-.03l-.05-.02-.05-.02-.05-.02-.06-.03-.05-.03-.05-.04-.1-.08-.1-.1-.1-.12-.1-.13,1.39-1.12Z"/>
      <polygon class="cls-1" points="44.23 30.17 44.27 30.14 44.31 30.12 44.36 30.1 44.42 30.09 44.47 30.09 44.54 30.09 47.88 30.03 47.94 30.02 47.99 30.02 48.05 30.03 48.1 30.05 48.15 30.06 48.19 30.08 48.23 30.11 48.26 30.15 48.29 30.19 48.32 30.24 48.35 30.29 48.36 30.35 48.38 30.42 48.39 30.48 48.4 30.56 48.4 30.64 48.56 30.64 48.5 26.57 47.05 26.33 47.06 26.52 47.21 26.58 47.35 26.65 47.49 26.73 47.61 26.81 47.73 26.9 47.83 27 47.93 27.1 48.01 27.21 48.08 27.33 48.14 27.45 48.2 27.58 48.24 27.71 48.27 27.85 48.29 28 48.3 28.15 48.3 28.31 48.31 28.39 48.31 28.46 48.31 28.53 48.31 28.59 48.3 28.65 48.29 28.7 48.27 28.75 48.25 28.78 48.22 28.82 48.19 28.85 48.16 28.88 48.13 28.89 48.08 28.91 48.04 28.91 47.99 28.91 47.94 28.91 46.25 28.94 46.25 28.82 46.25 28.7 46.27 28.59 46.29 28.48 46.33 28.39 46.37 28.3 46.42 28.22 46.48 28.14 46.55 28.07 46.63 28.01 46.72 27.96 46.81 27.91 46.92 27.86 47.03 27.83 47.16 27.81 47.29 27.79 47.29 27.62 44.95 27.67 44.96 27.83 45.1 27.84 45.23 27.86 45.35 27.88 45.46 27.92 45.55 27.96 45.64 28.01 45.72 28.07 45.8 28.14 45.86 28.21 45.91 28.3 45.95 28.38 45.98 28.48 46 28.59 46.01 28.7 46.02 28.82 46.01 28.94 44.41 28.98 44.37 28.98 44.32 28.98 44.29 28.98 44.26 28.96 44.23 28.95 44.2 28.93 44.17 28.91 44.15 28.88 44.13 28.84 44.12 28.8 44.1 28.76 44.09 28.71 44.08 28.66 44.08 28.6 44.08 28.54 44.08 28.46 44.06 28.29 44.07 28.12 44.08 27.96 44.1 27.82 44.12 27.75 44.14 27.69 44.16 27.62 44.18 27.56 44.21 27.5 44.24 27.44 44.27 27.39 44.3 27.34 44.34 27.29 44.37 27.24 44.42 27.2 44.46 27.16 44.51 27.12 44.55 27.08 44.61 27.06 44.66 27.02 44.72 26.99 44.78 26.97 44.84 26.95 44.9 26.92 45.04 26.89 45.19 26.87 45.19 26.68 43.8 26.71 43.87 30.72 44.03 30.72 44.03 30.64 44.04 30.56 44.05 30.49 44.06 30.43 44.08 30.38 44.1 30.32 44.13 30.28 44.15 30.24 44.19 30.2 44.23 30.17"/>
      <polygon class="cls-1" points="80.6 10.37 80.54 10.37 80.48 10.37 80.43 10.35 80.37 10.33 80.31 10.3 80.25 10.27 80.18 10.24 80.11 10.19 80.02 10.33 83.35 12.66 84.4 11.64 84.25 11.53 84.1 11.62 83.96 11.69 83.82 11.76 83.67 11.81 83.54 11.84 83.4 11.88 83.26 11.89 83.12 11.89 82.99 11.88 82.85 11.86 82.72 11.83 82.58 11.78 82.45 11.73 82.32 11.66 82.18 11.58 82.06 11.49 81.98 11.44 81.93 11.41 81.87 11.36 81.83 11.32 81.79 11.28 81.75 11.24 81.73 11.2 81.71 11.16 81.69 11.12 81.68 11.08 81.68 11.03 81.69 10.99 81.71 10.96 81.73 10.91 81.75 10.87 81.79 10.83 82.75 9.46 82.85 9.53 82.95 9.6 83.03 9.68 83.1 9.76 83.16 9.84 83.2 9.92 83.24 10.02 83.27 10.11 83.28 10.21 83.29 10.3 83.28 10.41 83.26 10.51 83.23 10.63 83.19 10.74 83.14 10.86 83.07 10.97 83.21 11.07 84.55 9.16 84.41 9.06 84.32 9.17 84.23 9.26 84.14 9.34 84.05 9.41 83.96 9.46 83.87 9.51 83.77 9.53 83.67 9.55 83.62 9.56 83.58 9.56 83.53 9.56 83.48 9.55 83.38 9.53 83.28 9.51 83.19 9.46 83.09 9.41 82.99 9.34 82.89 9.26 83.81 7.95 83.83 7.91 83.85 7.87 83.88 7.85 83.91 7.82 83.93 7.81 83.97 7.8 84 7.79 84.04 7.79 84.08 7.8 84.12 7.8 84.16 7.82 84.21 7.84 84.26 7.86 84.31 7.9 84.36 7.93 84.41 7.97 84.56 8.07 84.7 8.17 84.82 8.27 84.93 8.38 84.97 8.43 85.01 8.48 85.06 8.54 85.09 8.59 85.13 8.65 85.15 8.71 85.17 8.76 85.2 8.82 85.22 8.87 85.23 8.94 85.24 8.99 85.25 9.05 85.26 9.11 85.26 9.17 85.25 9.23 85.24 9.29 85.23 9.36 85.22 9.42 85.2 9.48 85.17 9.55 85.12 9.68 85.05 9.81 85.21 9.92 86 8.79 82.72 6.48 82.62 6.62 82.69 6.66 82.74 6.71 82.79 6.75 82.83 6.8 82.87 6.85 82.9 6.9 82.93 6.94 82.94 6.99 82.95 7.04 82.95 7.09 82.95 7.14 82.94 7.19 82.93 7.24 82.9 7.29 82.87 7.35 82.83 7.4 80.92 10.13 80.89 10.18 80.86 10.23 80.82 10.27 80.78 10.3 80.73 10.33 80.69 10.35 80.64 10.36 80.6 10.37"/>
      <path class="cls-1" d="M44.27,23.76l.03-.07.03-.06.03-.06.03-.05.04-.05.04-.03.04-.04.04-.02.05-.02h.05s.05-.02.05-.02h.11s.06.02.06.02h.06s3.21.94,3.21.94l.06.02.06.02.05.02.04.03.04.03.04.04.02.04.02.04.02.05v.05s.02.06.02.06v.19s-.02.07-.02.07l-.02.07.15.05.62-2.17.06-.22.04-.2.02-.2v-.19s.01-.09.01-.09v-.17s-.01-.09-.01-.09v-.07s-.03-.07-.03-.07v-.07s-.04-.08-.04-.08l-.02-.07-.02-.06-.03-.06-.04-.06-.04-.05-.03-.06-.04-.05-.05-.05-.05-.05-.05-.04-.06-.04-.06-.04-.06-.04-.07-.03-.07-.03-.07-.02-.12-.02h-.12s-.11-.01-.11-.01h-.11s-.11.03-.11.03l-.1.03-.1.04-.1.05-.09.06-.09.07-.09.09-.09.09-.08.1-.08.11-.07.13-.07.14h-.03s0-.14,0-.14v-.25s-.02-.11-.02-.11l-.02-.11-.02-.1-.04-.09-.04-.09-.05-.08-.05-.07-.06-.06-.07-.06-.07-.05-.08-.04-.09-.03-.09-.03-.06-.02h-.06s-.07-.02-.07-.02h-.24s-.06.02-.06.02h-.06s-.05.04-.05.04l-.06.02-.06.03-.05.03-.05.04-.05.04-.05.04-.05.05-.05.05-.04.06-.05.05-.09.13-.08.14-.08.16-.07.18-.08.19-.07.21-.59,2.06.15.05.02-.08ZM46.84,22.58l.04-.12.05-.11.06-.1.06-.09.07-.08.07-.07.08-.06.08-.05.09-.04.09-.03.11-.02h.1s.11,0,.11,0h.12s.12.03.12.03l.13.04.12.03.12.04.1.05.1.05.09.06.07.06.06.06.06.07.04.07.03.07.02.08v.08s.02.08.02.08v.09s-.03.09-.03.09l-.02.1v.05s-.03.04-.03.04l-.02.04-.02.04-.02.04-.02.02-.03.03-.03.02h-.03s-.04.02-.04.02h-.04s-.04,0-.04,0h-.09s-.05-.02-.05-.02h-.06s-1.67-.49-1.67-.49l.05-.18ZM44.85,22.02v-.08s.03-.09.03-.09l.03-.08.03-.08.04-.07.04-.06.05-.05.06-.05.06-.04.06-.03.07-.02.07-.02h.08s.08-.01.08-.01h.09s.09.02.09.02l.1.02.1.02.13.03.12.03.11.05.09.05.04.02.04.03.04.03.04.04.03.03.03.04.03.04.02.04.02.04.02.04v.05s.02.05.02.05v.1s.01.11.01.11v.11s-.03.12-.03.12l-.04.13-.04.14-1.51-.44h-.04s-.04-.01-.04-.01h-.03s-.02-.03-.02-.03l-.03-.02-.02-.02-.02-.03-.02-.02v-.03s-.02-.03-.02-.03v-.03s0-.04,0-.04Z"/>
      <polygon class="cls-1" points="90.34 23.62 90.29 23.63 90.23 23.63 90.18 23.62 90.14 23.61 90.09 23.6 90.05 23.57 90.01 23.54 89.97 23.5 89.93 23.46 89.9 23.41 89.87 23.35 89.84 23.29 89.81 23.22 89.79 23.15 89.77 23.07 89.61 23.1 90.07 25.5 90.23 25.47 90.22 25.38 90.2 25.3 90.2 25.22 90.2 25.15 90.2 25.09 90.21 25.03 90.23 24.97 90.24 24.92 90.27 24.87 90.3 24.84 90.34 24.8 90.38 24.77 90.43 24.75 90.49 24.73 90.55 24.71 90.61 24.71 93.89 24.07 93.95 24.06 94 24.05 94.05 24.05 94.1 24.06 94.15 24.07 94.2 24.08 94.24 24.11 94.27 24.14 94.31 24.18 94.34 24.21 94.37 24.26 94.4 24.32 94.43 24.37 94.45 24.44 94.47 24.51 94.48 24.59 94.5 24.61 94.52 24.64 94.68 24.61 94.22 22.21 94.06 22.24 94.06 22.32 94.07 22.39 94.07 22.47 94.07 22.53 94.06 22.59 94.05 22.64 94.03 22.7 94.01 22.75 93.99 22.79 93.95 22.83 93.91 22.87 93.88 22.9 93.84 22.92 93.79 22.95 93.73 22.96 93.68 22.98 90.4 23.61 90.34 23.62"/>
      <polygon class="cls-1" points="49.26 34.56 49.27 34.64 49.29 34.72 49.3 34.78 49.3 34.85 49.3 34.91 49.29 34.97 49.28 35.03 49.26 35.07 49.24 35.12 49.21 35.15 49.17 35.19 49.13 35.22 49.09 35.24 49.04 35.27 48.98 35.28 48.92 35.3 47.4 35.7 46.97 34.1 48.49 33.69 48.55 33.68 48.61 33.67 48.66 33.67 48.72 33.67 48.77 33.68 48.82 33.69 48.86 33.71 48.9 33.73 48.94 33.77 48.98 33.81 49.01 33.85 49.05 33.9 49.08 33.95 49.1 34.02 49.13 34.09 49.15 34.16 49.31 34.12 48.7 31.84 48.54 31.89 48.56 31.97 48.56 32.04 48.57 32.11 48.57 32.17 48.57 32.23 48.56 32.29 48.55 32.34 48.53 32.38 48.5 32.42 48.47 32.46 48.44 32.5 48.4 32.52 48.36 32.55 48.31 32.57 48.25 32.59 48.2 32.6 44.98 33.46 44.92 33.48 44.86 33.49 44.81 33.49 44.76 33.49 44.71 33.48 44.67 33.47 44.62 33.45 44.58 33.42 44.54 33.39 44.51 33.36 44.47 33.32 44.43 33.27 44.4 33.22 44.37 33.15 44.34 33.09 44.32 33.02 44.16 33.06 44.78 35.34 44.93 35.3 44.91 35.22 44.9 35.15 44.89 35.08 44.89 35.01 44.89 34.96 44.9 34.9 44.91 34.84 44.93 34.8 44.95 34.75 44.99 34.72 45.02 34.68 45.06 34.65 45.1 34.62 45.15 34.6 45.21 34.57 45.27 34.56 46.66 34.19 47.09 35.79 45.7 36.16 45.63 36.18 45.58 36.19 45.52 36.2 45.47 36.2 45.42 36.19 45.37 36.18 45.33 36.16 45.29 36.14 45.25 36.1 45.21 36.06 45.18 36.02 45.15 35.96 45.12 35.91 45.09 35.84 45.06 35.76 45.04 35.69 44.88 35.74 45.49 38.02 45.65 37.97 45.63 37.9 45.63 37.83 45.62 37.77 45.62 37.71 45.63 37.65 45.63 37.6 45.65 37.55 45.67 37.5 45.7 37.46 45.72 37.42 45.76 37.39 45.8 37.35 45.84 37.32 45.88 37.3 45.94 37.28 45.99 37.26 49.22 36.4 49.27 36.38 49.33 36.37 49.38 36.37 49.44 36.37 49.49 36.37 49.54 36.38 49.58 36.4 49.63 36.43 49.66 36.46 49.7 36.49 49.73 36.54 49.77 36.59 49.79 36.64 49.82 36.7 49.85 36.77 49.87 36.84 50.03 36.8 49.42 34.52 49.26 34.56"/>
      <polygon class="cls-1" points="94.28 33.49 94.24 33.55 94.18 33.62 94.13 33.67 94.06 33.72 93.99 33.76 93.9 33.81 93.81 33.84 91.25 34.47 90.26 34.21 90.18 34.19 90.1 34.16 90.03 34.14 89.98 34.11 89.92 34.08 89.88 34.04 89.84 33.99 89.81 33.95 89.78 33.89 89.76 33.84 89.75 33.78 89.75 33.72 89.75 33.65 89.76 33.57 89.78 33.49 89.8 33.41 89.64 33.37 89.02 35.7 89.17 35.74 89.19 35.65 89.21 35.58 89.25 35.51 89.28 35.44 89.31 35.39 89.35 35.35 89.39 35.3 89.44 35.27 89.49 35.25 89.55 35.23 89.6 35.23 89.67 35.23 89.74 35.23 89.81 35.25 89.88 35.28 89.96 35.31 91.2 35.64 92.95 37.48 92.99 37.53 93.03 37.57 93.05 37.62 93.07 37.69 93.08 37.75 93.08 37.82 93.08 37.89 93.07 37.97 93.07 37.96 93.08 37.96 93.08 37.98 93.09 38 93.25 38.04 93.64 36.58 93.48 36.53 93.43 36.66 93.38 36.77 93.36 36.82 93.34 36.87 93.3 36.9 93.28 36.93 93.25 36.96 93.22 36.98 93.19 37 93.16 37.01 93.12 37.01 93.09 37.01 93.06 37.01 93.02 37 92.96 36.97 92.89 36.93 92.83 36.89 92.76 36.84 92.69 36.79 92.62 36.72 92.56 36.66 92.49 36.58 91.43 35.51 93.22 35.11 93.22 35.1 93.24 35.09 93.27 35.08 93.31 35.08 93.41 35.06 93.5 35.05 93.57 35.04 93.63 35.06 93.65 35.06 93.68 35.06 93.7 35.07 93.73 35.08 93.74 35.1 93.76 35.14 93.77 35.16 93.78 35.2 93.78 35.24 93.78 35.28 93.78 35.34 93.78 35.39 93.75 35.52 93.71 35.67 93.87 35.71 94.48 33.46 94.32 33.41 94.28 33.49"/>
      <polygon class="cls-1" points="73.41 7.7 73.32 7.7 73.24 7.69 73.16 7.67 73.09 7.65 73.03 7.62 72.98 7.59 72.93 7.56 72.89 7.53 72.86 7.49 72.83 7.45 72.81 7.4 72.79 7.35 72.78 7.3 72.78 7.24 72.79 7.18 72.8 7.11 73.21 3.8 73.21 3.74 73.23 3.69 73.24 3.64 73.26 3.59 73.29 3.55 73.32 3.52 73.35 3.48 73.39 3.46 73.44 3.43 73.49 3.41 73.54 3.4 73.6 3.38 73.66 3.38 73.73 3.38 73.81 3.38 73.89 3.39 73.91 3.38 73.94 3.37 73.96 3.21 71.54 2.91 71.52 3.08 71.59 3.09 71.67 3.11 71.74 3.13 71.79 3.15 71.85 3.17 71.9 3.21 71.95 3.24 71.99 3.28 72.02 3.31 72.05 3.36 72.07 3.4 72.09 3.45 72.1 3.5 72.11 3.55 72.11 3.61 72.1 3.67 71.69 6.98 71.69 7.04 71.68 7.09 71.66 7.14 71.64 7.19 71.61 7.23 71.58 7.27 71.54 7.3 71.5 7.33 71.45 7.35 71.4 7.38 71.35 7.39 71.28 7.4 71.22 7.41 71.14 7.41 71.07 7.41 70.98 7.41 70.96 7.57 73.39 7.87 73.41 7.7"/>
      <polygon class="cls-1" points="76.28 3.83 76.32 3.86 76.36 3.89 76.39 3.92 76.43 3.95 76.45 3.99 76.48 4.04 76.5 4.08 76.52 4.12 76.54 4.17 76.55 4.22 76.56 4.28 76.57 4.33 76.57 4.39 76.58 4.45 76.75 8.94 76.93 9 79.84 5.79 79.89 5.74 79.93 5.69 79.97 5.64 80.02 5.6 80.06 5.57 80.11 5.54 80.16 5.51 80.21 5.49 80.26 5.48 80.31 5.46 80.36 5.45 80.41 5.45 80.47 5.45 80.52 5.46 80.57 5.47 80.63 5.48 80.68 5.33 79.32 4.81 79.26 4.96 79.39 5.02 79.5 5.08 79.55 5.12 79.59 5.15 79.63 5.18 79.65 5.21 79.68 5.25 79.7 5.28 79.71 5.31 79.73 5.34 79.73 5.38 79.73 5.41 79.71 5.44 79.7 5.48 79.67 5.53 79.62 5.6 79.55 5.69 79.47 5.79 79.42 5.85 79.4 5.88 77.75 7.69 77.7 5.32 77.69 5.21 77.68 5.1 77.67 5.01 77.67 4.93 77.67 4.86 77.69 4.79 77.69 4.73 77.71 4.68 77.72 4.65 77.73 4.62 77.74 4.59 77.76 4.56 77.79 4.54 77.82 4.53 77.85 4.52 77.89 4.51 77.93 4.51 77.98 4.51 78.04 4.52 78.09 4.53 78.22 4.57 78.37 4.62 78.43 4.47 76.25 3.63 76.2 3.78 76.24 3.81 76.28 3.83"/>
      <polygon class="cls-1" points="57.84 5.62 57.9 5.6 57.96 5.59 58.03 5.59 58.09 5.59 58.15 5.6 58.2 5.62 58.25 5.64 58.29 5.67 58.34 5.7 58.37 5.74 58.41 5.79 58.45 5.85 58.48 5.91 58.51 5.97 58.53 6.05 59.36 8.21 59.39 8.3 59.43 8.4 59.47 8.5 59.52 8.58 59.57 8.67 59.62 8.74 59.67 8.82 59.73 8.88 59.79 8.94 59.85 9 59.91 9.05 59.98 9.09 60.05 9.13 60.12 9.16 60.19 9.2 60.27 9.22 60.34 9.24 60.42 9.25 60.49 9.26 60.57 9.27 60.66 9.27 60.75 9.27 60.83 9.27 60.92 9.26 61.01 9.25 61.1 9.23 61.2 9.21 61.3 9.2 61.51 9.14 61.72 9.07 61.82 9.02 61.92 8.98 62.01 8.93 62.1 8.88 62.18 8.83 62.26 8.78 62.34 8.73 62.41 8.67 62.48 8.61 62.54 8.54 62.59 8.49 62.65 8.42 62.7 8.36 62.74 8.29 62.79 8.22 62.82 8.15 62.84 8.09 62.86 8.02 62.88 7.96 62.88 7.88 62.89 7.81 62.9 7.73 62.89 7.65 62.89 7.57 62.88 7.48 62.86 7.39 62.85 7.29 62.83 7.2 62.77 6.99 62.7 6.77 61.9 4.7 61.88 4.63 61.85 4.57 61.83 4.52 61.83 4.46 61.82 4.41 61.82 4.35 61.83 4.3 61.84 4.25 61.87 4.21 61.89 4.16 61.93 4.12 61.97 4.08 62.02 4.05 62.07 4.01 62.13 3.98 62.19 3.95 62.14 3.79 60.72 4.34 60.78 4.49 60.86 4.46 60.94 4.44 61.02 4.42 61.09 4.42 61.16 4.42 61.22 4.42 61.28 4.44 61.34 4.46 61.4 4.49 61.45 4.53 61.49 4.57 61.53 4.63 61.57 4.68 61.61 4.75 61.63 4.83 61.66 4.91 62.42 6.88 62.48 7.05 62.53 7.21 62.57 7.36 62.59 7.51 62.6 7.59 62.6 7.66 62.6 7.72 62.6 7.79 62.59 7.86 62.58 7.91 62.57 7.97 62.55 8.03 62.53 8.09 62.51 8.14 62.48 8.19 62.45 8.24 62.41 8.29 62.38 8.34 62.34 8.38 62.29 8.43 62.24 8.47 62.19 8.51 62.14 8.55 62.08 8.58 62.02 8.62 61.96 8.65 61.89 8.68 61.82 8.71 61.7 8.75 61.58 8.79 61.52 8.8 61.47 8.8 61.41 8.8 61.36 8.8 61.31 8.8 61.26 8.8 61.2 8.79 61.16 8.77 61.11 8.75 61.06 8.74 61.02 8.71 60.97 8.69 60.93 8.66 60.88 8.63 60.84 8.59 60.8 8.54 60.72 8.46 60.65 8.35 60.58 8.24 60.51 8.11 60.45 7.97 60.39 7.8 59.57 5.65 59.53 5.58 59.5 5.5 59.48 5.43 59.47 5.36 59.46 5.3 59.47 5.24 59.48 5.18 59.5 5.13 59.53 5.07 59.57 5.02 59.61 4.98 59.66 4.94 59.73 4.9 59.8 4.86 59.88 4.83 59.97 4.8 59.91 4.65 57.7 5.49 57.76 5.65 57.84 5.62"/>
      <polygon class="cls-1" points="90.12 20.36 90.09 20.42 90.05 20.48 90.01 20.52 89.96 20.57 89.91 20.61 89.85 20.64 89.79 20.67 89.7 20.7 89.62 20.72 89.53 20.73 89.46 20.73 89.37 20.73 89.3 20.72 89.23 20.7 89.16 20.67 89.1 20.64 89.04 20.6 88.98 20.56 88.93 20.5 88.88 20.44 88.83 20.36 88.78 20.29 88.73 20.2 88.68 20.08 88.65 19.95 88.63 19.89 88.62 19.83 88.61 19.77 88.61 19.72 88.6 19.65 88.61 19.59 88.62 19.53 88.62 19.47 88.63 19.41 88.65 19.35 88.67 19.29 88.68 19.23 88.74 19.11 88.8 18.99 88.88 18.87 88.97 18.75 89.07 18.63 89.18 18.51 89.31 18.4 89.46 18.28 89.37 18.11 87.87 18.81 87.95 18.98 88 18.97 88.04 18.97 88.08 18.97 88.11 18.98 88.15 19 88.17 19.02 88.2 19.06 88.22 19.1 88.23 19.15 88.24 19.22 88.25 19.29 88.26 19.38 88.32 19.62 88.39 19.84 88.42 19.95 88.46 20.06 88.5 20.16 88.55 20.26 88.64 20.42 88.74 20.58 88.79 20.65 88.84 20.72 88.89 20.78 88.94 20.84 89 20.9 89.05 20.95 89.11 21 89.16 21.05 89.23 21.09 89.28 21.13 89.34 21.17 89.41 21.2 89.47 21.22 89.54 21.25 89.6 21.27 89.66 21.28 89.73 21.3 89.8 21.31 89.87 21.32 89.94 21.32 90.02 21.32 90.09 21.32 90.16 21.3 90.24 21.3 90.32 21.28 90.39 21.26 90.47 21.24 90.55 21.21 90.64 21.16 90.72 21.11 90.8 21.06 90.88 20.99 90.94 20.93 91.01 20.87 91.07 20.8 91.12 20.72 91.17 20.64 91.22 20.56 91.26 20.47 91.29 20.38 91.32 20.29 91.35 20.19 91.37 20.09 91.38 19.98 91.4 18.87 91.4 18.76 91.41 18.66 91.41 18.56 91.42 18.47 91.44 18.39 91.46 18.31 91.47 18.24 91.51 18.17 91.54 18.11 91.57 18.05 91.61 18 91.65 17.96 91.7 17.93 91.75 17.89 91.8 17.87 91.86 17.85 91.93 17.82 91.99 17.81 92.06 17.79 92.12 17.79 92.18 17.79 92.24 17.8 92.3 17.81 92.36 17.84 92.41 17.87 92.47 17.9 92.53 17.95 92.57 18 92.62 18.05 92.67 18.12 92.72 18.18 92.77 18.26 92.8 18.37 92.83 18.48 92.85 18.59 92.87 18.7 92.86 18.81 92.85 18.92 92.83 19.04 92.8 19.15 92.75 19.26 92.71 19.36 92.64 19.47 92.57 19.59 92.49 19.7 92.4 19.81 92.3 19.92 92.19 20.03 92.27 20.2 93.62 19.58 93.53 19.38 93.46 19.39 93.4 19.39 93.35 19.39 93.31 19.38 93.28 19.37 93.25 19.34 93.23 19.32 93.21 19.28 93.19 19.22 93.17 19.15 93.16 19.06 93.15 18.95 93.14 18.84 93.12 18.73 93.11 18.63 93.09 18.53 93.06 18.44 93.04 18.35 93.01 18.27 92.98 18.19 92.89 18.03 92.8 17.89 92.76 17.82 92.71 17.76 92.66 17.71 92.61 17.65 92.56 17.6 92.51 17.55 92.46 17.5 92.4 17.46 92.35 17.42 92.29 17.39 92.24 17.36 92.18 17.33 92.12 17.31 92.06 17.29 92 17.27 91.93 17.26 91.87 17.25 91.8 17.25 91.73 17.24 91.66 17.24 91.59 17.25 91.52 17.26 91.44 17.26 91.38 17.28 91.22 17.32 91.07 17.37 90.96 17.42 90.87 17.47 90.78 17.53 90.7 17.6 90.62 17.68 90.55 17.76 90.49 17.85 90.44 17.95 90.39 18.07 90.35 18.18 90.32 18.31 90.29 18.45 90.27 18.59 90.25 18.75 90.24 18.91 90.24 19.08 90.22 19.6 90.23 19.7 90.23 19.8 90.23 19.9 90.22 19.99 90.21 20.07 90.19 20.15 90.17 20.23 90.15 20.3 90.12 20.36"/>
      <polygon class="cls-1" points="93.61 26.86 93.61 27.05 93.75 27.07 93.88 27.1 94 27.13 94.12 27.18 94.22 27.23 94.32 27.3 94.36 27.33 94.4 27.38 94.44 27.41 94.48 27.46 94.51 27.5 94.55 27.54 94.57 27.59 94.6 27.64 94.65 27.75 94.69 27.87 94.72 27.99 94.74 28.13 94.75 28.27 94.75 28.42 91.09 28.36 91.01 28.36 90.93 28.36 90.85 28.35 90.78 28.34 90.72 28.32 90.67 28.3 90.62 28.26 90.58 28.22 90.54 28.17 90.51 28.12 90.49 28.06 90.47 28 90.46 27.93 90.44 27.84 90.44 27.76 90.45 27.67 90.29 27.67 90.24 30.13 90.41 30.14 90.41 30.05 90.41 29.95 90.42 29.87 90.43 29.8 90.46 29.74 90.48 29.67 90.52 29.62 90.55 29.57 90.6 29.54 90.65 29.51 90.7 29.48 90.76 29.46 90.83 29.46 90.91 29.45 90.99 29.46 91.07 29.47 94.73 29.53 94.73 29.68 94.71 29.81 94.69 29.95 94.66 30.06 94.62 30.17 94.57 30.28 94.54 30.33 94.51 30.37 94.47 30.42 94.44 30.46 94.4 30.49 94.36 30.54 94.32 30.57 94.27 30.61 94.17 30.67 94.06 30.72 93.95 30.76 93.82 30.8 93.69 30.82 93.54 30.84 93.54 31.06 94.92 31.06 95 26.91 93.61 26.86"/>
      <polygon class="cls-1" points="64.72 3.23 64.74 3.23 64.77 3.24 64.79 3.25 64.86 3.28 64.93 3.34 65.02 3.41 65.11 3.48 65.22 3.59 65.34 3.71 65.56 6.98 65.57 7.05 65.57 7.11 65.56 7.17 65.55 7.23 65.53 7.28 65.52 7.33 65.49 7.38 65.45 7.41 65.41 7.45 65.37 7.48 65.32 7.51 65.26 7.54 65.2 7.56 65.13 7.57 65.06 7.59 64.98 7.59 64.99 7.76 66.56 7.65 66.55 7.48 66.46 7.49 66.38 7.48 66.31 7.48 66.23 7.46 66.17 7.44 66.11 7.41 66.06 7.38 66.01 7.35 65.97 7.3 65.94 7.25 65.91 7.19 65.89 7.13 65.87 7.06 65.86 6.99 65.85 6.91 65.86 6.83 65.66 4.07 69.01 7.56 69.19 7.55 68.91 3.51 68.9 3.46 68.9 3.4 68.9 3.34 68.9 3.29 68.91 3.25 68.93 3.2 68.95 3.16 68.98 3.12 69.01 3.08 69.06 3.05 69.1 3.01 69.15 2.99 69.21 2.96 69.27 2.94 69.34 2.92 69.41 2.91 69.4 2.75 67.91 2.85 67.92 3.01 68.01 3.01 68.09 3.01 68.17 3.03 68.23 3.04 68.29 3.07 68.35 3.09 68.41 3.13 68.45 3.16 68.49 3.21 68.53 3.26 68.55 3.31 68.58 3.37 68.6 3.44 68.61 3.51 68.62 3.58 68.62 3.67 68.77 5.75 66.15 2.97 64.69 3.07 64.71 3.23 64.72 3.23"/>
      <polygon class="cls-1" points="50.08 11.83 50.13 11.78 50.19 11.74 50.25 11.7 50.3 11.68 50.36 11.65 50.41 11.64 50.46 11.63 50.51 11.62 50.56 11.63 50.61 11.64 50.66 11.64 50.7 11.67 50.75 11.7 50.79 11.73 50.84 11.77 53.24 14.09 53.28 14.13 53.32 14.17 53.35 14.21 53.37 14.26 53.39 14.31 53.4 14.35 53.41 14.4 53.4 14.45 53.4 14.51 53.38 14.56 53.36 14.61 53.33 14.67 53.3 14.73 53.26 14.79 53.21 14.85 53.16 14.92 53.28 15.03 54.97 13.27 54.85 13.15 54.79 13.22 54.74 13.28 54.67 13.33 54.62 13.37 54.56 13.4 54.5 13.43 54.45 13.45 54.4 13.46 54.34 13.47 54.3 13.46 54.25 13.45 54.2 13.43 54.15 13.41 54.1 13.38 54.06 13.33 54.01 13.28 51.61 10.97 51.56 10.93 51.53 10.89 51.5 10.85 51.48 10.8 51.46 10.76 51.45 10.71 51.44 10.66 51.45 10.61 51.45 10.56 51.47 10.51 51.49 10.46 51.51 10.4 51.55 10.35 51.59 10.29 51.64 10.24 51.7 10.18 51.71 10.16 51.71 10.12 51.6 10.01 49.9 11.76 50.01 11.88 50.08 11.83"/>
      <polygon class="cls-1" points="46.43 17.42 46.47 17.36 46.51 17.31 46.55 17.26 46.6 17.22 46.64 17.18 46.69 17.16 46.74 17.13 46.79 17.12 46.84 17.11 46.88 17.11 46.93 17.11 46.98 17.13 47.04 17.15 47.09 17.17 47.14 17.21 50.04 18.87 50.09 18.9 50.14 18.93 50.18 18.97 50.22 19 50.25 19.04 50.27 19.08 50.29 19.13 50.3 19.18 50.31 19.23 50.31 19.28 50.3 19.34 50.29 19.4 50.26 19.46 50.24 19.53 50.21 19.6 50.16 19.67 50.31 19.75 52.34 16.23 51.23 15.27 51.14 15.44 51.24 15.57 51.33 15.71 51.4 15.85 51.47 15.98 51.51 16.12 51.55 16.26 51.59 16.39 51.6 16.53 51.6 16.66 51.59 16.8 51.57 16.94 51.54 17.08 51.49 17.21 51.44 17.35 51.37 17.48 51.29 17.62 51.25 17.69 51.21 17.76 51.18 17.81 51.14 17.87 51.1 17.91 51.07 17.95 51.03 17.98 50.99 18 50.95 18.02 50.91 18.03 50.87 18.03 50.83 18.03 50.79 18.02 50.74 18 50.7 17.98 50.66 17.95 49.2 17.11 49.26 17 49.33 16.9 49.4 16.81 49.47 16.74 49.54 16.67 49.63 16.61 49.72 16.57 49.8 16.53 49.9 16.51 50 16.49 50.11 16.49 50.21 16.51 50.32 16.53 50.44 16.56 50.56 16.6 50.69 16.65 50.77 16.51 48.75 15.34 48.67 15.48 48.78 15.56 48.88 15.65 48.97 15.73 49.05 15.82 49.11 15.91 49.16 16 49.19 16.09 49.22 16.18 49.24 16.27 49.24 16.37 49.22 16.47 49.21 16.57 49.17 16.67 49.12 16.78 49.06 16.88 48.99 16.99 47.61 16.19 47.56 16.17 47.53 16.15 47.5 16.13 47.48 16.1 47.46 16.07 47.45 16.04 47.44 16.01 47.43 15.97 47.43 15.93 47.44 15.89 47.45 15.84 47.46 15.8 47.49 15.74 47.51 15.69 47.54 15.64 47.58 15.57 47.67 15.42 47.75 15.28 47.84 15.15 47.94 15.04 47.99 14.98 48.04 14.94 48.09 14.9 48.14 14.85 48.19 14.82 48.25 14.78 48.3 14.75 48.35 14.73 48.41 14.7 48.46 14.68 48.53 14.67 48.58 14.66 48.65 14.64 48.71 14.64 48.76 14.64 48.83 14.64 48.89 14.65 48.95 14.66 49.01 14.67 49.08 14.68 49.22 14.73 49.35 14.79 49.45 14.62 48.25 13.93 46.24 17.41 46.38 17.48 46.43 17.42"/>
      <polygon class="cls-1" points="72.73 19.25 72.74 19.29 72.76 19.33 72.78 19.36 72.8 19.39 72.82 19.41 72.84 19.43 72.86 19.44 72.87 19.45 72.88 19.46 72.91 19.46 72.96 19.46 73.02 19.46 73.68 19.38 75.15 19.33 75.05 19.53 75.05 19.54 75.05 19.57 75.05 19.59 75.05 19.63 75.17 20.35 75.19 20.47 75.2 20.61 75.21 20.75 75.21 20.92 75.22 21.1 75.23 21.29 75.23 21.5 75.23 21.73 75.22 21.95 75.21 22.16 75.21 22.35 75.2 22.52 75.19 22.68 75.18 22.81 75.16 22.93 75.15 23.03 75.12 23.18 75.1 23.37 75.07 23.56 75.05 23.78 75.01 23.98 74.98 24.16 74.95 24.25 74.93 24.33 74.9 24.39 74.88 24.44 74.73 24.66 74.56 24.92 74.37 25.2 74.17 25.5 74.07 25.66 73.98 25.82 73.89 25.98 73.81 26.14 73.73 26.29 73.66 26.44 73.6 26.59 73.55 26.74 73.52 26.86 73.49 26.99 73.47 27.1 73.45 27.22 73.43 27.34 73.42 27.45 73.4 27.56 73.4 27.65 73.4 27.75 73.4 27.84 73.4 27.93 73.41 27.99 73.42 28.06 73.44 28.11 73.46 28.15 73.49 28.19 73.51 28.21 73.55 28.22 73.59 28.21 73.62 28.19 73.66 28.15 73.71 28.09 73.77 28.02 73.82 27.94 73.89 27.83 73.96 27.7 74.02 27.56 74.1 27.39 74.18 27.2 74.26 26.99 74.35 26.76 74.44 26.5 74.52 26.3 74.59 26.1 74.68 25.91 74.78 25.73 74.83 25.64 74.89 25.55 74.95 25.46 75.02 25.37 75.1 25.27 75.18 25.18 75.26 25.09 75.36 24.99 75.39 24.95 75.42 24.91 75.46 24.86 75.48 24.82 75.53 24.71 75.57 24.6 75.61 24.49 75.63 24.36 75.65 24.23 75.67 24.1 75.7 23.83 75.72 23.56 75.73 23.31 75.76 23.08 75.77 22.99 75.78 22.87 75.79 22.73 75.8 22.57 75.81 22.38 75.81 22.17 75.82 21.95 75.83 21.69 75.83 21.51 75.83 21.35 75.82 21.2 75.82 21.07 75.81 20.95 75.81 20.85 75.81 20.77 75.8 20.7 75.71 20.11 75.68 19.93 75.65 19.79 75.63 19.7 75.61 19.63 75.59 19.58 75.57 19.51 75.54 19.44 75.51 19.36 75.63 19.35 75.75 19.34 75.86 19.33 75.94 19.31 76.02 19.28 76.08 19.24 76.1 19.23 76.13 19.2 76.15 19.18 76.17 19.16 76.17 19.12 76.18 19.07 76.18 18.99 76.17 18.88 76.17 18.86 76.17 18.83 76.15 18.81 76.14 18.78 76.12 18.76 76.09 18.75 76.06 18.73 76.02 18.71 75.94 18.68 75.84 18.66 75.73 18.65 75.6 18.63 75.41 18.64 75.22 18.65 75.02 18.66 74.81 18.67 74.62 18.69 74.46 18.7 74.34 18.7 74.26 18.68 74.18 18.68 74.03 18.68 73.82 18.67 73.55 18.65 73.41 18.65 73.28 18.65 73.22 18.67 73.16 18.67 73.11 18.69 73.06 18.71 73.01 18.73 72.97 18.75 72.93 18.77 72.89 18.81 72.86 18.84 72.82 18.87 72.8 18.92 72.78 18.96 72.74 19.01 72.73 19.06 72.72 19.11 72.72 19.16 72.73 19.2 72.73 19.25"/>
      <polygon class="cls-1" points="71.54 18.38 71.59 18.48 71.68 18.6 71.76 18.72 71.84 18.83 71.9 18.92 71.94 19.01 71.95 19.05 71.97 19.11 71.99 19.16 72 19.23 72.03 19.4 72.05 19.6 72.06 19.75 72.06 19.89 72.06 20.04 72.06 20.18 72.05 20.31 72.04 20.46 72.03 20.6 72 20.75 71.87 21.29 71.85 21.35 71.84 21.41 71.83 21.45 71.84 21.51 71.84 21.54 71.85 21.59 71.88 21.64 71.9 21.68 71.94 21.72 71.96 21.74 72.01 21.76 72.05 21.76 72.08 21.76 72.13 21.75 72.16 21.72 72.21 21.69 72.26 21.63 72.31 21.56 72.36 21.48 72.41 21.39 72.47 21.28 72.53 21.17 72.58 21.05 72.62 20.93 72.64 20.82 72.66 20.7 72.67 20.58 72.67 20.46 72.67 20.34 72.66 20.21 72.65 20.07 72.64 19.94 72.63 19.79 72.62 19.65 72.6 19.5 72.58 19.34 72.56 19.19 72.53 19.04 72.5 18.9 72.47 18.76 72.43 18.64 72.39 18.51 72.34 18.4 72.29 18.3 72.23 18.2 72.17 18.12 72.12 18.05 72.06 17.99 72 17.95 71.94 17.92 71.9 17.9 71.87 17.9 71.84 17.89 71.8 17.89 71.74 17.9 71.68 17.93 71.63 17.95 71.59 17.99 71.56 18.04 71.53 18.1 71.52 18.16 71.51 18.24 71.51 18.26 71.51 18.3 71.52 18.34 71.54 18.38"/>
      <polygon class="cls-1" points="72.62 26.01 72.6 25.91 72.58 25.81 72.57 25.69 72.55 25.58 72.54 25.46 72.53 25.32 72.53 25.18 72.53 25.03 72.54 24.88 72.54 24.74 72.54 24.61 72.54 24.49 72.54 24.37 72.54 24.27 72.54 24.18 72.53 24.08 72.53 23.92 72.54 23.76 72.55 23.61 72.57 23.46 72.59 23.34 72.61 23.24 72.62 23.18 72.64 23.16 72.63 23.08 72.62 23.01 72.61 22.95 72.58 22.9 72.55 22.87 72.51 22.84 72.47 22.82 72.41 22.8 72.36 22.81 72.32 22.82 72.27 22.84 72.23 22.86 72.2 22.89 72.16 22.92 72.13 22.96 72.11 23.01 72.08 23.06 72.06 23.13 72.05 23.19 72.03 23.27 72.02 23.35 72.01 23.43 72 23.53 72 23.62 71.99 24.82 71.96 24.9 71.96 24.94 71.99 25.21 71.97 25.22 71.97 25.23 71.97 25.24 71.99 25.24 72.1 26.55 72.11 26.65 72.16 26.84 72.19 26.96 72.21 27.1 72.25 27.27 72.26 27.45 72.29 27.62 72.31 27.77 72.34 27.89 72.37 27.98 72.39 28.01 72.41 28.04 72.42 28.07 72.44 28.09 72.46 28.1 72.48 28.11 72.5 28.11 72.51 28.11 72.53 28.1 72.55 28.09 72.57 28.07 72.59 28.05 72.62 27.99 72.66 27.93 72.69 27.84 72.72 27.75 72.74 27.64 72.76 27.53 72.78 27.43 72.78 27.33 72.78 27.23 72.78 27.13 72.77 26.94 72.74 26.75 72.71 26.56 72.68 26.37 72.64 26.19 72.62 26.01"/>
      <polygon class="cls-1" points="70.44 18.21 70.47 18.26 70.85 18.83 70.9 18.94 70.95 19.11 71.01 19.32 71.08 19.57 71.11 19.71 71.14 19.84 71.16 19.98 71.18 20.12 71.2 20.26 71.21 20.4 71.22 20.54 71.23 20.67 71.23 20.93 71.23 21.15 71.21 21.34 71.19 21.49 70.96 22.91 70.87 24.6 70.9 25.84 71.06 27.53 71.06 27.6 71.07 27.73 71.09 27.84 71.11 27.96 71.12 28.05 71.15 28.14 71.17 28.21 71.2 28.28 71.23 28.33 71.25 28.38 71.27 28.42 71.3 28.45 71.33 28.47 71.35 28.48 71.38 28.49 71.41 28.48 71.44 28.47 71.47 28.46 71.5 28.43 71.52 28.4 71.54 28.36 71.57 28.32 71.59 28.27 71.61 28.22 71.63 28.15 71.67 28.02 71.7 27.87 71.73 27.7 71.73 27.53 71.71 27.35 71.55 25.46 71.55 25.29 71.58 23.53 71.82 21.51 71.82 21.44 71.83 21.36 71.83 21.28 71.84 21.19 71.84 21.07 71.83 20.88 71.82 20.63 71.8 20.31 71.79 20.14 71.78 19.98 71.76 19.83 71.74 19.69 71.73 19.56 71.7 19.44 71.68 19.34 71.66 19.24 71.63 19.15 71.59 19.06 71.55 18.95 71.51 18.84 71.4 18.6 71.28 18.34 71.21 18.21 71.14 18.1 71.07 18 71 17.93 70.96 17.89 70.92 17.86 70.88 17.83 70.85 17.81 70.81 17.79 70.77 17.78 70.74 17.77 70.69 17.77 70.66 17.77 70.62 17.78 70.59 17.78 70.56 17.8 70.53 17.81 70.51 17.84 70.5 17.86 70.48 17.89 70.45 17.95 70.43 18 70.43 18.03 70.42 18.07 70.41 18.12 70.42 18.16 70.44 18.21"/>
      <polygon class="cls-1" points="70.2 20.66 70.2 20.75 70.19 20.82 70.18 20.88 70.16 20.92 70.14 20.99 70.1 21.06 70.08 21.13 70.06 21.19 69.83 21.67 69.8 21.75 69.78 21.83 69.77 21.9 69.77 21.96 69.77 22.03 69.78 22.09 69.8 22.14 69.83 22.18 69.85 22.19 69.87 22.21 69.88 22.22 69.91 22.23 69.96 22.23 70.01 22.23 70.04 22.23 70.07 22.22 70.1 22.22 70.13 22.2 70.19 22.16 70.25 22.1 70.31 22.02 70.38 21.93 70.45 21.83 70.51 21.7 70.57 21.56 70.63 21.43 70.68 21.28 70.72 21.13 70.76 20.97 70.78 20.81 70.8 20.64 70.81 20.48 70.81 20.39 70.8 20.28 70.79 20.15 70.77 20 70.76 19.85 70.74 19.73 70.72 19.63 70.71 19.55 70.68 19.47 70.63 19.36 70.56 19.21 70.48 19.02 70.43 18.92 70.38 18.84 70.33 18.77 70.28 18.71 70.22 18.66 70.18 18.62 70.12 18.6 70.06 18.59 70.03 18.59 70 18.59 69.96 18.6 69.93 18.61 69.91 18.62 69.88 18.64 69.86 18.66 69.84 18.68 69.82 18.7 69.81 18.73 69.8 18.76 69.78 18.8 69.77 18.87 69.77 18.96 69.77 19.01 69.78 19.06 69.79 19.11 69.81 19.16 70.18 19.73 70.19 19.81 70.2 19.91 70.2 20.04 70.22 20.18 70.22 20.45 70.2 20.66"/>
      <path class="cls-1" d="M73.5,23.35l.07.03.08.02.08.02h.08s.09.01.09.01h.09s.08-.02.08-.02h.08s.08-.03.08-.03l.07-.03.07-.03.07-.04.07-.03.06-.05.05-.05.05-.06.04-.07.04-.08.02-.08.03-.09v-.1s.04-.19.04-.19l.02-.17v-.14s.02-.12.02-.12v-.37l-.07-.8v-.19s-.02-.18-.02-.18v-.15s-.03-.13-.03-.13l-.02-.11-.02-.09-.02-.07-.02-.05-.03-.04-.02-.03-.02-.03-.02-.02-.03-.02h-.03s-.02-.02-.02-.02h-.07s-.04.02-.04.02l-.03.02-.04.02-.03.02-.03.02-.02.03-.02.04-.04.06-.02.04-.02.04v.08s.02.06.02.06v.04s.01.07.01.07v.09s.02.11.02.11v.11s.03.1.03.1v.09s.01.06.01.06v.06s.01.07.01.07v.07s.02.07.02.07l-.73.07v-.25l.03-.49v-.14s-.02-.12-.02-.12v-.05s-.02-.05-.02-.05l-.02-.04-.02-.04-.02-.03-.02-.02-.02-.03-.03-.02-.02-.02h-.03s-.03-.01-.03-.01h-.03s-.07,0-.07,0l-.06.02h-.03s-.02.03-.02.03l-.02.03-.02.02-.04.06-.02.07-.03.07v.09s-.03.1-.03.1v.1s-.02.13-.02.13v.27s0,.11,0,.11v.17s0,.06,0,.06v.11s.01.05.01.05v.5s.01.14.01.14v.14s.02.13.02.13v.12s.03.11.03.11l.03.11.03.1.02.09.03.08.03.07.04.07.04.06.03.05.05.05.06.06.06.05.07.04ZM73.58,21.86h0s.01-.02.01-.02l.7-.03v.51s-.03.09-.03.09v.04s-.02.03-.02.03l-.02.04-.02.03-.02.03-.03.02-.02.02h-.02s-.03.03-.03.03h-.03s-.04.01-.04.01h-.07s-.04,0-.04,0h-.03s-.04-.02-.04-.02l-.03-.02-.03-.03-.02-.03-.03-.04-.02-.04-.02-.04-.02-.04v-.05s-.03-.06-.03-.06v-.05s-.02-.06-.02-.06v-.06s0-.11,0-.11v-.08s0-.06,0-.06v-.02h-.01Z"/>
      <polygon class="cls-1" points="76.01 46.48 75.41 46.34 74.81 46.19 74.18 46.03 73.55 45.87 72.92 45.71 72.31 45.55 71.7 45.38 71.12 45.2 70.57 45.04 70.06 44.87 69.82 44.79 69.59 44.71 69.38 44.63 69.17 44.56 68.99 44.48 68.82 44.4 68.67 44.33 68.53 44.26 68.34 44.16 68.15 44.07 67.94 44 67.73 43.93 67.52 43.87 67.3 43.81 67.07 43.78 66.83 43.75 66.6 43.72 66.36 43.71 66.11 43.69 65.86 43.69 65.61 43.69 65.35 43.71 65.09 43.72 64.83 43.74 64.58 43.76 64.32 43.79 64.06 43.83 63.81 43.87 63.55 43.91 63.3 43.95 63.05 44 62.8 44.05 62.31 44.16 61.84 44.27 61.39 44.38 60.96 44.5 60.69 44.58 60.42 44.67 60.15 44.76 59.89 44.85 59.63 44.96 59.37 45.06 59.13 45.17 58.89 45.27 59.17 45.45 59.46 45.62 59.76 45.78 60.06 45.95 60.36 46.11 60.66 46.26 60.96 46.4 61.27 46.55 61.58 46.69 61.89 46.82 62.22 46.94 62.53 47.07 62.85 47.18 63.18 47.29 63.51 47.39 63.84 47.49 64.17 47.59 64.5 47.68 64.83 47.76 65.18 47.84 65.52 47.9 65.86 47.98 66.2 48.03 66.55 48.08 66.9 48.13 67.25 48.17 67.6 48.2 67.96 48.23 68.31 48.26 68.67 48.27 69.02 48.28 69.39 48.28 69.64 48.28 69.89 48.28 70.15 48.27 70.4 48.26 70.66 48.24 70.91 48.23 71.16 48.21 71.41 48.18 71.66 48.15 71.9 48.13 72.15 48.09 72.4 48.05 72.64 48.02 72.88 47.98 73.13 47.93 73.38 47.88 73.85 47.78 74.33 47.66 74.8 47.53 75.27 47.39 75.73 47.25 76.19 47.08 76.64 46.91 77.09 46.73 76.56 46.61 76.01 46.48"/>
      <polygon class="cls-1" points="72.25 30.81 72.22 30.62 72.18 30.44 72.15 30.27 72.1 30.11 72.05 29.96 72 29.82 71.94 29.69 71.88 29.57 71.82 29.46 71.75 29.35 71.68 29.26 71.61 29.17 71.53 29.09 71.46 29.01 71.38 28.94 71.31 28.88 71.24 28.83 71.1 28.73 70.96 28.66 70.84 28.6 70.74 28.55 70.73 28.55 70.72 28.55 70.69 28.52 70.66 28.49 70.61 28.46 70.56 28.45 70.53 28.44 70.49 28.43 70.46 28.43 70.42 28.43 70.39 28.43 70.35 28.45 70.31 28.46 70.28 28.47 70.25 28.49 70.22 28.51 70.19 28.53 70.17 28.56 70.14 28.59 70.13 28.62 70.1 28.65 70.09 28.68 70.08 28.75 70.06 28.8 70.06 28.85 70.06 28.89 70.06 28.94 70.08 28.98 70.09 29.01 70.11 29.04 70.14 29.07 70.18 29.09 70.2 29.12 70.25 29.14 70.34 29.18 70.44 29.24 70.53 29.27 70.65 29.34 70.71 29.36 70.77 29.41 70.83 29.45 70.9 29.5 70.96 29.56 71.03 29.62 71.1 29.69 71.17 29.77 71.23 29.86 71.29 29.96 71.35 30.06 71.41 30.18 71.26 30.27 71.09 30.38 70.9 30.52 70.71 30.67 70.61 30.75 70.52 30.83 70.43 30.93 70.34 31.02 70.26 31.12 70.19 31.22 70.12 31.33 70.06 31.43 70.06 31.44 70.03 31.52 70 31.6 69.97 31.69 69.94 31.78 69.9 31.98 69.87 32.19 69.85 32.41 69.83 32.63 69.81 32.86 69.8 33.08 69.8 33.49 69.81 33.82 69.82 34.05 69.82 34.14 69.83 34.17 69.83 34.21 69.85 34.25 69.87 34.28 69.88 34.31 69.9 34.34 69.93 34.37 69.95 34.4 69.98 34.41 70.01 34.43 70.04 34.45 70.08 34.46 70.11 34.47 70.14 34.48 70.18 34.49 70.22 34.49 70.26 34.48 70.3 34.47 70.33 34.46 70.36 34.44 70.4 34.42 70.43 34.41 70.45 34.38 70.48 34.36 70.5 34.33 70.52 34.3 70.54 34.27 70.55 34.23 70.56 34.2 70.57 34.16 70.57 34.13 70.57 34.09 70.56 34.01 70.56 33.81 70.55 33.5 70.55 33.15 70.55 32.96 70.56 32.76 70.57 32.56 70.6 32.38 70.62 32.19 70.65 32.03 70.67 31.95 70.69 31.88 70.71 31.82 70.74 31.76 70.77 31.69 70.81 31.64 70.85 31.58 70.9 31.52 71 31.4 71.11 31.3 71.24 31.2 71.37 31.1 71.49 31.01 71.61 30.94 71.63 31.08 71.64 31.25 71.64 31.41 71.64 31.59 71.64 31.77 71.63 31.97 71.61 32.18 71.58 32.4 71.58 32.4 71.58 32.41 71.54 32.66 71.5 32.9 71.46 33.13 71.42 33.37 71.37 33.59 71.32 33.81 71.27 34.02 71.21 34.23 71.1 34.63 70.98 35 70.87 35.35 70.75 35.67 70.63 35.96 70.52 36.23 70.41 36.47 70.31 36.69 70.22 36.87 70.14 37.03 70.06 37.15 70.01 37.26 69.96 37.34 69.93 37.42 69.89 37.49 69.88 37.56 69.88 37.6 69.88 37.62 69.89 37.66 69.91 37.69 69.92 37.72 69.94 37.76 69.98 37.79 70.01 37.83 70.04 37.86 70.08 37.89 70.11 37.91 70.14 37.93 70.18 37.95 70.21 37.95 70.24 37.96 70.28 37.97 70.31 37.96 70.35 37.95 70.38 37.94 70.41 37.93 70.45 37.91 70.48 37.88 70.51 37.85 70.55 37.82 70.59 37.77 70.62 37.73 70.64 37.67 70.66 37.62 70.66 37.62 70.66 37.62 70.66 37.6 70.66 37.56 70.67 37.51 70.69 37.45 70.74 37.29 70.81 37.09 70.89 36.85 71 36.57 71.11 36.26 71.23 35.91 71.35 35.54 71.49 35.15 71.62 34.73 71.75 34.3 71.88 33.86 72 33.41 72.05 33.18 72.1 32.96 72.15 32.73 72.2 32.5 72.23 32.21 72.26 31.95 72.27 31.69 72.27 31.45 72.27 31.23 72.26 31.01 72.25 30.81"/>
      <polygon class="cls-1" points="70.56 24.92 70.74 23.23 70.73 23.16 70.72 23.1 70.7 23.05 70.67 23 70.65 22.97 70.61 22.95 70.57 22.93 70.54 22.93 70.49 22.94 70.45 22.95 70.41 22.96 70.38 22.98 70.35 23 70.32 23.03 70.3 23.05 70.27 23.08 70.25 23.12 70.24 23.16 70.22 23.22 70.2 23.29 70.16 23.46 70.13 23.67 69.94 24.97 69.93 26.01 69.94 26.36 69.94 26.49 69.93 26.63 69.93 26.76 69.94 26.88 69.95 27.01 69.96 27.12 69.98 27.24 70 27.34 70.03 27.45 70.05 27.54 70.08 27.64 70.11 27.71 70.14 27.79 70.18 27.85 70.21 27.91 70.25 27.95 70.29 27.98 70.31 28.01 70.35 28.01 70.39 28.01 70.41 28 70.45 27.97 70.48 27.93 70.5 27.87 70.53 27.8 70.55 27.71 70.56 27.61 70.57 27.49 70.58 27.35 70.59 27.2 70.59 27.02 70.58 26.83 70.56 26.31 70.54 26.16 70.53 26.05 70.53 25.96 70.54 25.91 70.56 24.92"/>
      <polygon class="cls-1" points="69.15 33.72 69.11 33.59 69.07 33.46 68.97 33.13 68.84 32.74 68.81 32.7 68.79 32.65 68.76 32.6 68.74 32.56 68.7 32.51 68.67 32.47 68.63 32.44 68.58 32.4 68.54 32.36 68.48 32.33 68.43 32.29 68.37 32.25 68.25 32.2 68.1 32.14 67.95 32.09 67.78 32.05 67.6 32.01 67.4 31.97 67.19 31.95 66.97 31.92 66.73 31.9 66.48 31.89 66.48 31.85 66.46 31.78 66.42 31.72 66.39 31.67 66.36 31.62 66.32 31.57 66.29 31.53 66.25 31.5 66.22 31.48 66.18 31.45 66.15 31.44 66.11 31.43 66.07 31.43 66.03 31.43 66 31.43 65.96 31.45 65.92 31.46 65.92 31.55 65.89 31.64 65.84 31.72 65.8 31.78 65.75 31.84 65.7 31.88 65.64 31.91 65.61 31.92 65.58 31.93 65.55 31.93 65.52 31.93 65.29 31.94 65.07 31.96 64.87 31.98 64.67 32.01 64.5 32.04 64.33 32.08 64.17 32.13 64.03 32.18 63.9 32.24 63.79 32.3 63.68 32.38 63.58 32.45 63.54 32.5 63.5 32.54 63.47 32.59 63.43 32.63 63.4 32.68 63.37 32.73 63.35 32.77 63.32 32.82 63.3 32.89 63.27 32.94 63.24 32.97 63.22 33 63.17 33.06 63.14 33.11 63.12 33.15 63.1 33.19 63.08 33.25 63.06 33.33 63.05 33.42 63.03 33.54 63.01 33.68 63 33.86 62.97 34.19 62.95 34.49 62.95 34.77 62.95 35.01 62.96 35.21 62.98 35.39 63 35.46 63.01 35.53 63.02 35.59 63.05 35.64 63.09 35.66 63.13 35.67 63.17 35.68 63.21 35.68 63.24 35.67 63.28 35.66 63.31 35.64 63.33 35.62 63.36 35.59 63.38 35.55 63.4 35.51 63.42 35.46 63.43 35.41 63.44 35.35 63.45 35.29 63.46 35.22 63.47 34.8 63.48 34.47 63.48 34.34 63.49 34.21 63.5 34.1 63.52 34 63.53 33.89 63.55 33.79 63.58 33.69 63.61 33.6 63.68 33.36 63.78 33.08 63.8 33.04 63.82 33 63.85 32.96 63.88 32.92 63.91 32.88 63.95 32.85 63.99 32.81 64.03 32.78 64.13 32.72 64.25 32.67 64.38 32.62 64.52 32.58 64.68 32.54 64.86 32.51 65.04 32.49 65.24 32.47 65.45 32.45 65.68 32.44 65.92 32.44 66.18 32.44 66.23 32.44 66.28 32.44 66.47 32.44 66.66 32.44 66.83 32.44 67 32.45 67.16 32.47 67.3 32.49 67.44 32.51 67.57 32.55 67.69 32.59 67.8 32.63 67.9 32.69 67.99 32.75 68.08 32.81 68.15 32.88 68.22 32.96 68.27 33.04 68.31 33.1 68.34 33.17 68.38 33.25 68.42 33.34 68.45 33.43 68.48 33.55 68.51 33.66 68.54 33.78 68.6 34.05 68.65 34.36 68.69 34.71 68.72 34.99 68.72 34.92 68.7 34.75 68.69 34.55 68.67 34.35 68.66 34.19 68.66 34.09 68.66 34.08 68.7 34.33 68.74 34.55 68.77 34.75 68.8 34.93 68.84 35.09 68.86 35.23 68.89 35.35 68.91 35.44 68.93 35.48 68.95 35.52 68.97 35.54 69 35.57 69.02 35.59 69.05 35.6 69.08 35.61 69.12 35.61 69.15 35.6 69.19 35.58 69.22 35.56 69.23 35.54 69.25 35.51 69.27 35.48 69.27 35.44 69.27 35.4 69.27 34.92 69.26 34.54 69.25 34.38 69.24 34.23 69.22 34.1 69.21 33.98 69.18 33.84 69.15 33.72"/>
      <polygon class="cls-1" points="62.91 30.08 62.93 30.28 62.94 30.49 62.96 30.7 63 30.81 63.03 30.92 63.07 31.02 63.1 31.11 63.14 31.2 63.18 31.28 63.22 31.35 63.26 31.42 63.31 31.48 63.35 31.54 63.39 31.58 63.43 31.63 63.48 31.66 63.53 31.69 63.58 31.71 63.63 31.72 63.78 31.73 63.92 31.73 64.05 31.73 64.17 31.74 64.29 31.76 64.4 31.77 64.5 31.78 64.6 31.81 64.68 31.78 64.74 31.75 64.77 31.73 64.79 31.71 64.81 31.69 64.83 31.67 64.83 31.64 64.85 31.61 64.85 31.59 64.85 31.56 64.84 31.53 64.83 31.5 64.82 31.46 64.81 31.42 64.71 31.39 64.62 31.37 64.52 31.35 64.42 31.33 64.32 31.31 64.21 31.31 64.1 31.3 63.98 31.29 63.94 31.28 63.89 31.26 63.84 31.24 63.8 31.21 63.76 31.18 63.73 31.15 63.69 31.12 63.66 31.08 63.63 31.05 63.59 31 63.57 30.96 63.54 30.91 63.53 30.87 63.51 30.81 63.49 30.75 63.48 30.7 63.45 30.66 63.44 30.61 63.43 30.58 63.43 30.53 63.51 30.56 63.6 30.59 63.71 30.62 63.84 30.65 63.96 30.68 64.11 30.7 64.27 30.73 64.45 30.74 64.5 30.73 64.55 30.7 64.56 30.69 64.57 30.68 64.59 30.66 64.6 30.64 64.6 30.61 64.61 30.59 64.6 30.56 64.6 30.53 64.58 30.47 64.55 30.4 64.41 30.35 64.31 30.3 64.23 30.28 64.19 30.27 64.03 30.26 63.89 30.22 63.78 30.19 63.67 30.16 63.58 30.12 63.51 30.08 63.48 30.05 63.46 30.03 63.44 30 63.43 29.98 63.43 29.85 63.44 29.72 63.45 29.6 63.48 29.47 63.61 29.53 63.74 29.58 63.88 29.63 64.03 29.67 64.17 29.71 64.33 29.73 64.48 29.76 64.65 29.77 64.67 29.72 64.69 29.68 64.7 29.64 64.7 29.6 64.7 29.55 64.69 29.51 64.67 29.47 64.65 29.43 64.53 29.35 64.42 29.3 64.37 29.28 64.32 29.27 64.28 29.25 64.24 29.25 64.12 29.22 64.01 29.18 63.9 29.14 63.8 29.09 63.73 29.03 63.65 28.97 63.58 28.9 63.53 28.83 63.51 28.73 63.49 28.63 63.46 28.55 63.42 28.47 63.38 28.42 63.33 28.36 63.28 28.31 63.22 28.28 63.18 28.3 63.16 28.31 63.13 28.35 63.11 28.38 63.08 28.41 63.06 28.45 63.04 28.49 63.01 28.54 62.98 28.66 62.95 28.78 62.93 28.93 62.91 29.09 62.9 29.28 62.9 29.47 62.9 29.67 62.9 29.87 62.91 30.08"/>
      <path class="cls-1" d="M89.11,30.99l.06-.52.05-.51.03-.52.02-.52v-.53s-.02-1.02-.02-1.02l-.07-1.01-.13-.99-.17-.98-.22-.96-.27-.95-.31-.92-.36-.9-.4-.89-.44-.86-.48-.84-.52-.8-.55-.78-.59-.76-.63-.72-.66-.69-.69-.66-.72-.63-.75-.59-.78-.55-.8-.52-.84-.48-.86-.44-.89-.4-.9-.36-.92-.31-.95-.27-.96-.22-.98-.17-.99-.13-1.01-.08-1.02-.02-1.03.02-1.01.08-.99.13-.98.17-.96.22-.95.27-.92.31-.9.36-.89.4-.86.44-.84.48-.8.52-.78.55-.75.59-.72.63-.69.66-.66.69-.63.72-.59.76-.56.78-.52.8-.48.84-.44.86-.4.89-.36.9-.31.92-.27.95-.22.96-.17.98-.13.99-.07,1.01-.03,1.02v.53s.03.52.03.52l.03.52.05.52.06.51.07.51.09.5.1.5.11.5.12.49.13.49.15.48.16.48.17.47.19.47.19.46.21.45.22.45.23.44.23.44.26.43.26.42.26.42.28.41.29.4.3.4.31.38.32.38.32.37.34.36.34.35.35.34.33-.11.35-.11.38-.11.41-.11.43-.11.46-.1.23-.05.24-.04.25-.05.25-.03.25-.04.26-.03.26-.03.27-.02.27-.02.27-.02h.28s.28-.02.28-.02h.28s.28,0,.28,0h.28s.28.03.28.03l.28.02.29.02.29.04.29.04.44.07.43.08.44.08.43.08.87.17.87.18.87.18.86.17.85.17.85.17.42.08.41.08.41.07.42.07.41.06.4.05.4.05.4.05.4.04.38.04.38.02.38.02h.37s.37,0,.37,0h.37s.35-.02.35-.02l.33-.02.34-.03.37-.04.38-.05.39-.05.4-.06.42-.07.42-.07.43-.08.43-.08.44-.08.44-.09.44-.09.44-.09.44-.1.43-.09.35-.34.34-.35.34-.37.33-.37.31-.38.31-.38.3-.39.29-.4.28-.41.27-.41.26-.43.25-.43.24-.43.23-.45.21-.44.21-.46.2-.46.18-.46.17-.48.16-.48.15-.48.14-.48.12-.49.11-.49.1-.5.09-.5.07-.51ZM60.08,14.68h4.53v2.8h2.32v-2.8h5.02v2.8h2.32v-2.8h4.41v16.24s-.05.47-.05.47l-.06.47-.08.45-.11.45-.12.44-.15.43-.17.42-.19.41-.2.4-.22.39-.25.38-.26.36-.27.35-.3.34-.31.32-.32.31-.34.3-.12.1v-.03s.02-.03.02-.03v-.03s.01-.03.01-.03v-.03l-.02-.07-.03-.07-.04-.08-.05-.08-.05-.1-.07-.13-.08-.16-.1-.19-.1-.21-.11-.25-.12-.27-.12-.3-.12-.32-.12-.35-.12-.37-.12-.4-.06-.21-.05-.22-.05-.22-.05-.23-.04-.24-.04-.23-.04-.25-.04-.25h0s-.03-.25-.03-.25l-.02-.22v-.21s-.01-.2-.01-.2v-.36s.02-.17.02-.17l.03-.15.12.07.14.09.16.11.15.12.08.06.07.07.07.07.07.07.06.07.05.08.05.07.04.07.02.06.03.06.02.07.02.07.03.17.03.18.02.19v.19s.02.2.02.2v.85s-.01.2-.01.2v.08s0,.04,0,.04v.07s.02.03.02.03v.04s.03.03.03.03l.02.03.03.02.02.02.03.03.03.02.03.02.03.02h.04s.04.02.04.02h.04s.04,0,.04,0h.04s.04-.01.04-.01h.03s.04-.02.04-.02l.03-.02.03-.02.02-.02.02-.02.02-.03.02-.03.02-.03.02-.03v-.04s.02-.04.02-.04v-.03s0-.09,0-.09v-.23s.02-.33.02-.33v-.63s-.02-.22-.02-.22l-.02-.22-.02-.22-.03-.21-.04-.19-.02-.09-.03-.09-.03-.08-.03-.08h0s-.06-.12-.06-.12l-.07-.11-.08-.11-.09-.1-.09-.1-.1-.1-.1-.08-.11-.09-.2-.16-.19-.13-.17-.11-.14-.08h0s-.03-.01-.03-.01l-.02-.02-.02-.02-.03-.02.06-.1.06-.09.06-.09.06-.07.07-.07.06-.07.07-.05.06-.05.13-.08.12-.07.11-.05.09-.03.1-.04.1-.04.04-.02.03-.02.03-.02.02-.03.02-.03.02-.03v-.04s.02-.04.02-.04v-.1s-.02-.05-.02-.05l-.02-.06-.02-.04v-.03s-.04-.03-.04-.03l-.02-.03-.03-.02-.03-.02-.03-.02-.03-.02h-.03s-.03-.02-.03-.02h-.04s-.03-.01-.03-.01h-.11s-.04.02-.04.02h-.04s-.05.04-.05.04l-.04.03-.03.03h-.01l-.17.12-.17.13-.16.12-.15.14-.07.07-.08.08-.07.07-.07.09-.07.08-.06.1-.06.09-.06.1-.05.1-.05.11-.05.12-.04.13-.04.14-.03.14-.03.16-.03.16-.02.17-.02.18v.19s-.02.2-.02.2v.22s0,.22,0,.22v.24s.02.25.02.25l.12.52.12.5.13.47.13.44.12.43.12.39.12.36.12.35.1.31.11.29.09.25.09.23.07.2.07.17.06.14.04.11h.01s.01.06.01.06l.02.05.03.05.04.03.04.04.03.02.04.03.03.02.04.02h.03s.04.02.04.02h.07l-.27.19-.38.25-.39.22-.4.2-.41.19-.42.17-.43.15-.44.12-.45.1-.46.08-.46.06-.47.04h-.48s-.48,0-.48,0l-.47-.04-.47-.06-.45-.08-.45-.1-.44-.12-.43-.15-.42-.17-.42-.19-.4-.2-.39-.22-.38-.25-.37-.26-.35-.27-.34-.3-.32-.31-.31-.32-.29-.34-.28-.35-.26-.36-.24-.38-.23-.39-.21-.4-.18-.41-.17-.42-.15-.43-.13-.44-.1-.45-.09-.45-.06-.47-.04-.47v-.48s-.01-15.76-.01-15.76ZM80.4,30.82v.57s-.06.56-.06.56l-.07.55-.09.54-.12.53-.16.52-.17.51-.2.5-.22.49-.24.47-.27.46-.29.45-.31.43-.33.41-.34.4-.36.39-.38.36-.4.34-.42.33-.43.31-.44.28-.47.27-.47.24-.49.22-.5.2-.52.17-.52.15-.53.12-.54.1-.55.07-.56.04-.56.02-.57-.02-.55-.04-.55-.07-.54-.1-.53-.12-.52-.15-.51-.17-.5-.2-.49-.22-.48-.24-.46-.27-.45-.28-.43-.31-.41-.33-.4-.34-.38-.36-.37-.39-.34-.4-.33-.41-.31-.43-.29-.45-.27-.46-.24-.47-.22-.49-.2-.5-.17-.51-.15-.52-.12-.53-.1-.54-.07-.55-.04-.56-.02-.57v-15.9h.86v16.24s.06.51.06.51l.06.51.09.5.11.49.14.48.16.48.18.46.2.45.22.44.25.43.27.41.28.4.3.39.32.37.33.35.35.34.37.32.38.3.4.28.42.26.42.25.44.22.45.21.46.18.47.16.48.13.49.12.5.09.51.07.51.04h.53s.52,0,.52,0l.51-.04.51-.07.5-.09.49-.12.48-.13.48-.16.46-.18.45-.21.44-.22.43-.25.41-.26.39-.28.38-.3.37-.32.35-.34.34-.35.31-.37.31-.39.28-.4.26-.41.25-.43.22-.44.21-.45.18-.46.16-.48.14-.48.12-.49.08-.5.07-.51.03-.51v-.52s.01-15.72.01-15.72h.86v15.9Z"/>
      <polygon class="cls-1" points="62.97 23.26 62.98 23.5 62.99 23.6 62.99 23.63 63 23.67 63.01 23.71 63.02 23.74 63.05 23.78 63.06 23.8 63.09 23.83 63.11 23.86 63.14 23.88 63.17 23.9 63.2 23.92 63.23 23.93 63.27 23.94 63.31 23.95 63.34 23.95 63.38 23.95 63.42 23.95 63.46 23.94 63.49 23.93 63.53 23.91 63.56 23.89 63.59 23.87 63.61 23.85 63.64 23.82 63.66 23.8 63.68 23.77 63.7 23.74 63.71 23.7 63.73 23.67 63.73 23.63 63.74 23.6 63.74 23.55 63.73 23.47 63.72 23.25 63.7 22.92 63.69 22.54 63.69 22.14 63.7 21.76 63.7 21.6 63.72 21.44 63.74 21.32 63.76 21.23 63.79 21.15 63.8 21.07 63.82 21 63.84 20.93 63.86 20.83 63.89 20.74 63.9 20.7 63.93 20.66 63.96 20.62 63.99 20.58 64.03 20.54 64.08 20.51 64.14 20.48 64.21 20.45 64.29 20.42 64.38 20.41 64.48 20.39 64.6 20.37 64.6 20.37 64.7 20.36 64.81 20.36 64.95 20.35 65.09 20.34 65.21 20.33 65.33 20.33 65.45 20.32 65.56 20.32 65.56 20.58 65.56 20.83 65.56 21.07 65.56 21.28 65.55 21.46 65.55 21.61 65.54 21.72 65.53 21.77 63.02 27.47 63.01 27.5 63 27.54 62.99 27.58 62.99 27.62 62.99 27.65 63 27.69 63 27.72 63.01 27.76 63.02 27.79 63.05 27.82 63.06 27.85 63.09 27.88 63.11 27.9 63.14 27.93 63.17 27.95 63.21 27.96 63.24 27.97 63.28 27.99 63.32 27.99 63.35 27.99 63.39 27.99 63.43 27.99 63.46 27.98 63.49 27.97 63.53 27.96 63.56 27.94 63.59 27.91 63.61 27.9 63.64 27.86 63.66 27.84 63.69 27.81 63.7 27.77 65.95 22.66 66.08 22.92 66.21 23.19 66.33 23.45 66.45 23.72 66.57 23.98 66.69 24.25 66.8 24.52 66.92 24.78 67.07 25.15 67.22 25.52 67.37 25.88 67.52 26.25 67.66 26.61 67.8 26.97 67.94 27.34 68.07 27.7 68.09 27.74 68.11 27.77 68.13 27.8 68.15 27.83 68.18 27.86 68.21 27.88 68.24 27.9 68.27 27.91 68.3 27.93 68.34 27.94 68.37 27.95 68.41 27.95 68.44 27.95 68.48 27.95 68.52 27.94 68.55 27.93 68.59 27.91 68.62 27.89 68.65 27.87 68.68 27.84 68.7 27.82 68.73 27.79 68.75 27.76 68.76 27.73 68.78 27.7 68.79 27.67 68.79 27.63 68.8 27.59 68.8 27.56 68.79 27.52 68.79 27.48 68.77 27.44 68.63 27.08 68.49 26.7 68.34 26.33 68.2 25.96 68.06 25.59 67.91 25.22 67.76 24.85 67.6 24.49 67.45 24.13 67.29 23.77 67.13 23.4 66.96 23.05 66.79 22.69 66.62 22.33 66.45 21.97 66.27 21.62 66.27 21.49 66.28 21.34 66.29 21.18 66.29 21.02 66.29 20.84 66.3 20.67 66.3 20.49 66.3 20.31 66.54 20.31 66.76 20.31 66.97 20.32 67.15 20.33 67.32 20.35 67.46 20.36 67.56 20.37 67.63 20.4 67.66 20.41 67.7 20.43 67.74 20.46 67.78 20.5 67.82 20.54 67.85 20.58 67.88 20.62 67.91 20.68 67.94 20.73 67.97 20.8 67.99 20.87 68.02 20.94 68.04 21.02 68.06 21.1 68.07 21.2 68.08 21.3 68.09 21.41 68.1 21.52 68.1 21.64 68.1 21.78 68.08 22.2 68.08 22.57 68.09 22.89 68.1 23.15 68.12 23.35 68.13 23.5 68.14 23.6 68.15 23.62 68.15 23.66 68.16 23.7 68.18 23.73 68.19 23.77 68.22 23.8 68.23 23.82 68.26 23.85 68.29 23.87 68.32 23.89 68.35 23.91 68.38 23.92 68.42 23.94 68.45 23.94 68.49 23.95 68.53 23.95 68.57 23.95 68.6 23.94 68.64 23.93 68.67 23.91 68.7 23.9 68.74 23.87 68.76 23.86 68.79 23.83 68.81 23.8 68.84 23.77 68.85 23.74 68.86 23.71 68.88 23.67 68.88 23.64 68.88 23.6 68.89 23.56 68.88 23.53 68.88 23.5 68.87 23.41 68.86 23.28 68.85 23.09 68.84 22.85 68.83 22.56 68.84 22.21 68.84 21.8 68.85 21.62 68.84 21.45 68.84 21.3 68.81 21.15 68.8 21.01 68.77 20.88 68.74 20.75 68.7 20.64 68.67 20.53 68.62 20.43 68.58 20.34 68.53 20.25 68.48 20.17 68.43 20.11 68.37 20.04 68.32 19.97 68.27 19.93 68.22 19.89 68.16 19.84 68.11 19.81 68.06 19.78 68.01 19.75 67.96 19.73 67.91 19.7 67.81 19.67 67.67 19.65 67.5 19.62 67.3 19.6 67.08 19.59 66.84 19.58 66.57 19.57 66.3 19.56 66.3 19.37 66.29 19.19 66.29 19.03 66.29 18.89 66.29 18.77 66.29 18.69 66.29 18.64 66.29 18.61 66.29 18.58 66.27 18.54 66.27 18.5 66.26 18.47 66.24 18.44 66.22 18.41 66.2 18.38 66.17 18.35 66.15 18.33 66.11 18.31 66.08 18.29 66.05 18.28 66.02 18.26 65.99 18.26 65.95 18.25 65.91 18.25 65.87 18.26 65.83 18.26 65.8 18.27 65.76 18.28 65.73 18.3 65.7 18.32 65.67 18.34 65.65 18.37 65.62 18.39 65.6 18.42 65.59 18.45 65.56 18.49 65.55 18.52 65.55 18.55 65.54 18.6 65.54 18.63 65.54 18.65 65.54 18.71 65.55 18.8 65.55 18.91 65.55 19.04 65.55 19.2 65.55 19.38 65.56 19.58 65.42 19.58 65.29 19.58 65.17 19.59 65.05 19.59 64.93 19.6 64.81 19.61 64.67 19.62 64.53 19.63 64.53 19.63 64.52 19.63 64.31 19.66 64.13 19.69 64.04 19.72 63.96 19.74 63.89 19.76 63.82 19.78 63.75 19.81 63.69 19.84 63.63 19.87 63.58 19.91 63.53 19.94 63.49 19.97 63.44 20.01 63.41 20.05 63.35 20.12 63.29 20.21 63.25 20.3 63.21 20.39 63.18 20.48 63.15 20.57 63.13 20.67 63.11 20.77 63.09 20.83 63.08 20.88 63.07 20.94 63.05 20.99 63.02 21.11 63 21.26 62.98 21.44 62.96 21.63 62.96 21.84 62.95 22.06 62.95 22.28 62.95 22.49 62.96 22.92 62.97 23.26"/>
      <path class="cls-1" d="M68.84,28.36l-.04.02-.04.02-.03.02-.03.02-.03.02-.02.02-.03.02-.02.03-.04.07-.03.08-.02.09-.02.1-.07.05-.07.04-.07.03-.08.04-.18.07-.19.06h-.05s-.06.02-.06.02h-.05s-.06.04-.06.04l-.06.03-.06.04-.06.04-.06.05-.05.04-.03.04-.02.03v.05s0,.02,0,.02h.01s0,.02,0,.02h.02s.03.01.03.01h.02s.03,0,.03,0h.04s.17-.03.17-.03l.17-.02.16-.02.15-.02.14-.03.14-.03.12-.03.12-.04.02.04.02.05v.05s.01.06.01.06l.02.08v.07s.02.06.02.06v.05l-.03.02-.05.03-.07.04-.09.04-.07.06-.07.04-.06.03-.05.03-.06.04-.16.06-.13.05-.1.06-.07.04v-.04s.01-.04.01-.04v-.08s-.03-.04-.03-.04l-.02-.03-.03-.04-.04-.03-.05-.04-.05-.04-.15-.14-.14-.12-.14-.11-.13-.1-.12-.1-.12-.09-.11-.08-.11-.07h.05s.02-.01.02-.01h.01s.01-.02.01-.02v-.02s.01-.01.01-.01v-.02l.12-.09.1-.09.1-.09.07-.08.07-.08.05-.07.03-.07.02-.07v-.03s-.02-.04-.02-.04v-.02s-.02-.03-.02-.03l-.02-.02-.02-.02-.02-.02h-.02s-.03-.02-.03-.02h-.03s-.03,0-.03,0h-.1s-.09.04-.09.04l-.06.05-.13.12-.2.19-.27.27-.06-.02-.05-.04-.05-.05-.05-.05-.09-.04-.07-.04-.05-.02-.04-.02-.07-.03-.11-.06-.14-.09-.18-.12-.05-.02-.04-.02-.03-.02-.03-.02-.04.05-.03.06-.03.05-.02.05v.05s-.03.05-.03.05v.14s.03.04.03.04l.02.04.03.04.03.04.04.03.05.04.06.04.1.04.15.06.15.06.13.07.13.06-.07.09-.08.08-.07.07-.06.06-.07.06-.06.04-.06.04-.05.02-.04.04-.04.04-.05.05-.05.06-.1.14-.13.17-.04.03-.03.02-.02.03v.02s-.03.06-.03.06v.06s0,.02,0,.02v.02s.01.02.01.02v.02s.04.01.04.01h.02s.02,0,.02,0h.02s.03-.01.03-.01h.03s.02-.03.02-.03l.03-.02.09-.06.1-.08.12-.1.14-.11.11.07.12.09.14.1.15.12-.17.18-.15.17-.14.16-.12.14-.1.12-.09.1-.06.09-.05.07-.02.03-.02.02v.02s-.01.02-.01.02v.02s.01.02.01.02h.02s.02.02.02.02l.02.02h.01s.02.02.02.02h.08s.03-.02.03-.02l.04-.02.07-.04.08-.05.07-.05.08-.07.09-.08.09-.09.1-.1.1-.11.05-.04.05-.05.07-.07.07-.06.06-.05.05-.02.09.08.11.09.12.12.14.13.17.14.14.13.12.1.09.1.04.03.04.02.04.02h.04s.04.01.04.01h.04s.04-.02.04-.02l.04-.02.02-.03v-.03s.02-.03.02-.03v-.12s-.02-.04-.02-.04l-.02-.04-.04-.05-.06-.07-.09-.1-.11-.11-.14-.14-.15-.15-.18-.17-.21-.19.12-.11.12-.1.11-.09.11-.09.05.02.05.02.05.04.05.04.07.06.06.05.04.04.04.02.03.02.02.02h.03s.02.01.02.01h.02s.02,0,.02,0h.02s.03-.01.03-.01v.06s0,.05,0,.05v.02s.01.02.01.02v.02s.03.01.03.01h.02s.02.02.02.02h.02s.02.01.02.01h.13s.08-.01.08-.01h.09s.1-.03.1-.03l.11-.02.12-.04.13-.04.14-.05.15-.06v.17l-.02.13-.02.12-.03.09-.03.08-.02.03v.02s-.04.02-.04.02l-.02.02-.02.02h-.02s-.03.01-.03.01h-.02s-.11.03-.11.03l-.1.02-.11.03-.1.04-.09.04-.09.04-.09.05-.08.05-.02.04-.02.04-.02.04v.03s-.02.03-.02.03v.06s.02.02.02.02l.02.02h.02s.03.03.03.03h.03s.03.02.03.02h.04s.04.01.04.01h.05l.16-.02.15-.03.15-.04.13-.04.12-.05.11-.05.1-.06.08-.06.04-.04.03-.03.04-.04.03-.05.02-.03.03-.04.02-.05.02-.04.02-.05v-.04s.02-.06.02-.06v-.05s.01-.1.01-.1v-.12s0-.25,0-.25v-1.45l-.03-.14-.03-.12-.04-.1-.04-.09-.03-.04-.02-.04-.03-.02-.02-.02-.02-.02h-.03s-.03-.02-.03-.02l-.03-.02ZM66.46,29.96l-.1.07-.11.09-.12.1-.13-.1-.13-.09-.13-.07-.12-.07.06-.05.09-.08.09-.06.07-.06.05-.05.04-.05.12.07.13.08.13.09.12.1-.08.07Z"/>
      <path class="cls-1" d="M68.04,35.16l-.02-.03-.02-.02h-.03s-.02-.02-.02-.02h-.04s-.04-.01-.04-.01h-.03s-.03.03-.03.03l-.03.02-.03.04-.03.04-.02.05-.06.09-.06.08-.05.08-.07.08-.07.07-.07.08-.07.06-.08.06-.08.06-.09.05-.09.05-.09.05-.1.04-.1.04-.11.03-.1.02v-.07s.01-.15.01-.15v-.2s-.01-.22-.01-.22v-.23s-.02-.22-.02-.22v-.03s-.02,0-.02,0v-.27.12s.02.15.02.15h.1s.11-.04.11-.04l.11-.03.1-.03.09-.05.09-.05.08-.06.07-.07.06-.07.05-.08.05-.09.04-.09.03-.1.03-.11v-.12s.02-.12.02-.12v-.09s-.02-.08-.02-.08v-.04s-.03-.04-.03-.04l-.02-.04-.03-.03-.02-.04-.02-.03-.03-.03-.03-.03-.04-.03-.03-.02-.04-.03-.05-.02-.1-.04-.1-.04-.11-.03-.1-.02-.11-.02-.12-.02h-.12s-.12,0-.12,0h-.26s-.13.02-.13.02l-.14.02-.14.02-.15.03-.15.04-.15.04h-.04s-.04.02-.04.02l-.03.02-.03.02-.03.02-.02.03-.03.03-.02.03-.02.04-.02.04v.05s-.02.05-.02.05v.05s-.01.06-.01.06v.23s.03.1.03.1l.02.1.04.09.05.09.05.08.06.08.07.08.07.07.09.06.09.06.1.05.11.04.11.04.12.04.13.03v.23s.01.15.01.15v.16s.01.15.01.15v.15s.01.13.01.13v.1s-.11-.04-.11-.04l-.1-.04-.11-.05-.1-.05-.11-.06-.11-.06-.11-.07-.1-.08-.11-.08-.1-.09-.11-.09-.1-.1-.11-.1-.11-.1-.1-.11-.11-.11-.02-.03-.02-.02-.02-.02h-.02s-.02,0-.02,0h-.03s-.01.03-.01.03l-.02.02v.02s-.02.03-.02.03v.04s-.01.04-.01.04v.09s.01.05.01.05l.02.12.04.11.05.11.06.1.07.11.09.1.1.09.11.1.12.09.13.08.15.09.15.08.17.08.18.08.19.07.21.07-.03.21v.12s-.01.03-.01.03v.02s0,.01,0,.01h-.03s-.04,0-.04,0h-.03s-.04.04-.04.04l-.06.04-.06.06-.13.13-.13.16-.14.16-.15.19-.02.08v.07s0,.03,0,.03v.05s.02.02.02.02l.03.02.05.02.07.02h.07s.07.01.07.01h.12s.05-.02.05-.02l.3-.18.22-.13.09-.06.07-.05.05-.05.05-.05.04-.06.03-.07.02-.08.02-.09.04-.25.04-.35.17-.03.16-.05.16-.06.15-.05.13-.07.13-.07.12-.08.11-.09.1-.09.08-.1.08-.1.07-.11.05-.11.05-.13.04-.13.03-.14v-.05s0-.05,0-.05v-.04s-.02-.04-.02-.04ZM66.34,34.58h-.06s-.09.01-.09.01h-.17s-.07-.01-.07-.01h-.08s-.07-.02-.07-.02l-.07-.02-.06-.02-.06-.02-.05-.03-.05-.03-.05-.03-.05-.05-.03-.04-.04-.05-.03-.05v-.08s0-.07,0-.07v-.06s.04-.04.04-.04l.03-.05.04-.04.05-.02.06-.02.14-.04.14-.03.14-.02h.13s.13-.01.13-.01h.14s.13.03.13.03l.13.03.05.02.06.02.04.04.04.04.03.05.02.06v.08s.01.08.01.08v.05s-.02.05-.02.05l-.02.04-.02.04-.02.04-.03.03-.02.03-.04.03-.04.02-.04.02-.04.02-.05.02h-.05s-.05.03-.05.03h-.06Z"/>
      <polygon class="cls-1" points="68.74 35.08 68.72 34.99 68.73 35.05 68.74 35.08"/>
      <path class="cls-1" d="M69.4,0c-15.63,0-28.35,12.72-28.35,28.35s12.72,28.35,28.35,28.35,28.35-12.72,28.35-28.35S85.03,0,69.4,0ZM69.4,55.58c-15.02,0-27.23-12.22-27.23-27.23S54.39,1.12,69.4,1.12s27.23,12.22,27.23,27.23-12.22,27.23-27.23,27.23Z"/>
    </g>
    <g>
      <path class="cls-2" d="M46.86,89.97c.28.23.51.46.78.64.14.1.34.14.51.15.34.01.69-.01,1.03-.04.31-.02.53-.24.57-.54.07-.58-.15-1.1-.4-1.61-.03-.06-.18-.11-.26-.1-.49.07-.95-.03-1.43-.08-.17-.02-.23-.07-.25-.25-.12-1.13-.25-2.27-.4-3.4-.02-.14-.09-.28-.16-.4-.26-.42-.54-.82-.62-1.32-.08-.46.1-.69.55-.74.44-.05.83.09,1.22.26.29.12.57.24.89.23.38,0,.68-.2.81-.57.13-.36.18-.74.12-1.11-.03-.2-.16-.4-.28-.58-.51-.75-1.04-1.49-1.56-2.24-.21-.31-.41-.63-.58-.96-.27-.51-.28-1.05-.16-1.6.07-.32.35-.54.68-.56.48-.02.93.11,1.33.34.49.28.97.59,1.45.9.65.43,1.27.88,1.92,1.3.26.17.53.3.76.52.51.5.78,1.1.74,1.81-.06,1.25-.13,2.51-.18,3.76-.03.73-.05,1.46-.05,2.19,0,.17.03.34.08.5.28.92.77.91,1.37.65.48-.21.9-.54,1.28-.9.08-.08.16-.16.24-.23.57-.48.79-1.16.98-1.84.1-.36.18-.73.25-1.1.03-.15.03-.32.02-.48-.01-.28-.04-.57-.06-.85-.07-1.51-.14-3.01-.22-4.52-.04-.91-.08-1.82-.14-2.74-.01-.2-.08-.4-.14-.59-.3-.87-.52-1.77-.67-2.68-.03-.18-.06-.35-.09-.52.57-.39,1.13-.48,1.78-.29.86.27,1.56.78,2.22,1.35.77.66,1.45,1.42,2.07,2.22.37.47.78.89,1.19,1.32.39.41.61.9.56,1.49-.03.4-.21.74-.45,1.05-.29.38-.64.71-1.05.97-.07.04-.12.13-.16.21-.19.4-.16.83-.1,1.25.04.27.31.47.64.46.28-.01.56-.07.83-.14.18-.04.33-.15.5-.21.19-.07.27-.22.31-.41.07-.35.14-.69.23-1.03.05-.17.15-.34.26-.48.17-.23.51-.24.71-.03.27.27.53.56.8.84.25.26.5.53.76.79.45.45.73,1,.88,1.6.15.61-.1,1.22-.76,1.56-.66.33-1.35.47-2.08.47-.29,0-.57,0-.86,0-.89.02-1.77.1-2.63.38-.38.13-.73.3-1.06.53-.32.23-.6.48-.79.83-.16.29-.26.6-.3.93-.03.27-.05.54-.08.82-.04.33-.06.66.06.98.08.22.22.35.45.34.24-.01.49-.03.7-.13.39-.19.74-.44,1.1-.67.13-.08.18-.19.2-.34.05-.53.36-.87.82-1.08.67-.31,1.37-.29,2.08-.25.15,0,.27.08.35.23.34.62.72,1.22,1.05,1.85.15.29.28.61.31.93.07.72-.16,1.02-.84,1.27-.56.21-1.16.23-1.76.15-.29-.04-.56-.02-.84.07-.95.31-1.88.69-2.78,1.1-1.03.47-2.06.96-3.09,1.44-.42.2-.88-.06-.93-.52-.05-.43.01-.85.16-1.25.14-.37.26-.76.46-1.1.32-.54-.09-1.18-.55-1.37-.43-.18-.86-.24-1.32-.21-.3.03-.61-.02-.9.15-.45.27-.8.61-1.02,1.1-.33.76-.34,1.56-.22,2.36.12.79.02,1.55-.17,2.3-.1.38-.24.77-.45,1.1-.5.8-1.26,1.17-2.21,1.08-.28-.03-.55-.12-.83-.18-.41-.09-.68-.35-.92-.66-.69-.9-1.28-1.86-1.84-2.84-.08-.13-.19-.25-.3-.36-.25-.26-.54-.5-.66-.86-.16-.48-.11-.92.17-1.33.11-.17.25-.32.36-.45Z"/>
      <path class="cls-2" d="M80.58,82.04c.73.28,1.4.54,2.07.77.26.09.48.22.69.38.56.42,1.19.63,1.9.65.99.02,1.88-.24,2.75-.69.81-.41,1.52-.96,2.22-1.52.13-.1.25-.23.36-.36.11-.12.08-.25.04-.39-.29-.92-.57-1.83-.85-2.75-.25-.83-.5-1.66-.76-2.49-.03-.11-.1-.23-.18-.31-.39-.41-.59-.9-.7-1.45-.22-1.05-.17-2.11-.12-3.17.02-.59.12-1.18.19-1.77.01-.1.05-.19.09-.3.54.03,1.06.08,1.57.21.64.16,1.28.33,1.87.64.52.27,1.01.59,1.45,1.01.93.89,1.44,1.99,1.64,3.23.08.51.18,1.05.03,1.57-.08.28-.22.55-.31.83-.26.78-.47,1.57-.43,2.41.01.38.1.72.29,1.04.05.09.16.18.26.19.62.09,1.12-.01,1.53-.65.33-.52.42-1.1.47-1.7,0-.11.02-.22.03-.37.17,0,.33,0,.48.03.61.08,1.22.16,1.83.24.41.06.82-.05,1.22-.11.52-.08,1.03-.05,1.53.06.24.06.47.23.68.38.12.08.18.22.18.39,0,.59-.1,1.14-.53,1.58-.34.35-.75.59-1.22.71-.52.14-1.04.26-1.58.22-.45-.04-.87.07-1.27.22-.85.33-1.71.65-2.53,1.03-.73.34-1.45.72-1.99,1.34-.14.16-.27.34-.34.54-.41,1.08-.77,2.17-1.2,3.24-.82,2.06-1.79,4.04-3.05,5.87-.4.57-.68,1.21-1.08,1.78-.31.43-.66.82-1.12,1.09-.54.31-1.12.39-1.75.28-.9-.17-1.6-.67-2.29-1.24-.42-.35-.78-.76-1.15-1.17-.21-.24-.47-.42-.71-.64-.36-.33-.66-.69-.79-1.17-.08-.31,0-.59.16-.85.21-.31.48-.54.81-.71.14-.08.28-.15.42-.23.25-.13.28-.12.46.09.34.39.67.8,1.04,1.17.34.35.75.63,1.21.81.44.18.89.21,1.32-.01.17-.08.31-.23.45-.36.28-.26.55-.54.83-.8,1.02-.93,1.82-2.01,2.33-3.3.3-.75.46-1.53.48-2.33,0-.09-.02-.17-.03-.3-.1.06-.17.08-.22.13-.44.36-.85.76-1.32,1.08-.5.34-1.06.55-1.68.63-.96.13-1.86-.05-2.71-.49-.54-.28-1.03-.62-1.49-1.02-.25-.22-.58-.34-.89-.5-.35-.18-.66-.41-.93-.69-.24-.26-.37-.58-.32-.94.01-.1.04-.2.1-.28.18-.26.37-.52.57-.79Z"/>
      <path class="cls-2" d="M115.94,89.78c.35.08.67.14.97.22.92.26,1.86.36,2.81.29.69-.05,1.35-.19,1.9-.66.35-.3.78-.46,1.21-.62.83-.32,1.7-.49,2.57-.66.73-.14,1.49-.2,2.23-.3.2-.03.4-.07.6-.11.29-.07.42-.3.53-.54.19-.43.28-.89.28-1.36,0-.6-.01-1.19-.02-1.79,0-.04-.02-.08-.04-.13-.16,0-.19.12-.25.22-.3.54-.64,1.05-1.06,1.51-.33.37-.71.68-1.18.85-.64.22-1.23.09-1.77-.31-.09-.07-.17-.15-.26-.22-.23-.17-.3-.41-.24-.67.07-.33.16-.67.3-.98.46-1,1.11-1.89,1.78-2.75.18-.24.49-.27.76-.36.52-.18,1.05-.29,1.6-.34.74-.07,1.44,0,2.06.44.33.23.59.53.78.89.47.9.58,1.87.53,2.86-.03.61-.13,1.22-.2,1.83,0,.06-.01.11-.02.2.5.1.98.2,1.47.29.73.13,1.46.22,2.16.49.34.13.65.3.92.58.33.35.38.76.26,1.17-.1.37-.3.71-.58.99-.23-.05-.45-.1-.67-.15-.47-.11-.94-.09-1.42-.01-.98.16-1.79.62-2.52,1.27-.14.13-.28.27-.42.39-.13.11-.16.23-.09.39.28.68.23,1.39.15,2.1-.16,1.32-.5,2.6-.94,3.85-.29.81-.85,1.35-1.69,1.6-.6.18-1.21.28-1.82.22-.66-.07-1.32-.23-1.98-.37-.29-.06-.57-.16-.85-.25-.37-.12-.7-.26-.98-.56-.23-.25-.58-.39-.89-.56-.17-.09-.36-.14-.53-.23-.31-.15-.57-.38-.76-.67-.35-.5-.23-.99.18-1.38.24-.23.53-.39.8-.6.16.11.31.19.44.3.83.69,1.73,1.26,2.73,1.64.6.23,1.23.34,1.87.14.39-.12.66-.39.88-.72.11-.17.22-.35.36-.49.39-.38.51-.85.54-1.36.02-.47-.04-.94-.2-1.38-.18-.49-.38-.97-.59-1.45-.1-.23-.14-.2-.34-.05-.31.23-.62.46-.97.63-1.14.58-2.33,1.01-3.54,1.41-.51.17-1.02.33-1.53.47-.75.21-1.47.07-2.15-.28-.78-.41-1.41-.99-1.98-1.66-.44-.52-.8-1.08-1.11-1.68-.17-.33-.22-.7-.21-1.06,0-.17.09-.34.14-.52Z"/>
      <path class="cls-2" d="M132.62,66.77c.11-.08.22-.14.32-.22.64-.48,1.28-.96,2.07-1.16.95-.24,1.82-.05,2.56.58.28.24.52.55.77.82.33.35.43.8.46,1.26.05.77-.02,1.51-.49,2.16-.26.37-.59.68-1,.87-.91.43-1.73,1-2.57,1.54-.68.44-1.37.85-2.05,1.28-.67.42-1.33.84-1.99,1.26-.58.36-1.16.72-1.74,1.08-.04.02-.08.04-.17.08.31.16.55.12.77.09.68-.09,1.35.02,2.02.02.81.01,1.62.06,2.42.17.89.12,1.78.27,2.61.63.26.11.54.17.81.26,1.12.36,1.47,1.44,1.31,2.27-.1.49-.25.96-.49,1.41-.07.14-.17.19-.31.22-.55.1-1.08.26-1.57.53-.47.27-.93.55-1.4.82-.28.16-.57.27-.91.19-.41-.1-.62-.41-.8-.74-.09-.17-.14-.36-.2-.52.18-.23.38-.42.52-.65.21-.37.17-.75.04-1.15-.21-.64-.64-.97-1.27-1.09-.76-.14-1.54-.2-2.31-.22-.29,0-.57-.06-.85-.05-.96.02-1.92.06-2.88.11-.26.01-.51.1-.76.17-.88.27-1.71.63-2.47,1.15-.45.31-.86.68-1.17,1.13-.12.17-.15.4-.19.61-.16.79-.31,1.59-.45,2.38-.1.55-.39,1.02-.69,1.47-.21.32-.5.57-.83.75-.42.23-.88.22-1.33.12-.6-.12-1.09-.45-1.56-.82-.12-.1-.25-.19-.37-.3-.19-.18-.27-.41-.33-.66-.23-.96-.49-1.92-.71-2.89-.17-.76-.23-1.54.02-2.3.23-.69.69-1.16,1.39-1.38.4-.13.8-.17,1.21-.18.94-.01,1.86-.11,2.78-.32.4-.09.81-.11,1.21-.2.72-.15,1.44-.31,2.16-.48.31-.07.6-.17.88-.36.81-.55,1.64-1.07,2.46-1.61,1.15-.75,2.3-1.51,3.45-2.26.86-.56,1.72-1.11,2.57-1.67.39-.26.77-.53,1.06-.9.34-.43.31-.94-.06-1.33-.19-.2-.42-.32-.71-.38-.37-.09-.64-.35-.82-.68-.15-.27-.25-.56-.42-.95Z"/>
      <path class="cls-2" d="M.02,88.64c.18.09.34.17.5.25.48.23.97.39,1.51.37.12,0,.25-.04.37-.07.18-.06.26-.17.31-.36.21-.89.28-1.79.24-2.69-.07-1.66-.53-3.22-1.49-4.59-.31-.45-.68-.85-1.05-1.26-.15-.16-.26-.32-.31-.55-.1-.39-.1-.79-.04-1.18.06-.4.39-.69.8-.72.27-.02.54-.07.81-.07.96-.01,1.89.17,2.73.64.51.29.97.69,1.3,1.19.17.27.34.54.52.82.49.02.96,0,1.37-.34.06-.05.14-.1.17-.17.25-.48.73-.71,1.12-1.04.15-.14.32-.25.48-.38.31-.24.62-.24.93-.01.11.08.16.18.18.31.04.29-.04.55-.17.79-.22.4-.45.79-.69,1.18-.51.81-.96,1.65-1.37,2.52-.46.98-.83,1.98-1.07,3.02-.13.53-.19,1.08-.26,1.62-.05.36-.07.73-.07,1.09,0,.33.04.66.1.98.25,1.37.43,2.75.33,4.15-.05.69-.2,1.35-.53,1.97-.22.42-.58.66-.97.88-.57.32-1.17.61-1.74.95-.38.22-.74.18-1.1.02-.29-.13-.52-.33-.7-.59-.35-.49-.53-1.05-.67-1.63-.21-.86-.09-1.7.05-2.54.04-.27.08-.54.12-.81.02-.16-.01-.29-.14-.43-.55-.6-1.01-1.26-1.35-2-.18-.39-.29-.81-.22-1.3Z"/>
      <path class="cls-2" d="M28.5,73.97c-.34-.19-.67-.15-.98-.12-.3.03-.61.11-.9.2-.82.26-1.61.6-2.39.98-1.34.65-2.62,1.41-3.9,2.18-.7.42-1.38.89-2.07,1.33-.3.19-.59.38-.9.54-.44.23-.93.28-1.41.32-.48.05-.96-.03-1.42-.17-.5-.15-.96-.41-1.37-.74-.96-.79-1.51-1.83-1.94-2.96-.03-.07-.05-.15-.07-.23-.09-.34,0-.6.32-.74.31-.14.64-.24.97-.3.81-.15,1.64-.1,2.46-.07.61.02,1.22.13,1.83.17.25.02.5,0,.74-.07,1.26-.31,2.52-.63,3.77-.95.63-.16,1.25-.33,1.88-.49,1.56-.4,3.13-.79,4.7-1.19,1.16-.29,2.31-.61,3.47-.88.66-.15,1.31-.37,2.01-.34.85.04,1.55.55,1.77,1.35.06.21.16.34.33.44.37.22.75.43,1.12.65.6.35,1.05.84,1.3,1.49.2.51.07.89-.4,1.16-.28.16-.6.28-.91.37-.57.16-1.15.27-1.75.28-.95.02-1.89.04-2.84.05-.25,0-.5-.03-.75-.06-.2-.02-.38.04-.56.12-.33.15-.67.3-1.01.39-.26.07-.54.09-.8-.03-.38-.18-.51-.5-.53-.89-.02-.49-.02-.98.16-1.45.04-.1.05-.22.08-.34Z"/>
      <path class="cls-2" d="M28.16,78.29c-.06.28-.12.55-.17.83-.1.51-.22,1.02-.29,1.54-.1.73-.18,1.47-.25,2.2-.05.5-.09,1-.09,1.5,0,1.07.03,2.15.06,3.22.02,1.06.17,2.12.38,3.16.16.84.4,1.66.62,2.48.1.36.26.71.36,1.07.05.18.06.39.03.57-.25,1.28-.59,2.53-1.16,3.71-.24.49-.49.97-.91,1.34-.21.19-.45.32-.71.39-.35.11-.67-.03-.98-.2-.08-.04-.15-.1-.23-.15-.24-.14-.34-.34-.37-.64-.13-1.39-.85-2.38-2.12-2.95-.73-.33-1.51-.49-2.32-.5-.58,0-1.16-.05-1.74-.07-.26,0-.48-.11-.7-.25-.18-.12-.24-.29-.21-.5.07-.46.43-.8.9-.82.77-.05,1.55-.08,2.33-.14,1.25-.08,2.5-.18,3.75-.26.18-.01.28-.09.36-.26.22-.46.34-.95.35-1.45.01-.55.05-1.1-.01-1.64-.08-.74,1.31-13.32,1.64-13.37.33-.05.67-.02.93.13.27.16.51.43.51.8v.24s.03,0,.04,0Z"/>
      <path class="cls-2" d="M17.7,86.58c.47-.29.89-.54,1.3-.8.17-.11.27-.27.35-.45.11-.25.02-.42-.13-.59-.1-.11-.24-.2-.37-.29-.2-.15-.41-.14-.64-.05-.96.35-1.54,1.04-1.79,2-.09.36-.1.75-.1,1.12,0,.56-.34.87-.78,1.1-.44.23-.87.11-1.19-.22-.33-.34-.65-.71-.89-1.12-.23-.4-.52-.74-.82-1.08-.38-.44-.67-.94-.77-1.51-.09-.5.08-.98.39-1.41.63-.88,1.24-1.78,1.88-2.7.33-.03.68,0,1,.22.19.13.31.31.31.54,0,.19.09.31.22.43.41.36.82.68,1.37.79.47.09.86.03,1.18-.38.5-.62,1.04-1.21,1.55-1.82.54-.65,1.13-1.24,1.75-1.81.02-.02.03-.03.05-.05.47-.41.57-.38.78.19.37.96.75,1.91,1.12,2.87.06.16.1.33.1.5,0,.87-.03,1.73-.18,2.59-.06.37-.11.74-.16,1.12-.1.66-.3,1.31-.51,1.94-.26.76-.62,1.44-1.14,2.05-.36.42-.79.75-1.31.96-.4.17-.76.03-1.11-.14-.66-.33-1.14-.85-1.38-1.54-.17-.49-.28-1.01-.17-1.55.06-.32.06-.66.08-.91Z"/>
      <path class="cls-2" d="M119.88,62.93c.03.49-.24,1.32-.23,1.28-.13.81-.18,1.63-.13,2.45.05.92.12,1.84.31,2.75.04.19.08.38.14.57.07.23.17.25.33.09.17-.17.33-.35.5-.52.44-.46.88-.92,1.35-1.4.06.09.12.16.15.23.06.12.09.27.18.37.27.32.27.66.13,1.02-.25.68-.5,1.37-.78,2.04-.19.45-.43.88-.66,1.31-.25.46-.6.82-1.05,1.1-.66.41-1.35.38-2.02.05-.34-.16-.89-.34-1.05-.72-.13-.3-.07-.71-.14-1.04-.08-.41-.19-.82-.19-1.24,0-1.28.5-2.78.86-3.99.42-1.44.74-3.88,1.74-5.05.27-.31.55.28.57.71Z"/>
      <path class="cls-2" d="M96.63,88.09c.59.08,1.22.16,1.85.26.36.06.71.14,1.07.23.74.18,1.33.62,1.88,1.12.35.32.63.7.79,1.15.24.69.16,1.37-.16,2.02-.52,1.05-1.29,1.86-2.34,2.4-.25.13-.51.24-.76.38-.31.16-.66.18-1,.18-.31,0-.77-.38-.89-.72-.2-.58-.24-1.18-.11-1.78.08-.37.09-.71,0-1.08-.08-.3-.22-.56-.43-.76-.31-.29-.63-.59-1.07-.68-.12-.02-.24-.05-.37-.07-.68-.1-.93-.4-.78-1.07.09-.39.28-.74.5-1.08.16-.24.41-.29.65-.34.38-.07.76-.1,1.2-.15Z"/>
      <path class="cls-2" d="M2.22,67.67c.55.01,1.02.22,1.49.43.69.31,1.36.63,2.05.93.78.34,1.56.68,2.35,1.01.29.12.53.31.74.54.36.38.4.82.27,1.31-.15.53-.45.98-.82,1.37-.47.49-.97.97-1.49,1.41-.37.31-.82.38-1.28.19-.26-.1-.42-.31-.58-.52-.03-.04-.05-.11-.05-.16.07-.51-.24-.86-.53-1.2-.79-.94-1.74-1.71-2.72-2.43-.03-.02-.05-.05-.08-.06-.51-.22-.65-.64-.6-1.15.03-.35.1-.7.16-1.05.03-.19.12-.32.3-.38.27-.09.54-.16.81-.24Z"/>
      <path class="cls-2" d="M131.56,68.85c.07.12.13.23.18.34.25.53.13,1.03-.13,1.5-.29.52-.7.93-1.15,1.3-.71.59-1.48,1.06-2.29,1.48-.37.19-.77.21-1.17.16-.34-.05-.6-.27-.8-.53-.37-.47-.57-1.01-.71-1.58-.25-1.06-.37-2.14-.28-3.23.05-.69.19-1.38.42-2.04.02-.06.05-.13.08-.19.08-.17.16-.36.37-.37.21,0,.31.18.4.34.3.53.46,1.11.63,1.69.08.27.12.55.21.82.06.18.16.36.27.51.14.19.35.27.6.28.57.02,1.1-.12,1.65-.24.57-.13,1.12-.31,1.74-.24Z"/>
    </g>
    <g>
      <path class="cls-1" d="M4.24,108.93h3.97v-2.1c0-.37-.03-.62-.08-.74-.04-.09-.13-.17-.26-.23-.18-.09-.37-.13-.57-.13h-.3v-.2h3.65v.2h-.31c-.2,0-.39.04-.57.13-.14.06-.23.14-.27.26-.05.12-.07.35-.07.71v4.72c0,.37.03.61.08.73.04.09.13.17.26.24.19.08.38.13.58.13h.31v.2h-3.65v-.2h.3c.34,0,.6-.09.76-.26.1-.11.16-.39.16-.83v-2.23h-3.97v2.23c0,.37.03.61.08.73.04.09.13.17.27.24.18.08.37.13.57.13h.31v.2H1.81v-.2h.31c.35,0,.61-.09.77-.26.1-.11.15-.39.15-.83v-4.72c0-.37-.03-.62-.08-.74-.04-.09-.13-.17-.26-.23-.19-.09-.38-.13-.58-.13h-.31v-.2h3.66v.2h-.31c-.2,0-.39.04-.57.13-.13.06-.22.14-.27.26s-.07.35-.07.71v2.1Z"/>
      <path class="cls-1" d="M14.57,105.94v2.89h1.87c.49,0,.82-.06.98-.19.22-.17.34-.46.37-.87h.24v2.55h-.24c-.06-.36-.12-.58-.18-.68-.07-.13-.2-.23-.37-.3-.17-.07-.44-.11-.8-.11h-1.87v2.41c0,.33.01.52.05.59.03.07.09.12.18.16.09.04.25.06.48.06h1.45c.48,0,.83-.03,1.05-.08.22-.06.43-.17.63-.34.26-.22.53-.56.8-1.01h.25l-.73,1.84h-6.58v-.2h.3c.2,0,.4-.04.58-.12.13-.06.22-.14.27-.26.05-.12.08-.35.08-.7v-4.76c0-.46-.06-.75-.16-.86-.15-.14-.4-.22-.76-.22h-.3v-.2h6.58l.09,1.61h-.24c-.09-.39-.19-.65-.29-.8-.11-.14-.27-.25-.47-.33-.17-.05-.47-.08-.89-.08h-2.34Z"/>
      <path class="cls-1" d="M26.67,109.12c.59.11,1.03.28,1.32.52.41.33.61.74.61,1.21,0,.37-.13.72-.4,1.05-.27.33-.64.58-1.1.73-.47.15-1.18.23-2.14.23h-4.04v-.2h.32c.36,0,.62-.1.78-.29.09-.13.14-.39.14-.8v-4.72c0-.46-.06-.74-.18-.86-.17-.16-.41-.24-.74-.24h-.32v-.2h3.69c.69,0,1.24.05,1.66.13.63.13,1.11.36,1.44.69.33.33.5.71.5,1.14,0,.37-.13.7-.39.98-.26.29-.64.5-1.15.64ZM23.36,108.83c.15.03.33.05.53.06.2.01.42.02.66.02.61,0,1.07-.06,1.38-.17.31-.11.55-.29.71-.52.16-.24.25-.49.25-.77,0-.42-.2-.79-.61-1.09-.41-.3-1-.46-1.78-.46-.42,0-.8.04-1.13.12v2.81ZM23.36,112.32c.48.1.96.15,1.44.15.76,0,1.34-.15,1.74-.44.4-.29.6-.66.6-1.09,0-.29-.09-.56-.27-.82-.18-.26-.48-.47-.88-.62-.41-.15-.91-.23-1.51-.23-.26,0-.48,0-.67.01-.19,0-.33.02-.44.04v2.99Z"/>
      <path class="cls-1" d="M32.97,105.94v2.89h1.87c.49,0,.82-.06.98-.19.22-.17.34-.46.37-.87h.23v2.55h-.23c-.06-.36-.12-.58-.18-.68-.07-.13-.19-.23-.37-.3-.17-.07-.44-.11-.8-.11h-1.87v2.41c0,.33.02.52.05.59.03.07.09.12.18.16.09.04.25.06.48.06h1.45c.48,0,.83-.03,1.05-.08.22-.06.43-.17.63-.34.26-.22.53-.56.8-1.01h.25l-.73,1.84h-6.58v-.2h.3c.2,0,.4-.04.58-.12.13-.06.22-.14.27-.26.05-.12.07-.35.07-.7v-4.76c0-.46-.06-.75-.16-.86-.15-.14-.4-.22-.76-.22h-.3v-.2h6.58l.09,1.61h-.24c-.09-.39-.19-.65-.29-.8-.11-.14-.26-.25-.47-.33-.17-.05-.47-.08-.89-.08h-2.34Z"/>
      <path class="cls-1" d="M43.09,112.65v.2h-3.66v-.2h.3c.35,0,.61-.09.77-.26.1-.11.15-.39.15-.83v-4.72c0-.37-.03-.62-.08-.74-.04-.09-.13-.17-.26-.23-.19-.09-.38-.13-.58-.13h-.3v-.2h3.66v.2h-.31c-.34,0-.6.09-.76.27-.1.11-.16.39-.16.83v4.72c0,.37.03.61.08.73.04.09.13.17.27.24.18.08.37.13.57.13h.31Z"/>
      <path class="cls-1" d="M58.88,105.74v-.2h3.03v.2h-.32c-.34,0-.6.12-.78.36-.09.11-.13.37-.13.78v2.97c0,.73-.08,1.3-.25,1.71-.17.4-.5.75-1,1.04-.5.29-1.17.44-2.03.44-.93,0-1.64-.14-2.13-.42-.48-.28-.83-.65-1.03-1.12-.14-.32-.2-.92-.2-1.8v-2.85c0-.45-.07-.75-.22-.89-.14-.14-.38-.21-.7-.21h-.32v-.2h3.69v.2h-.33c-.36,0-.61.1-.76.29-.1.13-.16.4-.16.81v3.18c0,.29.03.61.09.98.06.37.17.65.33.86.16.21.39.38.69.51.3.13.67.2,1.1.2.56,0,1.06-.1,1.5-.31.44-.21.74-.48.9-.8.16-.33.24-.87.24-1.65v-2.96c0-.46-.06-.75-.17-.86-.16-.16-.41-.24-.73-.24h-.33Z"/>
      <path class="cls-1" d="M62.84,105.54h2.32l5.22,5.49v-4.21c0-.45-.06-.73-.18-.85-.15-.15-.39-.23-.73-.23h-.3v-.2h2.97v.2h-.3c-.37,0-.62.09-.78.28-.09.12-.13.38-.13.79v6.16h-.23l-5.63-5.89v4.5c0,.45.06.73.17.84.16.15.4.23.74.23h.3v.2h-2.97v-.2h.29c.37,0,.63-.09.77-.28.09-.11.14-.37.14-.78v-5.08c-.25-.25-.43-.41-.56-.49-.13-.08-.32-.15-.57-.23-.12-.03-.31-.05-.55-.05v-.2Z"/>
      <path class="cls-1" d="M77.27,112.65v.2h-3.66v-.2h.31c.35,0,.6-.09.77-.26.1-.11.15-.39.15-.83v-4.72c0-.37-.03-.62-.08-.74-.04-.09-.13-.17-.26-.23-.19-.09-.38-.13-.58-.13h-.31v-.2h3.66v.2h-.32c-.34,0-.6.09-.76.27-.1.11-.16.39-.16.83v4.72c0,.37.03.61.08.73.04.09.13.17.27.24.18.08.37.13.57.13h.32Z"/>
      <path class="cls-1" d="M87.7,105.54v.2c-.3.05-.52.13-.68.25-.23.18-.42.45-.6.81l-2.98,6.23h-.23l-3.2-6.31c-.17-.33-.28-.53-.35-.6-.1-.11-.23-.2-.39-.26-.15-.06-.36-.1-.62-.12v-.2h3.49v.2c-.39.03-.65.09-.76.17-.12.08-.18.19-.18.32,0,.18.1.46.29.85l2.17,4.29,2.02-4.24c.2-.42.3-.71.3-.87,0-.1-.06-.2-.18-.3-.12-.1-.33-.16-.61-.2-.02,0-.06-.01-.11-.02v-.2h2.63Z"/>
      <path class="cls-1" d="M91.52,105.94v2.89h1.87c.49,0,.81-.06.98-.19.22-.17.34-.46.37-.87h.24v2.55h-.24c-.06-.36-.12-.58-.18-.68-.07-.13-.2-.23-.37-.3-.17-.07-.44-.11-.8-.11h-1.87v2.41c0,.33.02.52.05.59.03.07.09.12.18.16.09.04.25.06.48.06h1.45c.48,0,.83-.03,1.05-.08.22-.06.43-.17.63-.34.26-.22.53-.56.8-1.01h.25l-.74,1.84h-6.58v-.2h.3c.2,0,.4-.04.58-.12.13-.06.22-.14.27-.26.05-.12.07-.35.07-.7v-4.76c0-.46-.05-.75-.16-.86-.15-.14-.41-.22-.76-.22h-.3v-.2h6.58l.1,1.61h-.24c-.09-.39-.19-.65-.29-.8-.11-.14-.26-.25-.47-.33-.17-.05-.47-.08-.89-.08h-2.34Z"/>
      <path class="cls-1" d="M106.38,112.85h-2.28l-2.9-3.42c-.21,0-.39,0-.52,0-.05,0-.11,0-.17,0-.06,0-.13,0-.19,0v2.12c0,.46.06.75.17.86.16.16.4.23.72.23h.34v.2h-3.66v-.2h.32c.36,0,.62-.1.77-.3.09-.11.13-.38.13-.79v-4.72c0-.46-.06-.75-.17-.86-.17-.16-.41-.24-.73-.24h-.32v-.2h3.12c.91,0,1.58.06,2.01.17.43.11.79.32,1.09.63.3.31.45.67.45,1.09,0,.45-.17.84-.51,1.17-.34.33-.87.56-1.59.7l1.76,2.1c.41.48.76.8,1.04.96.29.16.67.26,1.13.3v.2ZM100.32,109.09c.08,0,.15,0,.21,0,.06,0,.11,0,.14,0,.81,0,1.43-.15,1.84-.46s.62-.69.62-1.15-.17-.83-.5-1.11c-.33-.29-.78-.43-1.33-.43-.24,0-.57.03-.98.1v3.04Z"/>
      <path class="cls-1" d="M113.14,105.37v2.53h-.24c-.07-.49-.21-.87-.4-1.16-.19-.29-.48-.51-.84-.68-.36-.17-.74-.25-1.12-.25-.43,0-.79.11-1.08.34-.29.23-.43.49-.43.78,0,.23.09.43.28.61.26.27.88.63,1.85,1.08.8.37,1.34.65,1.63.84.29.2.52.43.67.69.16.27.23.54.23.83,0,.55-.25,1.03-.75,1.43-.5.4-1.15.6-1.93.6-.25,0-.49-.02-.7-.05-.13-.02-.4-.08-.81-.2-.41-.11-.67-.17-.78-.17-.1,0-.19.03-.24.08-.06.05-.11.17-.14.34h-.23v-2.51h.23c.11.52.25.91.44,1.18.19.26.47.48.85.65.38.17.8.26,1.25.26.52,0,.94-.12,1.24-.36.3-.24.46-.52.46-.85,0-.18-.06-.36-.17-.54-.11-.18-.3-.35-.54-.51-.16-.11-.61-.33-1.34-.69-.73-.35-1.25-.63-1.56-.84-.31-.21-.55-.44-.7-.69-.16-.25-.24-.53-.24-.83,0-.53.23-.98.7-1.36.47-.38,1.07-.57,1.8-.57.45,0,.93.09,1.44.29.24.09.4.13.5.13.1,0,.19-.03.26-.08.07-.06.13-.17.17-.34h.24Z"/>
      <path class="cls-1" d="M119.34,112.65v.2h-3.66v-.2h.31c.35,0,.6-.09.77-.26.1-.11.15-.39.15-.83v-4.72c0-.37-.03-.62-.08-.74-.04-.09-.13-.17-.26-.23-.18-.09-.38-.13-.58-.13h-.31v-.2h3.66v.2h-.31c-.34,0-.6.09-.76.27-.1.11-.16.39-.16.83v4.72c0,.37.03.61.08.73.04.09.13.17.27.24.18.08.37.13.57.13h.31Z"/>
      <path class="cls-1" d="M128.08,105.54l.09,1.72h-.24c-.04-.3-.1-.51-.19-.64-.13-.21-.3-.36-.52-.46-.22-.1-.5-.15-.85-.15h-1.2v5.59c0,.45.06.73.17.84.16.15.4.23.74.23h.3v.2h-3.62v-.2h.3c.36,0,.62-.09.77-.28.09-.11.13-.37.13-.78v-5.59h-1.02c-.4,0-.68.02-.85.07-.22.07-.41.2-.56.39-.16.19-.25.46-.27.79h-.24l.1-1.72h6.97Z"/>
      <path class="cls-1" d="M135.61,105.54h2.97v.2h-.16c-.11,0-.27.04-.48.12-.21.08-.4.2-.57.36-.17.15-.38.41-.63.76l-2.06,2.77v1.83c0,.45.06.73.17.84.16.15.42.23.76.23h.28v.2h-3.63v-.2h.31c.36,0,.61-.09.77-.28.09-.11.14-.37.14-.78v-1.73l-2.34-3.06c-.28-.36-.47-.58-.57-.67-.1-.09-.3-.2-.61-.32-.08-.04-.21-.05-.37-.05v-.2h3.65v.2h-.19c-.2,0-.38.04-.54.12-.16.08-.25.2-.25.35,0,.13.13.36.38.7l1.78,2.35,1.67-2.25c.25-.34.38-.59.38-.76,0-.1-.03-.19-.09-.27-.06-.08-.15-.14-.26-.19-.11-.05-.28-.07-.51-.07v-.2Z"/>
    </g>
  </g>
</svg>