<?xml version="1.0" encoding="UTF-8"?>
<svg id="_图层_1" data-name="图层 1" xmlns="http://www.w3.org/2000/svg" viewBox="0 0 200.94 56.69">
  <defs>
    <style>
      .cls-1, .cls-2 {
        fill: #1b4a9c;
        stroke-width: 0px;
      }

      .cls-2 {
        fill-rule: evenodd;
      }
    </style>
  </defs>
  <g id="_横向" data-name="横向">
    <g>
      <polygon class="cls-1" points="29.65 54.25 29.73 54.1 29.8 53.95 29.89 53.81 29.97 53.68 30.08 53.54 30.23 53.37 30.41 53.16 30.63 52.93 30.83 52.71 31.02 52.49 31.1 52.38 31.19 52.27 31.26 52.17 31.33 52.06 31.4 51.95 31.46 51.83 31.5 51.72 31.53 51.6 31.56 51.48 31.57 51.35 31.57 51.22 31.57 51.09 31.55 50.93 31.52 50.77 31.48 50.63 31.43 50.5 31.4 50.44 31.37 50.38 31.34 50.32 31.3 50.27 31.26 50.21 31.22 50.16 31.18 50.12 31.13 50.07 31.09 50.02 31.03 49.99 30.98 49.95 30.93 49.91 30.87 49.89 30.81 49.86 30.75 49.83 30.69 49.81 30.63 49.8 30.56 49.79 30.49 49.77 30.43 49.76 30.35 49.76 30.28 49.76 30.2 49.76 30.12 49.76 30.04 49.78 29.96 49.79 29.89 49.8 29.81 49.82 29.75 49.85 29.68 49.87 29.61 49.89 29.55 49.93 29.49 49.96 29.43 50 29.37 50.04 29.33 50.09 29.28 50.14 29.23 50.19 29.18 50.24 29.15 50.31 29.1 50.36 29.07 50.42 29.03 50.49 29.01 50.56 28.98 50.63 28.95 50.71 28.94 50.79 28.92 50.87 28.9 50.95 28.89 51.04 28.87 51.13 28.87 51.22 28.86 51.41 28.87 51.61 29.53 51.55 29.51 51.4 29.51 51.25 29.52 51.11 29.54 50.99 29.55 50.88 29.59 50.78 29.62 50.69 29.66 50.62 29.71 50.55 29.76 50.49 29.82 50.44 29.88 50.4 29.94 50.37 30.01 50.34 30.07 50.33 30.14 50.31 30.23 50.31 30.3 50.31 30.38 50.33 30.44 50.35 30.5 50.38 30.57 50.41 30.62 50.46 30.67 50.51 30.71 50.58 30.75 50.63 30.78 50.7 30.81 50.78 30.83 50.86 30.85 50.94 30.86 51.03 30.88 51.12 30.88 51.21 30.88 51.3 30.88 51.39 30.86 51.48 30.84 51.57 30.81 51.66 30.79 51.74 30.75 51.82 30.71 51.9 30.65 51.99 30.6 52.08 30.53 52.18 30.46 52.27 30.38 52.37 30.29 52.47 30.2 52.56 30.07 52.69 29.94 52.82 29.83 52.95 29.73 53.07 29.63 53.19 29.55 53.3 29.47 53.41 29.4 53.51 29.33 53.62 29.27 53.73 29.21 53.83 29.16 53.94 29.12 54.05 29.07 54.17 29.03 54.28 29 54.4 29.03 54.86 31.96 54.6 31.91 54.06 29.65 54.25"/>
      <polygon class="cls-1" points="23.04 49.28 22.99 49.36 22.93 49.44 22.87 49.5 22.8 49.56 22.73 49.61 22.65 49.65 22.58 49.69 22.49 49.71 22.4 49.74 22.31 49.75 22.2 49.75 22.1 49.75 21.99 49.74 21.87 49.72 21.75 49.69 21.66 50.02 22.5 50.23 21.57 53.95 22.21 54.11 23.42 49.28 23.09 49.2 23.04 49.28"/>
      <polygon class="cls-1" points="33.74 49.16 33.74 49.26 33.73 49.36 33.71 49.45 33.69 49.54 33.66 49.62 33.62 49.7 33.57 49.77 33.52 49.84 33.46 49.9 33.38 49.96 33.31 50.02 33.22 50.07 33.12 50.11 33.02 50.15 32.91 50.19 32.79 50.23 32.87 50.56 33.7 50.35 34.63 54.07 35.28 53.91 34.07 49.08 33.74 49.16"/>
      <path class="cls-1" d="M27.76,51.28v-.12s-.02-.12-.02-.12l-.02-.11-.02-.11-.02-.1-.03-.09-.04-.09-.04-.08-.04-.08-.05-.07-.05-.07-.05-.07-.06-.06-.06-.06-.05-.05-.06-.05-.06-.04-.07-.04-.07-.03-.07-.03-.07-.03-.07-.02-.08-.02-.08-.02h-.09s-.09-.01-.09-.01h-.24s-.07.02-.07.02h-.07s-.07.03-.07.03l-.07.02-.07.03-.06.03-.06.03-.06.04-.05.04-.05.04-.06.05-.05.05-.04.06-.04.06-.04.06-.04.06-.03.07-.04.07-.03.07-.03.08-.02.07-.02.08-.02.08-.02.08-.03.17-.02.18v.18s-.01.17-.01.17v.08s.01.08.01.08v.08s.02.08.02.08l.02.07.02.07.02.06.02.07.02.06.03.06.04.05.04.06.04.06.05.05.04.05.04.04.05.04.05.03.05.03.05.03.05.03.06.02.06.02.06.02.06.02h.06s.06.02.06.02h.07s.08.01.08.01h.16s.07-.02.07-.02l.07-.02.07-.02.07-.03.07-.03.06-.04.07-.05.06-.05.06-.05.05-.06.06-.06.04-.07.04-.07-.04.23-.04.21-.04.2-.05.18-.05.17-.06.15-.06.14-.06.13-.03.06-.03.05-.04.04-.04.05-.04.04-.04.03-.04.04-.04.03-.05.02-.04.02-.05.02h-.04s-.05.02-.05.02h-.05s-.05,0-.05,0h-.11s-.06-.02-.06-.02l-.06-.03-.05-.03-.05-.04-.04-.05-.05-.05-.03-.06-.04-.06-.02-.07-.02-.07-.02-.06v-.07s-.02-.07-.02-.07v-.14l-.66-.06v.12s0,.12,0,.12v.12s.04.12.04.12l.03.12.05.11.06.11.08.11.04.06.04.05.04.04.04.04.04.04.05.03.05.03.05.03.05.03.06.02.06.03.06.02h.06s.06.03.06.03h.06s.07.01.07.01h.1s.09,0,.09,0h.09s.09-.01.09-.01l.09-.02.09-.02.08-.03.08-.03.08-.05.07-.04.07-.05.07-.06.07-.06.07-.07.06-.07.06-.08.06-.09.05-.09.06-.09.05-.1.04-.1.04-.11.04-.11.04-.11.04-.12.03-.12.02-.13.03-.13.02-.13.02-.14v-.14s.03-.15.03-.15v-.16s.02-.15.02-.15v-.15s0-.14,0-.14v-.27s-.02-.13-.02-.13ZM27.11,51.41v.15s-.02.09-.02.09l-.02.09-.02.09-.03.08-.04.07-.05.07-.05.07-.06.06-.06.06-.07.05-.07.04-.07.03-.08.02-.08.02h-.26s-.08-.03-.08-.03l-.07-.03-.06-.04-.05-.04-.05-.05-.04-.06-.04-.07-.03-.07-.02-.08-.02-.08-.02-.09v-.1s-.01-.11-.01-.11v-.12s.01-.11.01-.11l.02-.15.02-.15.03-.13.03-.12.04-.11.04-.08.05-.08.05-.06.06-.06.06-.04.06-.03.06-.03.06-.02h.06s.07-.02.07-.02h.16s.08.04.08.04l.08.03.08.04.07.05.06.05.06.07.05.08.04.09.03.09.03.11.02.11v.13s.02.13.02.13v.15Z"/>
      <polygon class="cls-1" points="17.14 48.97 17.12 48.87 17.08 48.77 17.04 48.69 16.99 48.61 16.93 48.54 16.87 48.46 16.8 48.4 16.72 48.35 16.64 48.29 16.55 48.25 16.46 48.21 16.36 48.2 16.27 48.18 16.17 48.17 16.07 48.18 15.97 48.2 15.87 48.21 15.78 48.25 15.7 48.29 15.61 48.35 15.54 48.4 15.47 48.46 15.4 48.54 15.34 48.61 15.3 48.69 15.25 48.77 15.22 48.87 15.2 48.97 15.18 49.06 15.18 49.17 15.18 49.27 15.2 49.36 15.22 49.46 15.25 49.55 15.3 49.64 15.34 49.72 15.4 49.8 15.47 49.86 15.54 49.93 15.61 49.99 15.7 50.04 15.78 50.08 15.87 50.11 15.97 50.14 16.07 50.15 16.17 50.15 16.27 50.15 16.36 50.14 16.46 50.11 16.55 50.08 16.64 50.04 16.72 49.99 16.8 49.93 16.87 49.86 16.93 49.8 16.99 49.72 17.04 49.64 17.08 49.55 17.12 49.46 17.14 49.36 17.15 49.27 17.16 49.17 17.15 49.06 17.14 48.97"/>
      <polygon class="cls-1" points="41.62 48.97 41.59 48.87 41.56 48.77 41.52 48.69 41.46 48.61 41.41 48.54 41.35 48.46 41.27 48.4 41.2 48.35 41.12 48.29 41.03 48.25 40.94 48.21 40.85 48.2 40.75 48.18 40.64 48.17 40.55 48.18 40.45 48.2 40.35 48.21 40.26 48.25 40.18 48.29 40.09 48.35 40.01 48.4 39.94 48.46 39.88 48.54 39.82 48.61 39.77 48.69 39.73 48.77 39.7 48.87 39.67 48.97 39.66 49.06 39.66 49.17 39.66 49.27 39.67 49.36 39.7 49.46 39.73 49.55 39.77 49.64 39.82 49.72 39.88 49.8 39.94 49.86 40.01 49.93 40.09 49.99 40.18 50.04 40.26 50.08 40.35 50.11 40.45 50.14 40.55 50.15 40.64 50.15 40.75 50.15 40.85 50.14 40.94 50.11 41.03 50.08 41.12 50.04 41.2 49.99 41.27 49.93 41.35 49.86 41.41 49.8 41.46 49.72 41.52 49.64 41.56 49.55 41.59 49.46 41.62 49.36 41.63 49.27 41.64 49.17 41.63 49.06 41.62 48.97"/>
      <path class="cls-1" d="M44.32,13.82l-.06.05-.06.04-.06.03-.06.02-.06.02h-.06s-.06,0-.06,0h-.05s-.06-.03-.06-.03l-.05-.02-.05-.04-.05-.03-.05-.05-.04-.06-.05-.06-.12.1,1.47,1.81.13-.1-.06-.07-.04-.06-.04-.07-.03-.06-.02-.06v-.06s-.01-.06-.01-.06v-.11s.04-.05.04-.05l.03-.05.03-.05.05-.05.05-.04.06-.05.07-.04,1.05-.85.12.15-.79,2.48.89,1.1.12-.1-.02-.02-.02-.03v-.03s-.02-.03-.02-.03v-.04s0-.04,0-.04v-.05s.01-.05.01-.05l.65-2.34.12.08.11.07.11.06.11.05.1.04.11.02.1.02h.1s.1,0,.1,0h.1s.1-.02.1-.02l.09-.02.09-.03.1-.05.09-.06.08-.07.06-.05.05-.05.05-.05.04-.06.04-.06.03-.05.03-.06.03-.06.03-.06.02-.06v-.07s.02-.06.02-.06v-.07s0-.07,0-.07v-.07s-.01-.07-.01-.07v-.07s-.02-.07-.02-.07l-.02-.07-.02-.08-.02-.07-.03-.08-.04-.08-.03-.09-.09-.17-.11-.17-.13-.18-.13-.19-1.41-1.72-.13.1.05.06.04.06.03.05.03.06.02.06v.06s.01.06.01.06v.1s-.03.06-.03.06l-.03.05-.03.05-.04.06-.05.05-.06.05-.07.05-2.38,1.93-.07.06ZM47.72,12.54l.02-.03.02-.02.02-.02h.03s.02-.02.02-.02h.09s.03.02.03.02l.04.02.03.02.03.03.07.07.07.09.06.09.05.08.04.08.03.08.02.08v.08s.01.08.01.08v.08s-.03.08-.03.08l-.03.08-.04.08-.05.08-.06.08-.07.08-.08.08-.09.08-.11.09-.1.07-.05.04-.06.02-.05.02-.05.02h-.06s-.05.03-.05.03h-.05s-.06.02-.06.02h-.05s-.05,0-.05,0h-.05s-.06-.01-.06-.01h-.05s-.05-.03-.05-.03l-.05-.02-.05-.02-.05-.02-.06-.03-.05-.03-.05-.04-.1-.08-.1-.1-.1-.12-.1-.13,1.39-1.12Z"/>
      <polygon class="cls-1" points="3.17 30.17 3.21 30.14 3.25 30.12 3.3 30.1 3.36 30.09 3.41 30.09 3.48 30.09 6.82 30.03 6.88 30.02 6.94 30.02 6.99 30.03 7.04 30.05 7.09 30.06 7.13 30.08 7.17 30.11 7.2 30.15 7.23 30.19 7.26 30.24 7.29 30.29 7.31 30.35 7.32 30.42 7.33 30.48 7.34 30.56 7.34 30.64 7.5 30.64 7.44 26.57 5.99 26.33 6 26.52 6.15 26.58 6.29 26.65 6.43 26.73 6.55 26.81 6.67 26.9 6.78 27 6.87 27.1 6.95 27.21 7.02 27.33 7.08 27.45 7.14 27.58 7.18 27.71 7.21 27.85 7.23 28 7.24 28.15 7.24 28.31 7.25 28.39 7.26 28.46 7.25 28.53 7.25 28.59 7.24 28.65 7.23 28.7 7.21 28.75 7.19 28.78 7.16 28.82 7.13 28.85 7.1 28.88 7.07 28.89 7.02 28.91 6.98 28.91 6.93 28.91 6.88 28.91 5.19 28.94 5.19 28.82 5.19 28.7 5.21 28.59 5.23 28.48 5.27 28.39 5.31 28.3 5.36 28.22 5.42 28.14 5.49 28.07 5.57 28.01 5.66 27.96 5.76 27.91 5.86 27.86 5.97 27.83 6.1 27.81 6.23 27.79 6.23 27.62 3.89 27.67 3.9 27.83 4.04 27.84 4.17 27.86 4.29 27.88 4.4 27.92 4.5 27.96 4.58 28.01 4.66 28.07 4.74 28.14 4.8 28.21 4.85 28.3 4.89 28.38 4.92 28.48 4.94 28.59 4.95 28.7 4.96 28.82 4.95 28.94 3.35 28.98 3.31 28.98 3.27 28.98 3.23 28.98 3.2 28.96 3.17 28.95 3.14 28.93 3.11 28.91 3.09 28.88 3.07 28.84 3.06 28.8 3.05 28.76 3.03 28.71 3.02 28.66 3.02 28.6 3.02 28.54 3.02 28.46 3.01 28.29 3.01 28.12 3.02 27.96 3.05 27.82 3.06 27.75 3.08 27.69 3.1 27.62 3.12 27.56 3.15 27.5 3.18 27.44 3.21 27.39 3.24 27.34 3.28 27.29 3.32 27.24 3.36 27.2 3.4 27.16 3.45 27.12 3.49 27.08 3.55 27.06 3.6 27.02 3.66 26.99 3.72 26.97 3.78 26.95 3.84 26.92 3.98 26.89 4.13 26.87 4.13 26.68 2.74 26.71 2.81 30.72 2.97 30.72 2.97 30.64 2.98 30.56 2.99 30.49 3 30.43 3.02 30.38 3.05 30.32 3.07 30.28 3.09 30.24 3.13 30.2 3.17 30.17"/>
      <polygon class="cls-1" points="39.54 10.37 39.48 10.37 39.42 10.37 39.37 10.35 39.31 10.33 39.25 10.3 39.19 10.27 39.12 10.24 39.06 10.19 38.96 10.33 42.29 12.66 43.34 11.64 43.19 11.53 43.04 11.62 42.9 11.69 42.76 11.76 42.61 11.81 42.48 11.84 42.34 11.88 42.2 11.89 42.06 11.89 41.93 11.88 41.79 11.86 41.66 11.83 41.52 11.78 41.39 11.73 41.26 11.66 41.12 11.58 41 11.49 40.92 11.44 40.87 11.41 40.82 11.36 40.77 11.32 40.73 11.28 40.69 11.24 40.67 11.2 40.65 11.16 40.63 11.12 40.62 11.08 40.62 11.03 40.63 10.99 40.65 10.96 40.67 10.91 40.69 10.87 40.73 10.83 41.69 9.46 41.79 9.53 41.89 9.6 41.97 9.68 42.04 9.76 42.1 9.84 42.15 9.92 42.18 10.02 42.21 10.11 42.22 10.21 42.23 10.3 42.22 10.41 42.2 10.51 42.17 10.63 42.13 10.74 42.08 10.86 42.01 10.97 42.15 11.07 43.49 9.16 43.35 9.06 43.26 9.17 43.18 9.26 43.08 9.34 42.99 9.41 42.9 9.46 42.81 9.51 42.71 9.53 42.61 9.55 42.56 9.56 42.52 9.56 42.47 9.56 42.42 9.55 42.32 9.53 42.22 9.51 42.13 9.46 42.03 9.41 41.93 9.34 41.83 9.26 42.75 7.95 42.77 7.91 42.79 7.87 42.82 7.85 42.85 7.82 42.87 7.81 42.91 7.8 42.94 7.79 42.98 7.79 43.02 7.8 43.06 7.8 43.1 7.82 43.15 7.84 43.2 7.86 43.25 7.9 43.3 7.93 43.35 7.97 43.5 8.07 43.64 8.17 43.76 8.27 43.87 8.38 43.91 8.43 43.96 8.48 44 8.54 44.03 8.59 44.07 8.65 44.09 8.71 44.12 8.76 44.14 8.82 44.16 8.87 44.17 8.94 44.18 8.99 44.19 9.05 44.2 9.11 44.2 9.17 44.19 9.23 44.18 9.29 44.17 9.36 44.16 9.42 44.14 9.48 44.12 9.55 44.06 9.68 43.99 9.81 44.15 9.92 44.94 8.79 41.66 6.48 41.56 6.62 41.63 6.66 41.68 6.71 41.73 6.75 41.78 6.8 41.81 6.85 41.84 6.9 41.87 6.94 41.88 6.99 41.89 7.04 41.89 7.09 41.89 7.14 41.88 7.19 41.87 7.24 41.84 7.29 41.81 7.35 41.78 7.4 39.87 10.13 39.83 10.18 39.8 10.23 39.76 10.27 39.72 10.3 39.67 10.33 39.63 10.35 39.58 10.36 39.54 10.37"/>
      <path class="cls-1" d="M3.22,23.76l.03-.07.03-.06.03-.06.03-.05.04-.05.04-.03.04-.04.04-.02.05-.02h.05s.05-.02.05-.02h.11s.06.02.06.02h.06s3.21.94,3.21.94l.06.02.06.02.05.02.04.03.04.03.04.04.02.04.02.04.02.05v.05s.02.06.02.06v.19s-.02.07-.02.07l-.02.07.15.05.62-2.17.06-.22.04-.2.02-.2v-.19s.01-.09.01-.09v-.17s-.01-.09-.01-.09v-.07s-.03-.07-.03-.07v-.07s-.04-.08-.04-.08l-.02-.07-.02-.06-.03-.06-.04-.06-.04-.05-.03-.06-.04-.05-.05-.05-.05-.05-.05-.04-.06-.04-.06-.04-.06-.04-.07-.03-.07-.03-.07-.02-.12-.02h-.12s-.11-.01-.11-.01h-.11s-.11.03-.11.03l-.1.03-.1.04-.1.05-.09.06-.09.07-.09.09-.09.09-.08.1-.08.11-.07.13-.07.14h-.03s0-.14,0-.14v-.25s-.02-.11-.02-.11l-.02-.11-.02-.1-.04-.09-.04-.09-.05-.08-.05-.07-.06-.06-.07-.06-.07-.05-.08-.04-.09-.03-.09-.03-.06-.02h-.06s-.07-.02-.07-.02h-.24s-.06.02-.06.02h-.06s-.05.04-.05.04l-.06.02-.06.03-.05.03-.05.04-.05.04-.05.04-.05.05-.05.05-.04.06-.05.05-.09.13-.08.14-.08.16-.07.18-.08.19-.07.21-.59,2.06.15.05.02-.08ZM5.78,22.58l.04-.12.05-.11.06-.1.06-.09.07-.08.07-.07.08-.06.08-.05.09-.04.09-.03.11-.02h.1s.11,0,.11,0h.12s.12.03.12.03l.13.04.12.03.12.04.1.05.1.05.09.06.07.06.06.06.06.07.04.07.03.07.02.08v.08s.02.08.02.08v.09s-.03.09-.03.09l-.02.1v.05s-.03.04-.03.04l-.02.04-.02.04-.02.04-.02.02-.03.03-.03.02h-.03s-.04.02-.04.02h-.04s-.04,0-.04,0h-.09s-.05-.02-.05-.02h-.06s-1.67-.49-1.67-.49l.05-.18ZM3.79,22.02v-.08s.03-.09.03-.09l.03-.08.03-.08.04-.07.04-.06.05-.05.06-.05.06-.04.06-.03.07-.02.07-.02h.08s.08-.01.08-.01h.09s.09.02.09.02l.1.02.1.02.13.03.12.03.11.05.09.05.04.02.04.03.04.03.04.04.03.03.03.04.03.04.02.04.02.04.02.04v.05s.02.05.02.05v.1s.01.11.01.11v.11s-.03.12-.03.12l-.04.13-.04.14-1.51-.44h-.04s-.04-.01-.04-.01h-.03s-.02-.03-.02-.03l-.03-.02-.02-.02-.02-.03-.02-.02v-.03s-.02-.03-.02-.03v-.03s0-.04,0-.04Z"/>
      <polygon class="cls-1" points="49.29 23.62 49.23 23.63 49.18 23.63 49.13 23.62 49.08 23.61 49.03 23.6 48.99 23.57 48.95 23.54 48.91 23.5 48.87 23.46 48.84 23.41 48.81 23.35 48.78 23.29 48.76 23.22 48.73 23.15 48.71 23.07 48.55 23.1 49.02 25.5 49.18 25.47 49.16 25.38 49.14 25.3 49.14 25.22 49.14 25.15 49.14 25.09 49.15 25.03 49.17 24.97 49.18 24.92 49.21 24.87 49.24 24.84 49.28 24.8 49.32 24.77 49.37 24.75 49.43 24.73 49.49 24.71 49.55 24.71 52.83 24.07 52.89 24.06 52.94 24.05 52.99 24.05 53.04 24.06 53.09 24.07 53.14 24.08 53.18 24.11 53.21 24.14 53.25 24.18 53.28 24.21 53.31 24.26 53.35 24.32 53.37 24.37 53.39 24.44 53.41 24.51 53.42 24.59 53.44 24.61 53.46 24.64 53.62 24.61 53.16 22.21 53 22.24 53 22.32 53.01 22.39 53.01 22.47 53.01 22.53 53 22.59 52.99 22.64 52.97 22.7 52.95 22.75 52.93 22.79 52.89 22.83 52.86 22.87 52.82 22.9 52.78 22.92 52.73 22.95 52.67 22.96 52.62 22.98 49.34 23.61 49.29 23.62"/>
      <polygon class="cls-1" points="8.2 34.56 8.22 34.64 8.23 34.72 8.24 34.78 8.24 34.85 8.24 34.91 8.23 34.97 8.22 35.03 8.2 35.07 8.18 35.12 8.15 35.15 8.12 35.19 8.07 35.22 8.03 35.24 7.98 35.27 7.92 35.28 7.86 35.3 6.34 35.7 5.92 34.1 7.43 33.69 7.49 33.68 7.55 33.67 7.6 33.67 7.66 33.67 7.71 33.68 7.76 33.69 7.8 33.71 7.85 33.73 7.88 33.77 7.92 33.81 7.96 33.85 7.99 33.9 8.02 33.95 8.04 34.02 8.07 34.09 8.09 34.16 8.25 34.12 7.64 31.84 7.48 31.89 7.5 31.97 7.5 32.04 7.51 32.11 7.51 32.17 7.51 32.23 7.5 32.29 7.49 32.34 7.47 32.38 7.44 32.42 7.41 32.46 7.38 32.5 7.34 32.52 7.3 32.55 7.25 32.57 7.19 32.59 7.14 32.6 3.92 33.46 3.86 33.48 3.8 33.49 3.75 33.49 3.7 33.49 3.65 33.48 3.61 33.47 3.56 33.45 3.52 33.42 3.48 33.39 3.45 33.36 3.41 33.32 3.38 33.27 3.34 33.22 3.32 33.15 3.28 33.09 3.27 33.02 3.11 33.06 3.72 35.34 3.87 35.3 3.85 35.22 3.84 35.15 3.83 35.08 3.83 35.01 3.83 34.96 3.84 34.9 3.85 34.84 3.87 34.8 3.89 34.75 3.93 34.72 3.96 34.68 4 34.65 4.04 34.62 4.09 34.6 4.15 34.57 4.21 34.56 5.6 34.19 6.03 35.79 4.64 36.16 4.57 36.18 4.52 36.19 4.46 36.2 4.41 36.2 4.36 36.19 4.31 36.18 4.27 36.16 4.23 36.14 4.19 36.1 4.15 36.06 4.12 36.02 4.09 35.96 4.06 35.91 4.03 35.84 4 35.76 3.98 35.69 3.82 35.74 4.43 38.02 4.59 37.97 4.57 37.9 4.57 37.83 4.56 37.77 4.56 37.71 4.57 37.65 4.57 37.6 4.6 37.55 4.61 37.5 4.64 37.46 4.66 37.42 4.7 37.39 4.74 37.35 4.78 37.32 4.82 37.3 4.88 37.28 4.93 37.26 8.16 36.4 8.22 36.38 8.28 36.37 8.33 36.37 8.38 36.37 8.43 36.37 8.48 36.38 8.52 36.4 8.57 36.43 8.6 36.46 8.64 36.49 8.67 36.54 8.71 36.59 8.73 36.64 8.76 36.7 8.79 36.77 8.81 36.84 8.97 36.8 8.36 34.52 8.2 34.56"/>
      <polygon class="cls-1" points="53.22 33.49 53.18 33.55 53.12 33.62 53.07 33.67 53 33.72 52.93 33.76 52.84 33.81 52.75 33.84 50.19 34.47 49.2 34.21 49.12 34.19 49.04 34.16 48.98 34.14 48.92 34.11 48.87 34.08 48.82 34.04 48.78 33.99 48.75 33.95 48.72 33.89 48.71 33.84 48.69 33.78 48.69 33.72 48.69 33.65 48.7 33.57 48.72 33.49 48.74 33.41 48.58 33.37 47.96 35.7 48.11 35.74 48.13 35.65 48.15 35.58 48.19 35.51 48.22 35.44 48.25 35.39 48.29 35.35 48.34 35.3 48.38 35.27 48.43 35.25 48.49 35.23 48.54 35.23 48.61 35.23 48.68 35.23 48.75 35.25 48.82 35.28 48.91 35.31 50.14 35.64 51.89 37.48 51.93 37.53 51.97 37.57 51.99 37.62 52.01 37.69 52.02 37.75 52.02 37.82 52.02 37.89 52.01 37.97 52.02 37.96 52.02 37.96 52.02 37.98 52.03 38 52.19 38.04 52.58 36.58 52.42 36.53 52.38 36.66 52.32 36.77 52.3 36.82 52.28 36.87 52.24 36.9 52.22 36.93 52.19 36.96 52.16 36.98 52.13 37 52.1 37.01 52.07 37.01 52.03 37.01 52 37.01 51.96 37 51.9 36.97 51.83 36.93 51.77 36.89 51.7 36.84 51.63 36.79 51.57 36.72 51.5 36.66 51.43 36.58 50.37 35.51 52.16 35.11 52.17 35.1 52.18 35.09 52.22 35.08 52.25 35.08 52.35 35.06 52.44 35.05 52.51 35.04 52.57 35.06 52.6 35.06 52.62 35.06 52.64 35.07 52.67 35.08 52.69 35.1 52.7 35.14 52.71 35.16 52.72 35.2 52.72 35.24 52.72 35.28 52.72 35.34 52.72 35.39 52.69 35.52 52.65 35.67 52.81 35.71 53.42 33.46 53.26 33.41 53.22 33.49"/>
      <polygon class="cls-1" points="32.35 7.7 32.26 7.7 32.18 7.69 32.1 7.67 32.04 7.65 31.98 7.62 31.92 7.59 31.88 7.56 31.83 7.53 31.8 7.49 31.77 7.45 31.75 7.4 31.73 7.35 31.72 7.3 31.72 7.24 31.73 7.18 31.74 7.11 32.15 3.8 32.15 3.74 32.17 3.69 32.18 3.64 32.2 3.59 32.23 3.55 32.26 3.52 32.29 3.48 32.33 3.46 32.38 3.43 32.43 3.41 32.48 3.4 32.54 3.38 32.6 3.38 32.67 3.38 32.75 3.38 32.83 3.39 32.85 3.38 32.88 3.37 32.9 3.21 30.48 2.91 30.46 3.08 30.54 3.09 30.61 3.11 30.68 3.13 30.73 3.15 30.79 3.17 30.84 3.21 30.89 3.24 30.93 3.28 30.96 3.31 30.99 3.36 31.01 3.4 31.03 3.45 31.04 3.5 31.05 3.55 31.05 3.61 31.04 3.67 30.63 6.98 30.63 7.04 30.62 7.09 30.6 7.14 30.58 7.19 30.55 7.23 30.52 7.27 30.49 7.3 30.44 7.33 30.39 7.35 30.34 7.38 30.29 7.39 30.23 7.4 30.16 7.41 30.08 7.41 30.01 7.41 29.92 7.41 29.91 7.57 32.33 7.87 32.35 7.7"/>
      <polygon class="cls-1" points="35.23 3.83 35.26 3.86 35.3 3.89 35.34 3.92 35.37 3.95 35.39 3.99 35.42 4.04 35.44 4.08 35.46 4.12 35.48 4.17 35.49 4.22 35.5 4.28 35.51 4.33 35.51 4.39 35.52 4.45 35.69 8.94 35.87 9 38.78 5.79 38.83 5.74 38.87 5.69 38.91 5.64 38.96 5.6 39.01 5.57 39.06 5.54 39.1 5.51 39.15 5.49 39.2 5.48 39.25 5.46 39.3 5.45 39.35 5.45 39.41 5.45 39.46 5.46 39.51 5.47 39.57 5.48 39.62 5.33 38.26 4.81 38.2 4.96 38.33 5.02 38.44 5.08 38.49 5.12 38.53 5.15 38.57 5.18 38.6 5.21 38.62 5.25 38.64 5.28 38.65 5.31 38.67 5.34 38.67 5.38 38.67 5.41 38.65 5.44 38.64 5.48 38.61 5.53 38.56 5.6 38.49 5.69 38.41 5.79 38.36 5.85 38.34 5.88 36.69 7.69 36.64 5.32 36.63 5.21 36.62 5.1 36.62 5.01 36.62 4.93 36.62 4.86 36.63 4.79 36.63 4.73 36.65 4.68 36.66 4.65 36.67 4.62 36.68 4.59 36.7 4.56 36.73 4.54 36.76 4.53 36.79 4.52 36.83 4.51 36.88 4.51 36.93 4.51 36.98 4.52 37.04 4.53 37.16 4.57 37.31 4.62 37.37 4.47 35.19 3.63 35.14 3.78 35.18 3.81 35.23 3.83"/>
      <polygon class="cls-1" points="16.78 5.62 16.85 5.6 16.91 5.59 16.97 5.59 17.03 5.59 17.09 5.6 17.14 5.62 17.19 5.64 17.23 5.67 17.28 5.7 17.31 5.74 17.35 5.79 17.39 5.85 17.42 5.91 17.45 5.97 17.47 6.05 18.3 8.21 18.34 8.3 18.37 8.4 18.41 8.5 18.46 8.58 18.51 8.67 18.56 8.74 18.61 8.82 18.67 8.88 18.73 8.94 18.79 9 18.85 9.05 18.92 9.09 18.99 9.13 19.06 9.16 19.13 9.2 19.21 9.22 19.28 9.24 19.36 9.25 19.43 9.26 19.52 9.27 19.6 9.27 19.69 9.27 19.78 9.27 19.86 9.26 19.95 9.25 20.05 9.23 20.15 9.21 20.24 9.2 20.45 9.14 20.66 9.07 20.76 9.02 20.86 8.98 20.95 8.93 21.04 8.88 21.12 8.83 21.2 8.78 21.28 8.73 21.35 8.67 21.42 8.61 21.48 8.54 21.54 8.49 21.59 8.42 21.64 8.36 21.68 8.29 21.73 8.22 21.76 8.15 21.78 8.09 21.8 8.02 21.82 7.96 21.82 7.88 21.83 7.81 21.84 7.73 21.83 7.65 21.83 7.57 21.82 7.48 21.81 7.39 21.79 7.29 21.77 7.2 21.71 6.99 21.64 6.77 20.84 4.7 20.82 4.63 20.79 4.57 20.77 4.52 20.77 4.46 20.76 4.41 20.76 4.35 20.77 4.3 20.79 4.25 20.81 4.21 20.84 4.16 20.87 4.12 20.91 4.08 20.96 4.05 21.01 4.01 21.07 3.98 21.13 3.95 21.08 3.79 19.66 4.34 19.72 4.49 19.8 4.46 19.88 4.44 19.96 4.42 20.03 4.42 20.1 4.42 20.16 4.42 20.22 4.44 20.28 4.46 20.34 4.49 20.39 4.53 20.43 4.57 20.47 4.63 20.51 4.68 20.55 4.75 20.58 4.83 20.6 4.91 21.36 6.88 21.42 7.05 21.47 7.21 21.51 7.36 21.54 7.51 21.54 7.59 21.54 7.66 21.54 7.72 21.54 7.79 21.54 7.86 21.52 7.91 21.51 7.97 21.49 8.03 21.47 8.09 21.45 8.14 21.42 8.19 21.39 8.24 21.35 8.29 21.32 8.34 21.28 8.38 21.23 8.43 21.18 8.47 21.13 8.51 21.08 8.55 21.02 8.58 20.96 8.62 20.9 8.65 20.83 8.68 20.76 8.71 20.64 8.75 20.52 8.79 20.47 8.8 20.41 8.8 20.35 8.8 20.3 8.8 20.25 8.8 20.2 8.8 20.15 8.79 20.1 8.77 20.05 8.75 20 8.74 19.96 8.71 19.91 8.69 19.87 8.66 19.82 8.63 19.79 8.59 19.74 8.54 19.66 8.46 19.59 8.35 19.52 8.24 19.45 8.11 19.39 7.97 19.33 7.8 18.51 5.65 18.47 5.58 18.44 5.5 18.42 5.43 18.41 5.36 18.4 5.3 18.41 5.24 18.42 5.18 18.45 5.13 18.47 5.07 18.51 5.02 18.56 4.98 18.61 4.94 18.67 4.9 18.74 4.86 18.82 4.83 18.91 4.8 18.85 4.65 16.65 5.49 16.7 5.65 16.78 5.62"/>
      <polygon class="cls-1" points="49.06 20.36 49.03 20.42 48.99 20.48 48.95 20.52 48.9 20.57 48.85 20.61 48.79 20.64 48.73 20.67 48.64 20.7 48.56 20.72 48.47 20.73 48.4 20.73 48.31 20.73 48.24 20.72 48.17 20.7 48.11 20.67 48.04 20.64 47.98 20.6 47.92 20.56 47.87 20.5 47.82 20.44 47.77 20.36 47.72 20.29 47.67 20.2 47.63 20.08 47.59 19.95 47.58 19.89 47.56 19.83 47.55 19.77 47.55 19.72 47.54 19.65 47.55 19.59 47.56 19.53 47.56 19.47 47.58 19.41 47.59 19.35 47.61 19.29 47.63 19.23 47.68 19.11 47.74 18.99 47.82 18.87 47.91 18.75 48.01 18.63 48.13 18.51 48.25 18.4 48.4 18.28 48.31 18.11 46.81 18.81 46.89 18.98 46.94 18.97 46.98 18.97 47.02 18.97 47.05 18.98 47.09 19 47.11 19.02 47.14 19.06 47.16 19.1 47.17 19.15 47.18 19.22 47.19 19.29 47.2 19.38 47.26 19.62 47.33 19.84 47.37 19.95 47.4 20.06 47.44 20.16 47.49 20.26 47.58 20.42 47.68 20.58 47.73 20.65 47.78 20.72 47.83 20.78 47.88 20.84 47.94 20.9 47.99 20.95 48.05 21 48.11 21.05 48.17 21.09 48.22 21.13 48.29 21.17 48.35 21.2 48.41 21.22 48.48 21.25 48.54 21.27 48.61 21.28 48.67 21.3 48.74 21.31 48.81 21.32 48.88 21.32 48.96 21.32 49.03 21.32 49.1 21.3 49.18 21.3 49.26 21.28 49.34 21.26 49.41 21.24 49.49 21.21 49.58 21.16 49.66 21.11 49.74 21.06 49.82 20.99 49.89 20.93 49.95 20.87 50.01 20.8 50.06 20.72 50.11 20.64 50.16 20.56 50.2 20.47 50.23 20.38 50.26 20.29 50.29 20.19 50.31 20.09 50.32 19.98 50.34 18.87 50.34 18.76 50.35 18.66 50.35 18.56 50.36 18.47 50.38 18.39 50.4 18.31 50.42 18.24 50.45 18.17 50.48 18.11 50.51 18.05 50.55 18 50.59 17.96 50.64 17.93 50.69 17.89 50.74 17.87 50.8 17.85 50.87 17.82 50.93 17.81 51 17.79 51.06 17.79 51.12 17.79 51.18 17.8 51.24 17.81 51.3 17.84 51.36 17.87 51.41 17.9 51.47 17.95 51.52 18 51.57 18.05 51.61 18.12 51.66 18.18 51.71 18.26 51.75 18.37 51.77 18.48 51.8 18.59 51.81 18.7 51.8 18.81 51.8 18.92 51.77 19.04 51.74 19.15 51.7 19.26 51.65 19.36 51.59 19.47 51.51 19.59 51.43 19.7 51.34 19.81 51.24 19.92 51.13 20.03 51.21 20.2 52.56 19.58 52.47 19.38 52.4 19.39 52.34 19.39 52.29 19.39 52.25 19.38 52.22 19.37 52.19 19.34 52.17 19.32 52.15 19.28 52.13 19.22 52.12 19.15 52.1 19.06 52.09 18.95 52.08 18.84 52.07 18.73 52.05 18.63 52.03 18.53 52.01 18.44 51.98 18.35 51.95 18.27 51.92 18.19 51.83 18.03 51.75 17.89 51.7 17.82 51.65 17.76 51.6 17.71 51.55 17.65 51.5 17.6 51.45 17.55 51.4 17.5 51.34 17.46 51.29 17.42 51.23 17.39 51.18 17.36 51.12 17.33 51.06 17.31 51 17.29 50.94 17.27 50.87 17.26 50.81 17.25 50.74 17.25 50.67 17.24 50.6 17.24 50.53 17.25 50.46 17.26 50.38 17.26 50.32 17.28 50.16 17.32 50.01 17.37 49.9 17.42 49.81 17.47 49.73 17.53 49.64 17.6 49.56 17.68 49.5 17.76 49.43 17.85 49.38 17.95 49.34 18.07 49.29 18.18 49.26 18.31 49.23 18.45 49.21 18.59 49.19 18.75 49.18 18.91 49.18 19.08 49.16 19.6 49.17 19.7 49.17 19.8 49.17 19.9 49.16 19.99 49.15 20.07 49.13 20.15 49.11 20.23 49.09 20.3 49.06 20.36"/>
      <polygon class="cls-1" points="52.55 26.86 52.55 27.05 52.69 27.07 52.82 27.1 52.94 27.13 53.06 27.18 53.16 27.23 53.26 27.3 53.3 27.33 53.34 27.38 53.38 27.41 53.42 27.46 53.45 27.5 53.49 27.54 53.51 27.59 53.54 27.64 53.59 27.75 53.63 27.87 53.66 27.99 53.68 28.13 53.69 28.27 53.69 28.42 50.03 28.36 49.95 28.36 49.87 28.36 49.79 28.35 49.73 28.34 49.66 28.32 49.61 28.3 49.56 28.26 49.52 28.22 49.48 28.17 49.45 28.12 49.43 28.06 49.41 28 49.4 27.93 49.39 27.84 49.39 27.76 49.39 27.67 49.23 27.67 49.18 30.13 49.35 30.14 49.35 30.05 49.35 29.95 49.36 29.87 49.37 29.8 49.4 29.74 49.42 29.67 49.46 29.62 49.5 29.57 49.54 29.54 49.59 29.51 49.64 29.48 49.71 29.46 49.77 29.46 49.85 29.45 49.93 29.46 50.01 29.47 53.67 29.53 53.67 29.68 53.65 29.81 53.63 29.95 53.6 30.06 53.56 30.17 53.51 30.28 53.48 30.33 53.45 30.37 53.41 30.42 53.38 30.46 53.34 30.49 53.3 30.54 53.26 30.57 53.21 30.61 53.11 30.67 53 30.72 52.89 30.76 52.76 30.8 52.63 30.82 52.49 30.84 52.48 31.06 53.87 31.06 53.94 26.91 52.55 26.86"/>
      <polygon class="cls-1" points="23.66 3.23 23.68 3.23 23.71 3.24 23.73 3.25 23.8 3.28 23.87 3.34 23.96 3.41 24.05 3.48 24.16 3.59 24.28 3.71 24.51 6.98 24.51 7.05 24.51 7.11 24.51 7.17 24.49 7.23 24.48 7.28 24.46 7.33 24.43 7.38 24.39 7.41 24.35 7.45 24.31 7.48 24.26 7.51 24.2 7.54 24.14 7.56 24.07 7.57 24 7.59 23.93 7.59 23.93 7.76 25.5 7.65 25.49 7.48 25.4 7.49 25.32 7.48 25.25 7.48 25.17 7.46 25.11 7.44 25.05 7.41 25 7.38 24.95 7.35 24.91 7.3 24.88 7.25 24.85 7.19 24.83 7.13 24.81 7.06 24.8 6.99 24.79 6.91 24.8 6.83 24.6 4.07 27.95 7.56 28.13 7.55 27.85 3.51 27.84 3.46 27.84 3.4 27.84 3.34 27.84 3.29 27.85 3.25 27.87 3.2 27.89 3.16 27.92 3.12 27.95 3.08 28 3.05 28.04 3.01 28.09 2.99 28.15 2.96 28.21 2.94 28.28 2.92 28.36 2.91 28.34 2.75 26.85 2.85 26.86 3.01 26.95 3.01 27.03 3.01 27.11 3.03 27.17 3.04 27.24 3.07 27.29 3.09 27.35 3.13 27.39 3.16 27.43 3.21 27.47 3.26 27.49 3.31 27.52 3.37 27.54 3.44 27.55 3.51 27.56 3.58 27.56 3.67 27.71 5.75 25.09 2.97 23.63 3.07 23.65 3.23 23.66 3.23"/>
      <polygon class="cls-1" points="9.02 11.83 9.07 11.78 9.13 11.74 9.19 11.7 9.24 11.68 9.3 11.65 9.35 11.64 9.4 11.63 9.45 11.62 9.5 11.63 9.55 11.64 9.6 11.64 9.64 11.67 9.69 11.7 9.73 11.73 9.78 11.77 12.18 14.09 12.22 14.13 12.26 14.17 12.29 14.21 12.31 14.26 12.33 14.31 12.34 14.35 12.35 14.4 12.34 14.45 12.34 14.51 12.32 14.56 12.3 14.61 12.27 14.67 12.24 14.73 12.2 14.79 12.15 14.85 12.1 14.92 12.22 15.03 13.91 13.27 13.79 13.15 13.73 13.22 13.68 13.28 13.61 13.33 13.56 13.37 13.5 13.4 13.45 13.43 13.39 13.45 13.34 13.46 13.29 13.47 13.24 13.46 13.19 13.45 13.14 13.43 13.09 13.41 13.04 13.38 13 13.33 12.95 13.28 10.55 10.97 10.5 10.93 10.47 10.89 10.44 10.85 10.42 10.8 10.4 10.76 10.39 10.71 10.38 10.66 10.39 10.61 10.39 10.56 10.41 10.51 10.43 10.46 10.46 10.4 10.49 10.35 10.53 10.29 10.58 10.24 10.64 10.18 10.65 10.16 10.65 10.12 10.54 10.01 8.84 11.76 8.95 11.88 9.02 11.83"/>
      <polygon class="cls-1" points="5.37 17.42 5.41 17.36 5.45 17.31 5.49 17.26 5.54 17.22 5.58 17.18 5.63 17.16 5.68 17.13 5.73 17.12 5.78 17.11 5.82 17.11 5.87 17.11 5.92 17.13 5.98 17.15 6.03 17.17 6.08 17.21 8.98 18.87 9.03 18.9 9.08 18.93 9.12 18.97 9.16 19 9.19 19.04 9.21 19.08 9.23 19.13 9.24 19.18 9.25 19.23 9.25 19.28 9.24 19.34 9.23 19.4 9.2 19.46 9.18 19.53 9.15 19.6 9.1 19.67 9.25 19.75 11.28 16.23 10.17 15.27 10.08 15.44 10.18 15.57 10.27 15.71 10.34 15.85 10.41 15.98 10.46 16.12 10.49 16.26 10.53 16.39 10.54 16.53 10.54 16.66 10.53 16.8 10.51 16.94 10.48 17.08 10.43 17.21 10.38 17.35 10.31 17.48 10.23 17.62 10.19 17.69 10.15 17.76 10.12 17.81 10.08 17.87 10.04 17.91 10.01 17.95 9.97 17.98 9.93 18 9.89 18.02 9.85 18.03 9.81 18.03 9.77 18.03 9.73 18.02 9.68 18 9.64 17.98 9.6 17.95 8.14 17.11 8.2 17 8.27 16.9 8.34 16.81 8.41 16.74 8.49 16.67 8.57 16.61 8.66 16.57 8.74 16.53 8.84 16.51 8.94 16.49 9.05 16.49 9.15 16.51 9.26 16.53 9.38 16.56 9.51 16.6 9.63 16.65 9.71 16.51 7.69 15.34 7.61 15.48 7.72 15.56 7.82 15.65 7.91 15.73 7.99 15.82 8.05 15.91 8.1 16 8.13 16.09 8.17 16.18 8.18 16.27 8.18 16.37 8.17 16.47 8.15 16.57 8.11 16.67 8.06 16.78 8.01 16.88 7.93 16.99 6.55 16.19 6.51 16.17 6.47 16.15 6.44 16.13 6.42 16.1 6.4 16.07 6.39 16.04 6.38 16.01 6.37 15.97 6.37 15.93 6.38 15.89 6.39 15.84 6.41 15.8 6.43 15.74 6.45 15.69 6.48 15.64 6.52 15.57 6.61 15.42 6.69 15.28 6.79 15.15 6.88 15.04 6.93 14.98 6.98 14.94 7.03 14.9 7.08 14.85 7.13 14.82 7.19 14.78 7.24 14.75 7.29 14.73 7.35 14.7 7.4 14.68 7.47 14.67 7.52 14.66 7.59 14.64 7.65 14.64 7.7 14.64 7.77 14.64 7.83 14.65 7.89 14.66 7.96 14.67 8.02 14.68 8.16 14.73 8.29 14.79 8.39 14.62 7.19 13.93 5.18 17.41 5.32 17.48 5.37 17.42"/>
      <polygon class="cls-1" points="31.67 19.25 31.68 19.29 31.7 19.33 31.72 19.36 31.74 19.39 31.76 19.41 31.78 19.43 31.8 19.44 31.81 19.45 31.83 19.46 31.85 19.46 31.9 19.46 31.96 19.46 32.62 19.38 34.09 19.33 33.99 19.53 33.99 19.54 33.99 19.57 33.99 19.59 33.99 19.63 34.11 20.35 34.13 20.47 34.14 20.61 34.15 20.75 34.16 20.92 34.16 21.1 34.17 21.29 34.17 21.5 34.17 21.73 34.16 21.95 34.16 22.16 34.15 22.35 34.14 22.52 34.13 22.68 34.12 22.81 34.11 22.93 34.09 23.03 34.06 23.18 34.04 23.37 34.01 23.56 33.99 23.78 33.95 23.98 33.92 24.16 33.9 24.25 33.87 24.33 33.84 24.39 33.82 24.44 33.67 24.66 33.5 24.92 33.31 25.2 33.11 25.5 33.01 25.66 32.92 25.82 32.83 25.98 32.75 26.14 32.67 26.29 32.6 26.44 32.55 26.59 32.49 26.74 32.46 26.86 32.43 26.99 32.41 27.1 32.39 27.22 32.37 27.34 32.36 27.45 32.35 27.56 32.34 27.65 32.34 27.75 32.34 27.84 32.35 27.93 32.35 27.99 32.36 28.06 32.38 28.11 32.4 28.15 32.43 28.19 32.45 28.21 32.49 28.22 32.53 28.21 32.56 28.19 32.6 28.15 32.65 28.09 32.71 28.02 32.76 27.94 32.83 27.83 32.9 27.7 32.96 27.56 33.04 27.39 33.12 27.2 33.2 26.99 33.29 26.76 33.38 26.5 33.46 26.3 33.53 26.1 33.62 25.91 33.72 25.73 33.77 25.64 33.84 25.55 33.9 25.46 33.96 25.37 34.04 25.27 34.12 25.18 34.2 25.09 34.3 24.99 34.33 24.95 34.37 24.91 34.4 24.86 34.42 24.82 34.47 24.71 34.51 24.6 34.55 24.49 34.57 24.36 34.6 24.23 34.61 24.1 34.64 23.83 34.66 23.56 34.67 23.31 34.7 23.08 34.71 22.99 34.72 22.87 34.73 22.73 34.74 22.57 34.75 22.38 34.76 22.17 34.76 21.95 34.77 21.69 34.77 21.51 34.77 21.35 34.76 21.2 34.76 21.07 34.76 20.95 34.76 20.85 34.75 20.77 34.74 20.7 34.65 20.11 34.62 19.93 34.6 19.79 34.57 19.7 34.55 19.63 34.53 19.58 34.51 19.51 34.48 19.44 34.45 19.36 34.57 19.35 34.69 19.34 34.8 19.33 34.88 19.31 34.96 19.28 35.02 19.24 35.04 19.23 35.07 19.2 35.09 19.18 35.11 19.16 35.12 19.12 35.12 19.07 35.12 18.99 35.12 18.88 35.12 18.86 35.11 18.83 35.09 18.81 35.08 18.78 35.06 18.76 35.03 18.75 35 18.73 34.97 18.71 34.88 18.68 34.78 18.66 34.67 18.65 34.54 18.63 34.35 18.64 34.16 18.65 33.96 18.66 33.75 18.67 33.56 18.69 33.4 18.7 33.28 18.7 33.21 18.68 33.12 18.68 32.97 18.68 32.76 18.67 32.49 18.65 32.35 18.65 32.22 18.65 32.16 18.67 32.1 18.67 32.05 18.69 32 18.71 31.95 18.73 31.91 18.75 31.87 18.77 31.83 18.81 31.8 18.84 31.77 18.87 31.74 18.92 31.72 18.96 31.68 19.01 31.67 19.06 31.66 19.11 31.66 19.16 31.67 19.2 31.67 19.25"/>
      <polygon class="cls-1" points="30.48 18.38 30.54 18.48 30.62 18.6 30.7 18.72 30.78 18.83 30.84 18.92 30.88 19.01 30.89 19.05 30.91 19.11 30.93 19.16 30.94 19.23 30.97 19.4 30.99 19.6 31 19.75 31 19.89 31 20.04 31 20.18 30.99 20.31 30.98 20.46 30.97 20.6 30.94 20.75 30.81 21.29 30.79 21.35 30.78 21.41 30.77 21.45 30.78 21.51 30.78 21.54 30.79 21.59 30.82 21.64 30.84 21.68 30.88 21.72 30.91 21.74 30.95 21.76 30.99 21.76 31.02 21.76 31.07 21.75 31.1 21.72 31.15 21.69 31.2 21.63 31.25 21.56 31.3 21.48 31.35 21.39 31.41 21.28 31.47 21.17 31.52 21.05 31.56 20.93 31.58 20.82 31.6 20.7 31.61 20.58 31.61 20.46 31.61 20.34 31.61 20.21 31.59 20.07 31.58 19.94 31.57 19.79 31.56 19.65 31.54 19.5 31.52 19.34 31.5 19.19 31.47 19.04 31.45 18.9 31.41 18.76 31.37 18.64 31.33 18.51 31.28 18.4 31.23 18.3 31.17 18.2 31.12 18.12 31.06 18.05 31 17.99 30.94 17.95 30.88 17.92 30.84 17.9 30.81 17.9 30.78 17.89 30.74 17.89 30.68 17.9 30.62 17.93 30.57 17.95 30.53 17.99 30.5 18.04 30.47 18.1 30.46 18.16 30.45 18.24 30.45 18.26 30.45 18.3 30.46 18.34 30.48 18.38"/>
      <polygon class="cls-1" points="31.56 26.01 31.54 25.91 31.52 25.81 31.51 25.69 31.49 25.58 31.48 25.46 31.47 25.32 31.47 25.18 31.47 25.03 31.48 24.88 31.48 24.74 31.48 24.61 31.48 24.49 31.48 24.37 31.48 24.27 31.48 24.18 31.47 24.08 31.47 23.92 31.48 23.76 31.49 23.61 31.51 23.46 31.53 23.34 31.55 23.24 31.57 23.18 31.58 23.16 31.57 23.08 31.57 23.01 31.55 22.95 31.52 22.9 31.49 22.87 31.45 22.84 31.41 22.82 31.35 22.8 31.3 22.81 31.26 22.82 31.21 22.84 31.17 22.86 31.14 22.89 31.1 22.92 31.07 22.96 31.05 23.01 31.02 23.06 31 23.13 30.99 23.19 30.97 23.27 30.96 23.35 30.95 23.43 30.94 23.53 30.94 23.62 30.93 24.82 30.91 24.9 30.9 24.94 30.93 25.21 30.91 25.22 30.91 25.23 30.91 25.24 30.93 25.24 31.04 26.55 31.05 26.65 31.1 26.84 31.13 26.96 31.15 27.1 31.19 27.27 31.2 27.45 31.23 27.62 31.25 27.77 31.28 27.89 31.31 27.98 31.33 28.01 31.35 28.04 31.36 28.07 31.38 28.09 31.4 28.1 31.42 28.11 31.44 28.11 31.46 28.11 31.47 28.1 31.49 28.09 31.51 28.07 31.53 28.05 31.57 27.99 31.6 27.93 31.63 27.84 31.66 27.75 31.68 27.64 31.7 27.53 31.72 27.43 31.72 27.33 31.72 27.23 31.72 27.13 31.71 26.94 31.68 26.75 31.66 26.56 31.62 26.37 31.58 26.19 31.56 26.01"/>
      <polygon class="cls-1" points="29.38 18.21 29.41 18.26 29.8 18.83 29.84 18.94 29.89 19.11 29.96 19.32 30.02 19.57 30.05 19.71 30.08 19.84 30.11 19.98 30.12 20.12 30.14 20.26 30.15 20.4 30.16 20.54 30.17 20.67 30.17 20.93 30.17 21.15 30.15 21.34 30.13 21.49 29.91 22.91 29.81 24.6 29.84 25.84 30 27.53 30 27.6 30.01 27.73 30.03 27.84 30.05 27.96 30.07 28.05 30.09 28.14 30.12 28.21 30.14 28.28 30.17 28.33 30.19 28.38 30.22 28.42 30.24 28.45 30.27 28.47 30.29 28.48 30.33 28.49 30.35 28.48 30.38 28.47 30.41 28.46 30.44 28.43 30.46 28.4 30.49 28.36 30.51 28.32 30.54 28.27 30.55 28.22 30.57 28.15 30.61 28.02 30.64 27.87 30.67 27.7 30.67 27.53 30.65 27.35 30.49 25.46 30.49 25.29 30.52 23.53 30.76 21.51 30.76 21.44 30.77 21.36 30.77 21.28 30.78 21.19 30.78 21.07 30.77 20.88 30.76 20.63 30.74 20.31 30.73 20.14 30.72 19.98 30.7 19.83 30.68 19.69 30.67 19.56 30.64 19.44 30.62 19.34 30.6 19.24 30.57 19.15 30.54 19.06 30.49 18.95 30.45 18.84 30.34 18.6 30.22 18.34 30.15 18.21 30.08 18.1 30.01 18 29.94 17.93 29.91 17.89 29.86 17.86 29.82 17.83 29.79 17.81 29.75 17.79 29.71 17.78 29.68 17.77 29.63 17.77 29.6 17.77 29.56 17.78 29.53 17.78 29.5 17.8 29.47 17.81 29.45 17.84 29.44 17.86 29.42 17.89 29.39 17.95 29.37 18 29.37 18.03 29.36 18.07 29.36 18.12 29.36 18.16 29.38 18.21"/>
      <polygon class="cls-1" points="29.15 20.66 29.14 20.75 29.13 20.82 29.12 20.88 29.1 20.92 29.08 20.99 29.05 21.06 29.02 21.13 29 21.19 28.77 21.67 28.74 21.75 28.73 21.83 28.71 21.9 28.71 21.96 28.71 22.03 28.72 22.09 28.74 22.14 28.77 22.18 28.79 22.19 28.81 22.21 28.82 22.22 28.85 22.23 28.9 22.23 28.95 22.23 28.98 22.23 29.01 22.22 29.04 22.22 29.07 22.2 29.13 22.16 29.2 22.1 29.26 22.02 29.32 21.93 29.39 21.83 29.45 21.7 29.51 21.56 29.57 21.43 29.62 21.28 29.66 21.13 29.7 20.97 29.72 20.81 29.74 20.64 29.75 20.48 29.75 20.39 29.74 20.28 29.73 20.15 29.71 20 29.7 19.85 29.68 19.73 29.66 19.63 29.65 19.55 29.62 19.47 29.57 19.36 29.5 19.21 29.42 19.02 29.37 18.92 29.32 18.84 29.27 18.77 29.22 18.71 29.16 18.66 29.12 18.62 29.06 18.6 29 18.59 28.97 18.59 28.94 18.59 28.9 18.6 28.87 18.61 28.85 18.62 28.82 18.64 28.8 18.66 28.78 18.68 28.76 18.7 28.75 18.73 28.74 18.76 28.73 18.8 28.71 18.87 28.71 18.96 28.71 19.01 28.72 19.06 28.73 19.11 28.75 19.16 29.12 19.73 29.13 19.81 29.14 19.91 29.15 20.04 29.16 20.18 29.16 20.45 29.15 20.66"/>
      <path class="cls-1" d="M32.44,23.35l.07.03.08.02.08.02h.08s.09.01.09.01h.09s.08-.02.08-.02h.08s.08-.03.08-.03l.07-.03.07-.03.07-.04.07-.03.06-.05.05-.05.05-.06.04-.07.04-.08.02-.08.03-.09v-.1s.04-.19.04-.19l.02-.17v-.14s.02-.12.02-.12v-.37l-.07-.8v-.19s-.02-.18-.02-.18v-.15s-.03-.13-.03-.13l-.02-.11-.02-.09-.02-.07-.02-.05-.03-.04-.02-.03-.02-.03-.02-.02-.03-.02h-.03s-.02-.02-.02-.02h-.07s-.04.02-.04.02l-.03.02-.04.02-.03.02-.03.02-.02.03-.02.04-.04.06-.02.04-.02.04v.08s.02.06.02.06v.04s.01.07.01.07v.09s.02.11.02.11v.11s.03.1.03.1v.09s.01.06.01.06v.06s.01.07.01.07v.07s.02.07.02.07l-.73.07v-.25l.03-.49v-.14s-.02-.12-.02-.12v-.05s-.02-.05-.02-.05l-.02-.04-.02-.04-.02-.03-.02-.02-.02-.03-.03-.02-.02-.02h-.03s-.03-.01-.03-.01h-.03s-.07,0-.07,0l-.06.02h-.03s-.02.03-.02.03l-.02.03-.02.02-.04.06-.02.07-.03.07v.09s-.03.1-.03.1v.1s-.02.13-.02.13v.27s0,.11,0,.11v.17s0,.06,0,.06v.11s.01.05.01.05v.5s.01.14.01.14v.14s.02.13.02.13v.12s.03.11.03.11l.03.11.03.1.02.09.03.08.03.07.04.07.04.06.03.05.05.05.06.06.06.05.07.04ZM32.52,21.86h0s.01-.02.01-.02l.7-.03v.51s-.03.09-.03.09v.04s-.02.03-.02.03l-.02.04-.02.03-.02.03-.03.02-.02.02h-.02s-.03.03-.03.03h-.03s-.04.01-.04.01h-.07s-.04,0-.04,0h-.03s-.04-.02-.04-.02l-.03-.02-.03-.03-.02-.03-.03-.04-.02-.04-.02-.04-.02-.04v-.05s-.03-.06-.03-.06v-.05s-.02-.06-.02-.06v-.06s0-.11,0-.11v-.08s0-.06,0-.06v-.02h-.01Z"/>
      <polygon class="cls-1" points="34.95 46.48 34.35 46.34 33.75 46.19 33.12 46.03 32.49 45.87 31.86 45.71 31.25 45.55 30.64 45.38 30.06 45.2 29.51 45.04 29 44.87 28.76 44.79 28.53 44.71 28.32 44.63 28.11 44.56 27.93 44.48 27.76 44.4 27.61 44.33 27.47 44.26 27.29 44.16 27.09 44.07 26.88 44 26.67 43.93 26.46 43.87 26.24 43.81 26.01 43.78 25.77 43.75 25.54 43.72 25.3 43.71 25.05 43.69 24.8 43.69 24.55 43.69 24.29 43.71 24.04 43.72 23.78 43.74 23.52 43.76 23.26 43.79 23 43.83 22.75 43.87 22.49 43.91 22.24 43.95 21.99 44 21.74 44.05 21.25 44.16 20.78 44.27 20.33 44.38 19.9 44.5 19.63 44.58 19.36 44.67 19.09 44.76 18.83 44.85 18.57 44.96 18.31 45.06 18.07 45.17 17.83 45.27 18.11 45.45 18.4 45.62 18.7 45.78 19 45.95 19.3 46.11 19.6 46.26 19.9 46.4 20.21 46.55 20.52 46.69 20.84 46.82 21.16 46.94 21.47 47.07 21.8 47.18 22.12 47.29 22.45 47.39 22.78 47.49 23.11 47.59 23.45 47.68 23.78 47.76 24.12 47.84 24.46 47.9 24.8 47.98 25.14 48.03 25.49 48.08 25.84 48.13 26.19 48.17 26.55 48.2 26.9 48.23 27.25 48.26 27.61 48.27 27.96 48.28 28.33 48.28 28.58 48.28 28.84 48.28 29.09 48.27 29.34 48.26 29.6 48.24 29.85 48.23 30.1 48.21 30.35 48.18 30.6 48.15 30.84 48.13 31.09 48.09 31.34 48.05 31.58 48.02 31.83 47.98 32.07 47.93 32.32 47.88 32.79 47.78 33.27 47.66 33.74 47.53 34.21 47.39 34.67 47.25 35.13 47.08 35.58 46.91 36.03 46.73 35.5 46.61 34.95 46.48"/>
      <polygon class="cls-1" points="31.19 30.81 31.16 30.62 31.12 30.44 31.09 30.27 31.04 30.11 30.99 29.96 30.94 29.82 30.88 29.69 30.82 29.57 30.76 29.46 30.69 29.35 30.62 29.26 30.55 29.17 30.47 29.09 30.4 29.01 30.33 28.94 30.25 28.88 30.18 28.83 30.04 28.73 29.91 28.66 29.78 28.6 29.68 28.55 29.67 28.55 29.66 28.55 29.63 28.52 29.6 28.49 29.55 28.46 29.5 28.45 29.47 28.44 29.43 28.43 29.4 28.43 29.36 28.43 29.33 28.43 29.29 28.45 29.26 28.46 29.22 28.47 29.19 28.49 29.16 28.51 29.13 28.53 29.11 28.56 29.08 28.59 29.07 28.62 29.05 28.65 29.03 28.68 29.02 28.75 29 28.8 29 28.85 29 28.89 29 28.94 29.02 28.98 29.03 29.01 29.05 29.04 29.08 29.07 29.12 29.09 29.15 29.12 29.19 29.14 29.28 29.18 29.38 29.24 29.47 29.27 29.59 29.34 29.65 29.36 29.71 29.41 29.77 29.45 29.84 29.5 29.91 29.56 29.97 29.62 30.04 29.69 30.11 29.77 30.17 29.86 30.23 29.96 30.29 30.06 30.35 30.18 30.2 30.27 30.03 30.38 29.85 30.52 29.65 30.67 29.55 30.75 29.46 30.83 29.37 30.93 29.28 31.02 29.2 31.12 29.13 31.22 29.06 31.33 29 31.43 29 31.44 28.97 31.52 28.94 31.6 28.91 31.69 28.89 31.78 28.84 31.98 28.81 32.19 28.79 32.41 28.77 32.63 28.75 32.86 28.74 33.08 28.74 33.49 28.75 33.82 28.76 34.05 28.76 34.14 28.77 34.17 28.77 34.21 28.79 34.25 28.81 34.28 28.82 34.31 28.84 34.34 28.87 34.37 28.89 34.4 28.92 34.41 28.95 34.43 28.98 34.45 29.02 34.46 29.05 34.47 29.08 34.48 29.12 34.49 29.16 34.49 29.2 34.48 29.24 34.47 29.27 34.46 29.3 34.44 29.34 34.42 29.37 34.41 29.39 34.38 29.42 34.36 29.44 34.33 29.46 34.3 29.48 34.27 29.49 34.23 29.5 34.2 29.51 34.16 29.51 34.13 29.51 34.09 29.5 34.01 29.5 33.81 29.49 33.5 29.49 33.15 29.49 32.96 29.5 32.76 29.51 32.56 29.54 32.38 29.56 32.19 29.59 32.03 29.61 31.95 29.63 31.88 29.65 31.82 29.68 31.76 29.71 31.69 29.75 31.64 29.79 31.58 29.84 31.52 29.94 31.4 30.06 31.3 30.18 31.2 30.31 31.1 30.43 31.01 30.55 30.94 30.57 31.08 30.58 31.25 30.59 31.41 30.59 31.59 30.58 31.77 30.57 31.97 30.55 32.18 30.52 32.4 30.52 32.4 30.52 32.41 30.48 32.66 30.44 32.9 30.4 33.13 30.36 33.37 30.31 33.59 30.26 33.81 30.21 34.02 30.15 34.23 30.04 34.63 29.92 35 29.81 35.35 29.69 35.67 29.57 35.96 29.46 36.23 29.35 36.47 29.25 36.69 29.16 36.87 29.08 37.03 29 37.15 28.95 37.26 28.9 37.34 28.87 37.42 28.84 37.49 28.82 37.56 28.82 37.6 28.82 37.62 28.84 37.66 28.85 37.69 28.86 37.72 28.89 37.76 28.92 37.79 28.95 37.83 28.98 37.86 29.02 37.89 29.05 37.91 29.08 37.93 29.12 37.95 29.15 37.95 29.18 37.96 29.22 37.97 29.25 37.96 29.29 37.95 29.32 37.94 29.36 37.93 29.39 37.91 29.42 37.88 29.45 37.85 29.49 37.82 29.53 37.77 29.56 37.73 29.58 37.67 29.6 37.62 29.6 37.62 29.6 37.62 29.6 37.6 29.6 37.56 29.61 37.51 29.63 37.45 29.68 37.29 29.75 37.09 29.83 36.85 29.94 36.57 30.05 36.26 30.17 35.91 30.29 35.54 30.43 35.15 30.56 34.73 30.69 34.3 30.82 33.86 30.94 33.41 30.99 33.18 31.04 32.96 31.09 32.73 31.14 32.5 31.17 32.21 31.2 31.95 31.21 31.69 31.21 31.45 31.21 31.23 31.2 31.01 31.19 30.81"/>
      <polygon class="cls-1" points="29.5 24.92 29.68 23.23 29.67 23.16 29.66 23.1 29.64 23.05 29.61 23 29.59 22.97 29.55 22.95 29.51 22.93 29.48 22.93 29.43 22.94 29.39 22.95 29.36 22.96 29.32 22.98 29.29 23 29.26 23.03 29.24 23.05 29.21 23.08 29.2 23.12 29.18 23.16 29.16 23.22 29.14 23.29 29.1 23.46 29.07 23.67 28.89 24.97 28.87 26.01 28.89 26.36 28.88 26.49 28.87 26.63 28.87 26.76 28.88 26.88 28.89 27.01 28.9 27.12 28.92 27.24 28.94 27.34 28.97 27.45 28.99 27.54 29.02 27.64 29.05 27.71 29.08 27.79 29.12 27.85 29.15 27.91 29.19 27.95 29.23 27.98 29.26 28.01 29.29 28.01 29.33 28.01 29.36 28 29.39 27.97 29.42 27.93 29.44 27.87 29.47 27.8 29.49 27.71 29.5 27.61 29.51 27.49 29.52 27.35 29.53 27.2 29.53 27.02 29.52 26.83 29.5 26.31 29.48 26.16 29.47 26.05 29.47 25.96 29.48 25.91 29.5 24.92"/>
      <polygon class="cls-1" points="28.09 33.72 28.05 33.59 28.01 33.46 27.91 33.13 27.78 32.74 27.75 32.7 27.73 32.65 27.71 32.6 27.68 32.56 27.64 32.51 27.61 32.47 27.57 32.44 27.52 32.4 27.48 32.36 27.42 32.33 27.37 32.29 27.31 32.25 27.19 32.2 27.04 32.14 26.89 32.09 26.72 32.05 26.54 32.01 26.34 31.97 26.13 31.95 25.91 31.92 25.67 31.9 25.43 31.89 25.43 31.85 25.4 31.78 25.37 31.72 25.33 31.67 25.3 31.62 25.26 31.57 25.23 31.53 25.19 31.5 25.16 31.48 25.12 31.45 25.09 31.44 25.05 31.43 25.01 31.43 24.97 31.43 24.94 31.43 24.9 31.45 24.86 31.46 24.86 31.55 24.83 31.64 24.79 31.72 24.74 31.78 24.69 31.84 24.64 31.88 24.58 31.91 24.55 31.92 24.52 31.93 24.49 31.93 24.46 31.93 24.23 31.94 24.01 31.96 23.81 31.98 23.62 32.01 23.44 32.04 23.27 32.08 23.11 32.13 22.98 32.18 22.84 32.24 22.73 32.3 22.62 32.38 22.52 32.45 22.48 32.5 22.44 32.54 22.41 32.59 22.37 32.63 22.34 32.68 22.31 32.73 22.29 32.77 22.26 32.82 22.24 32.89 22.21 32.94 22.18 32.97 22.16 33 22.12 33.06 22.08 33.11 22.06 33.15 22.04 33.19 22.02 33.25 22 33.33 21.99 33.42 21.97 33.54 21.96 33.68 21.94 33.86 21.91 34.19 21.89 34.49 21.89 34.77 21.89 35.01 21.91 35.21 21.92 35.39 21.94 35.46 21.96 35.53 21.97 35.59 21.99 35.64 22.03 35.66 22.07 35.67 22.12 35.68 22.15 35.68 22.18 35.67 22.22 35.66 22.25 35.64 22.28 35.62 22.3 35.59 22.32 35.55 22.34 35.51 22.36 35.46 22.37 35.41 22.39 35.35 22.39 35.29 22.4 35.22 22.41 34.8 22.42 34.47 22.42 34.34 22.43 34.21 22.44 34.1 22.46 34 22.47 33.89 22.49 33.79 22.52 33.69 22.55 33.6 22.62 33.36 22.72 33.08 22.74 33.04 22.76 33 22.79 32.96 22.82 32.92 22.85 32.88 22.89 32.85 22.93 32.81 22.98 32.78 23.07 32.72 23.19 32.67 23.32 32.62 23.46 32.58 23.62 32.54 23.8 32.51 23.98 32.49 24.18 32.47 24.39 32.45 24.62 32.44 24.86 32.44 25.12 32.44 25.17 32.44 25.22 32.44 25.41 32.44 25.6 32.44 25.77 32.44 25.94 32.45 26.1 32.47 26.24 32.49 26.39 32.51 26.51 32.55 26.63 32.59 26.74 32.63 26.84 32.69 26.93 32.75 27.02 32.81 27.09 32.88 27.16 32.96 27.21 33.04 27.25 33.1 27.29 33.17 27.32 33.25 27.36 33.34 27.39 33.43 27.42 33.55 27.45 33.66 27.48 33.78 27.54 34.05 27.59 34.36 27.63 34.71 27.67 34.99 27.66 34.92 27.64 34.75 27.63 34.55 27.61 34.35 27.6 34.19 27.6 34.09 27.6 34.08 27.64 34.33 27.68 34.55 27.71 34.75 27.74 34.93 27.78 35.09 27.8 35.23 27.83 35.35 27.85 35.44 27.87 35.48 27.89 35.52 27.91 35.54 27.94 35.57 27.96 35.59 27.99 35.6 28.02 35.61 28.06 35.61 28.1 35.6 28.13 35.58 28.16 35.56 28.17 35.54 28.2 35.51 28.21 35.48 28.21 35.44 28.21 35.4 28.21 34.92 28.2 34.54 28.2 34.38 28.18 34.23 28.16 34.1 28.15 33.98 28.12 33.84 28.09 33.72"/>
      <polygon class="cls-1" points="21.85 30.08 21.87 30.28 21.88 30.49 21.91 30.7 21.94 30.81 21.97 30.92 22.01 31.02 22.04 31.11 22.08 31.2 22.12 31.28 22.16 31.35 22.2 31.42 22.25 31.48 22.29 31.54 22.33 31.58 22.37 31.63 22.42 31.66 22.47 31.69 22.52 31.71 22.57 31.72 22.72 31.73 22.86 31.73 22.99 31.73 23.11 31.74 23.23 31.76 23.35 31.77 23.45 31.78 23.54 31.81 23.62 31.78 23.68 31.75 23.72 31.73 23.73 31.71 23.75 31.69 23.77 31.67 23.78 31.64 23.79 31.61 23.79 31.59 23.79 31.56 23.78 31.53 23.78 31.5 23.76 31.46 23.75 31.42 23.65 31.39 23.56 31.37 23.46 31.35 23.36 31.33 23.26 31.31 23.15 31.31 23.04 31.3 22.93 31.29 22.88 31.28 22.83 31.26 22.78 31.24 22.74 31.21 22.7 31.18 22.67 31.15 22.63 31.12 22.6 31.08 22.57 31.05 22.53 31 22.51 30.96 22.49 30.91 22.47 30.87 22.45 30.81 22.43 30.75 22.42 30.7 22.39 30.66 22.38 30.61 22.37 30.58 22.37 30.53 22.45 30.56 22.54 30.59 22.65 30.62 22.78 30.65 22.9 30.68 23.05 30.7 23.21 30.73 23.39 30.74 23.45 30.73 23.49 30.7 23.51 30.69 23.52 30.68 23.53 30.66 23.54 30.64 23.54 30.61 23.55 30.59 23.54 30.56 23.54 30.53 23.52 30.47 23.49 30.4 23.35 30.35 23.25 30.3 23.17 30.28 23.14 30.27 22.98 30.26 22.83 30.22 22.72 30.19 22.61 30.16 22.52 30.12 22.45 30.08 22.42 30.05 22.4 30.03 22.38 30 22.37 29.98 22.37 29.85 22.38 29.72 22.39 29.6 22.42 29.47 22.55 29.53 22.68 29.58 22.82 29.63 22.97 29.67 23.11 29.71 23.27 29.73 23.42 29.76 23.59 29.77 23.62 29.72 23.63 29.68 23.64 29.64 23.64 29.6 23.64 29.55 23.63 29.51 23.62 29.47 23.59 29.43 23.47 29.35 23.36 29.3 23.31 29.28 23.26 29.27 23.22 29.25 23.19 29.25 23.06 29.22 22.95 29.18 22.84 29.14 22.74 29.09 22.67 29.03 22.59 28.97 22.52 28.9 22.47 28.83 22.45 28.73 22.43 28.63 22.4 28.55 22.36 28.47 22.32 28.42 22.28 28.36 22.22 28.31 22.16 28.28 22.13 28.3 22.1 28.31 22.07 28.35 22.05 28.38 22.02 28.41 22 28.45 21.98 28.49 21.96 28.54 21.92 28.66 21.89 28.78 21.87 28.93 21.86 29.09 21.84 29.28 21.84 29.47 21.84 29.67 21.84 29.87 21.85 30.08"/>
      <path class="cls-1" d="M48.05,30.99l.06-.52.05-.51.03-.52.02-.52v-.53s-.02-1.02-.02-1.02l-.07-1.01-.13-.99-.17-.98-.22-.96-.27-.95-.31-.92-.36-.9-.4-.89-.44-.86-.48-.84-.52-.8-.55-.78-.59-.76-.63-.72-.66-.69-.69-.66-.72-.63-.75-.59-.78-.55-.8-.52-.84-.48-.86-.44-.89-.4-.9-.36-.92-.31-.95-.27-.96-.22-.98-.17-.99-.13-1.01-.08-1.02-.02-1.03.02-1.01.08-.99.13-.98.17-.96.22-.95.27-.92.31-.9.36-.89.4-.86.44-.84.48-.8.52-.78.55-.75.59-.72.63-.69.66-.66.69-.63.72-.59.76-.56.78-.52.8-.48.84-.44.86-.4.89-.36.9-.31.92-.27.95-.22.96-.17.98-.13.99-.07,1.01-.03,1.02v.53s.03.52.03.52l.03.52.05.52.06.51.07.51.09.5.1.5.11.5.12.49.13.49.15.48.16.48.17.47.19.47.19.46.21.45.22.45.23.44.23.44.26.43.26.42.26.42.28.41.29.4.3.4.31.38.32.38.32.37.34.36.34.35.35.34.33-.11.35-.11.38-.11.41-.11.43-.11.46-.1.23-.05.24-.04.25-.05.25-.03.25-.04.26-.03.26-.03.27-.02.27-.02.27-.02h.28s.28-.02.28-.02h.28s.28,0,.28,0h.28s.28.03.28.03l.28.02.29.02.29.04.29.04.44.07.43.08.44.08.43.08.87.17.87.18.87.18.86.17.85.17.85.17.42.08.41.08.41.07.42.07.41.06.4.05.4.05.4.05.4.04.38.04.38.02.38.02h.37s.37,0,.37,0h.37s.35-.02.35-.02l.33-.02.34-.03.37-.04.38-.05.39-.05.4-.06.42-.07.42-.07.43-.08.43-.08.44-.08.44-.09.44-.09.44-.09.44-.1.43-.09.35-.34.34-.35.34-.37.33-.37.31-.38.31-.38.3-.39.29-.4.28-.41.27-.41.26-.43.25-.43.24-.43.23-.45.21-.44.21-.46.2-.46.18-.46.17-.48.16-.48.15-.48.14-.48.12-.49.11-.49.1-.5.09-.5.07-.51ZM19.02,14.68h4.53v2.8h2.32v-2.8h5.02v2.8h2.32v-2.8h4.41v16.24s-.05.47-.05.47l-.06.47-.08.45-.11.45-.12.44-.15.43-.17.42-.19.41-.2.4-.22.39-.25.38-.26.36-.27.35-.3.34-.31.32-.32.31-.34.3-.12.1v-.03s.02-.03.02-.03v-.03s.01-.03.01-.03v-.03l-.02-.07-.03-.07-.04-.08-.05-.08-.05-.1-.07-.13-.08-.16-.1-.19-.1-.21-.11-.25-.12-.27-.12-.3-.12-.32-.12-.35-.12-.37-.12-.4-.06-.21-.05-.22-.05-.22-.05-.23-.04-.24-.04-.23-.04-.25-.04-.25h0s-.03-.25-.03-.25l-.02-.22v-.21s-.01-.2-.01-.2v-.36s.02-.17.02-.17l.03-.15.12.07.14.09.16.11.15.12.08.06.07.07.07.07.07.07.06.07.05.08.05.07.04.07.02.06.03.06.02.07.02.07.03.17.03.18.02.19v.19s.02.2.02.2v.85s-.01.2-.01.2v.08s0,.04,0,.04v.07s.02.03.02.03v.04s.03.03.03.03l.02.03.03.02.02.02.03.03.03.02.03.02.03.02h.04s.04.02.04.02h.04s.04,0,.04,0h.04s.04-.01.04-.01h.03s.04-.02.04-.02l.03-.02.03-.02.02-.02.02-.02.02-.03.02-.03.02-.03.02-.03v-.04s.02-.04.02-.04v-.03s0-.09,0-.09v-.23s.02-.33.02-.33v-.63s-.02-.22-.02-.22l-.02-.22-.02-.22-.03-.21-.04-.19-.02-.09-.03-.09-.03-.08-.03-.08h0s-.06-.12-.06-.12l-.07-.11-.08-.11-.09-.1-.09-.1-.1-.1-.1-.08-.11-.09-.2-.16-.19-.13-.17-.11-.14-.08h0s-.03-.01-.03-.01l-.02-.02-.02-.02-.03-.02.06-.1.06-.09.06-.09.06-.07.07-.07.06-.07.07-.05.06-.05.13-.08.12-.07.11-.05.09-.03.1-.04.1-.04.04-.02.03-.02.03-.02.02-.03.02-.03.02-.03v-.04s.02-.04.02-.04v-.1s-.02-.05-.02-.05l-.02-.06-.02-.04v-.03s-.04-.03-.04-.03l-.02-.03-.03-.02-.03-.02-.03-.02-.03-.02h-.03s-.03-.02-.03-.02h-.04s-.03-.01-.03-.01h-.11s-.04.02-.04.02h-.04s-.05.04-.05.04l-.04.03-.03.03h-.01l-.17.12-.17.13-.16.12-.15.14-.07.07-.08.08-.07.07-.07.09-.07.08-.06.1-.06.09-.06.1-.05.1-.05.11-.05.12-.04.13-.04.14-.03.14-.03.16-.03.16-.02.17-.02.18v.19s-.02.2-.02.2v.22s0,.22,0,.22v.24s.02.25.02.25l.12.52.12.5.13.47.13.44.12.43.12.39.12.36.12.35.1.31.11.29.09.25.09.23.07.2.07.17.06.14.04.11h.01s.01.06.01.06l.02.05.03.05.04.03.04.04.03.02.04.03.03.02.04.02h.03s.04.02.04.02h.07l-.27.19-.38.25-.39.22-.4.2-.41.19-.42.17-.43.15-.44.12-.45.1-.46.08-.46.06-.47.04h-.48s-.48,0-.48,0l-.47-.04-.47-.06-.45-.08-.45-.1-.44-.12-.43-.15-.42-.17-.42-.19-.4-.2-.39-.22-.38-.25-.37-.26-.35-.27-.34-.3-.32-.31-.31-.32-.29-.34-.28-.35-.26-.36-.24-.38-.23-.39-.21-.4-.18-.41-.17-.42-.15-.43-.13-.44-.1-.45-.09-.45-.06-.47-.04-.47v-.48s-.01-15.76-.01-15.76ZM39.34,30.82v.57s-.06.56-.06.56l-.07.55-.09.54-.12.53-.16.52-.17.51-.2.5-.22.49-.24.47-.27.46-.29.45-.31.43-.33.41-.34.4-.36.39-.38.36-.4.34-.42.33-.43.31-.44.28-.47.27-.47.24-.49.22-.5.2-.52.17-.52.15-.53.12-.54.1-.55.07-.56.04-.56.02-.57-.02-.55-.04-.55-.07-.54-.1-.53-.12-.52-.15-.51-.17-.5-.2-.49-.22-.48-.24-.46-.27-.45-.28-.43-.31-.41-.33-.4-.34-.38-.36-.37-.39-.34-.4-.33-.41-.31-.43-.29-.45-.27-.46-.24-.47-.22-.49-.2-.5-.17-.51-.15-.52-.12-.53-.1-.54-.07-.55-.04-.56-.02-.57v-15.9h.86v16.24s.06.51.06.51l.06.51.09.5.11.49.14.48.16.48.18.46.2.45.22.44.25.43.27.41.28.4.3.39.32.37.33.35.35.34.37.32.38.3.4.28.42.26.42.25.44.22.45.21.46.18.47.16.48.13.49.12.5.09.51.07.51.04h.53s.52,0,.52,0l.51-.04.51-.07.5-.09.49-.12.48-.13.48-.16.46-.18.45-.21.44-.22.43-.25.41-.26.39-.28.38-.3.37-.32.35-.34.34-.35.31-.37.31-.39.28-.4.26-.41.25-.43.22-.44.21-.45.18-.46.16-.48.14-.48.12-.49.08-.5.07-.51.03-.51v-.52s.01-15.72.01-15.72h.86v15.9Z"/>
      <polygon class="cls-1" points="21.91 23.26 21.92 23.5 21.93 23.6 21.93 23.63 21.94 23.67 21.95 23.71 21.97 23.74 21.99 23.78 22 23.8 22.03 23.83 22.05 23.86 22.08 23.88 22.11 23.9 22.14 23.92 22.18 23.93 22.21 23.94 22.25 23.95 22.28 23.95 22.32 23.95 22.36 23.95 22.4 23.94 22.43 23.93 22.47 23.91 22.5 23.89 22.53 23.87 22.55 23.85 22.58 23.82 22.6 23.8 22.62 23.77 22.64 23.74 22.65 23.7 22.67 23.67 22.67 23.63 22.68 23.6 22.68 23.55 22.67 23.47 22.66 23.25 22.64 22.92 22.63 22.54 22.63 22.14 22.64 21.76 22.64 21.6 22.66 21.44 22.68 21.32 22.7 21.23 22.73 21.15 22.74 21.07 22.76 21 22.78 20.93 22.8 20.83 22.83 20.74 22.84 20.7 22.87 20.66 22.9 20.62 22.93 20.58 22.98 20.54 23.02 20.51 23.08 20.48 23.15 20.45 23.23 20.42 23.32 20.41 23.42 20.39 23.54 20.37 23.54 20.37 23.64 20.36 23.75 20.36 23.89 20.35 24.03 20.34 24.15 20.33 24.27 20.33 24.39 20.32 24.51 20.32 24.51 20.58 24.51 20.83 24.51 21.07 24.5 21.28 24.49 21.46 24.49 21.61 24.48 21.72 24.47 21.77 21.96 27.47 21.95 27.5 21.94 27.54 21.93 27.58 21.93 27.62 21.93 27.65 21.94 27.69 21.94 27.72 21.96 27.76 21.97 27.79 21.99 27.82 22 27.85 22.03 27.88 22.05 27.9 22.08 27.93 22.12 27.95 22.15 27.96 22.18 27.97 22.22 27.99 22.26 27.99 22.29 27.99 22.33 27.99 22.37 27.99 22.4 27.98 22.44 27.97 22.47 27.96 22.5 27.94 22.53 27.91 22.55 27.9 22.58 27.86 22.6 27.84 22.63 27.81 22.64 27.77 24.9 22.66 25.02 22.92 25.15 23.19 25.27 23.45 25.39 23.72 25.51 23.98 25.63 24.25 25.74 24.52 25.86 24.78 26.01 25.15 26.16 25.52 26.31 25.88 26.46 26.25 26.6 26.61 26.74 26.97 26.88 27.34 27.02 27.7 27.03 27.74 27.05 27.77 27.07 27.8 27.09 27.83 27.12 27.86 27.15 27.88 27.18 27.9 27.21 27.91 27.24 27.93 27.28 27.94 27.31 27.95 27.35 27.95 27.39 27.95 27.42 27.95 27.46 27.94 27.49 27.93 27.53 27.91 27.56 27.89 27.59 27.87 27.62 27.84 27.64 27.82 27.67 27.79 27.69 27.76 27.7 27.73 27.72 27.7 27.73 27.67 27.73 27.63 27.74 27.59 27.74 27.56 27.73 27.52 27.73 27.48 27.71 27.44 27.57 27.08 27.43 26.7 27.29 26.33 27.14 25.96 27 25.59 26.85 25.22 26.7 24.85 26.55 24.49 26.39 24.13 26.23 23.77 26.07 23.4 25.9 23.05 25.73 22.69 25.56 22.33 25.39 21.97 25.21 21.62 25.22 21.49 25.22 21.34 25.23 21.18 25.23 21.02 25.23 20.84 25.24 20.67 25.24 20.49 25.24 20.31 25.48 20.31 25.7 20.31 25.91 20.32 26.09 20.33 26.26 20.35 26.4 20.36 26.5 20.37 26.57 20.4 26.61 20.41 26.65 20.43 26.68 20.46 26.72 20.5 26.76 20.54 26.79 20.58 26.82 20.62 26.85 20.68 26.88 20.73 26.91 20.8 26.93 20.87 26.96 20.94 26.98 21.02 27 21.1 27.02 21.2 27.03 21.3 27.03 21.41 27.04 21.52 27.04 21.64 27.04 21.78 27.03 22.2 27.03 22.57 27.03 22.89 27.04 23.15 27.06 23.35 27.07 23.5 27.08 23.6 27.09 23.62 27.09 23.66 27.1 23.7 27.12 23.73 27.13 23.77 27.16 23.8 27.17 23.82 27.2 23.85 27.23 23.87 27.26 23.89 27.29 23.91 27.32 23.92 27.36 23.94 27.39 23.94 27.43 23.95 27.47 23.95 27.51 23.95 27.55 23.94 27.58 23.93 27.61 23.91 27.64 23.9 27.68 23.87 27.71 23.86 27.73 23.83 27.75 23.8 27.78 23.77 27.79 23.74 27.8 23.71 27.82 23.67 27.82 23.64 27.82 23.6 27.83 23.56 27.82 23.53 27.82 23.5 27.81 23.41 27.8 23.28 27.79 23.09 27.78 22.85 27.77 22.56 27.78 22.21 27.78 21.8 27.79 21.62 27.78 21.45 27.78 21.3 27.75 21.15 27.74 21.01 27.71 20.88 27.68 20.75 27.64 20.64 27.61 20.53 27.56 20.43 27.52 20.34 27.47 20.25 27.42 20.17 27.37 20.11 27.31 20.04 27.26 19.97 27.21 19.93 27.16 19.89 27.1 19.84 27.05 19.81 27 19.78 26.95 19.75 26.9 19.73 26.85 19.7 26.75 19.67 26.61 19.65 26.45 19.62 26.24 19.6 26.02 19.59 25.78 19.58 25.51 19.57 25.24 19.56 25.24 19.37 25.23 19.19 25.23 19.03 25.23 18.89 25.23 18.77 25.23 18.69 25.23 18.64 25.23 18.61 25.23 18.58 25.22 18.54 25.21 18.5 25.2 18.47 25.18 18.44 25.16 18.41 25.14 18.38 25.11 18.35 25.09 18.33 25.06 18.31 25.02 18.29 25 18.28 24.96 18.26 24.93 18.26 24.89 18.25 24.85 18.25 24.81 18.26 24.77 18.26 24.74 18.27 24.7 18.28 24.67 18.3 24.64 18.32 24.61 18.34 24.59 18.37 24.56 18.39 24.54 18.42 24.53 18.45 24.51 18.49 24.49 18.52 24.49 18.55 24.48 18.6 24.48 18.63 24.48 18.65 24.48 18.71 24.49 18.8 24.49 18.91 24.49 19.04 24.49 19.2 24.49 19.38 24.5 19.58 24.36 19.58 24.23 19.58 24.11 19.59 23.99 19.59 23.88 19.6 23.75 19.61 23.62 19.62 23.47 19.63 23.47 19.63 23.46 19.63 23.25 19.66 23.07 19.69 22.98 19.72 22.9 19.74 22.83 19.76 22.76 19.78 22.69 19.81 22.63 19.84 22.57 19.87 22.52 19.91 22.47 19.94 22.43 19.97 22.39 20.01 22.35 20.05 22.29 20.12 22.23 20.21 22.19 20.3 22.15 20.39 22.12 20.48 22.09 20.57 22.07 20.67 22.05 20.77 22.03 20.83 22.02 20.88 22.01 20.94 21.99 20.99 21.96 21.11 21.94 21.26 21.92 21.44 21.91 21.63 21.9 21.84 21.89 22.06 21.89 22.28 21.89 22.49 21.9 22.92 21.91 23.26"/>
      <path class="cls-1" d="M27.78,28.36l-.04.02-.04.02-.03.02-.03.02-.03.02-.02.02-.03.02-.02.03-.04.07-.03.08-.02.09-.02.1-.07.05-.07.04-.07.03-.08.04-.18.07-.19.06h-.05s-.06.02-.06.02h-.05s-.06.04-.06.04l-.06.03-.06.04-.06.04-.06.05-.05.04-.03.04-.02.03v.05s0,.02,0,.02h.01s0,.02,0,.02h.02s.03.01.03.01h.02s.03,0,.03,0h.04s.17-.03.17-.03l.17-.02.16-.02.15-.02.14-.03.14-.03.12-.03.12-.04.02.04.02.05v.05s.01.06.01.06l.02.08v.07s.02.06.02.06v.05l-.03.02-.05.03-.07.04-.09.04-.07.06-.07.04-.06.03-.05.03-.06.04-.16.06-.13.05-.1.06-.07.04v-.04s.01-.04.01-.04v-.08s-.03-.04-.03-.04l-.02-.03-.03-.04-.04-.03-.05-.04-.05-.04-.15-.14-.14-.12-.14-.11-.13-.1-.12-.1-.12-.09-.11-.08-.11-.07h.05s.02-.01.02-.01h.01s.01-.02.01-.02v-.02s.01-.01.01-.01v-.02l.12-.09.1-.09.1-.09.07-.08.07-.08.05-.07.03-.07.02-.07v-.03s-.02-.04-.02-.04v-.02s-.02-.03-.02-.03l-.02-.02-.02-.02-.02-.02h-.02s-.03-.02-.03-.02h-.03s-.03,0-.03,0h-.1s-.09.04-.09.04l-.06.05-.13.12-.2.19-.27.27-.06-.02-.05-.04-.05-.05-.05-.05-.09-.04-.07-.04-.05-.02-.04-.02-.07-.03-.11-.06-.14-.09-.18-.12-.05-.02-.04-.02-.03-.02-.03-.02-.04.05-.03.06-.03.05-.02.05v.05s-.03.05-.03.05v.14s.03.04.03.04l.02.04.03.04.03.04.04.03.05.04.06.04.1.04.15.06.15.06.13.07.13.06-.07.09-.08.08-.07.07-.06.06-.07.06-.06.04-.06.04-.05.02-.04.04-.04.04-.05.05-.05.06-.1.14-.13.17-.04.03-.03.02-.02.03v.02s-.03.06-.03.06v.06s0,.02,0,.02v.02s.01.02.01.02v.02s.04.01.04.01h.02s.02,0,.02,0h.02s.03-.01.03-.01h.03s.02-.03.02-.03l.03-.02.09-.06.1-.08.12-.1.14-.11.11.07.12.09.14.1.15.12-.17.18-.15.17-.14.16-.12.14-.1.12-.09.1-.06.09-.05.07-.02.03-.02.02v.02s-.01.02-.01.02v.02s.01.02.01.02h.02s.02.02.02.02l.02.02h.01s.02.02.02.02h.08s.03-.02.03-.02l.04-.02.07-.04.08-.05.07-.05.08-.07.09-.08.09-.09.1-.1.1-.11.05-.04.05-.05.07-.07.07-.06.06-.05.05-.02.09.08.11.09.12.12.14.13.17.14.14.13.12.1.09.1.04.03.04.02.04.02h.04s.04.01.04.01h.04s.04-.02.04-.02l.04-.02.02-.03v-.03s.02-.03.02-.03v-.12s-.02-.04-.02-.04l-.02-.04-.04-.05-.06-.07-.09-.1-.11-.11-.14-.14-.15-.15-.18-.17-.21-.19.12-.11.12-.1.11-.09.11-.09.05.02.05.02.05.04.05.04.07.06.06.05.04.04.04.02.03.02.02.02h.03s.02.01.02.01h.02s.02,0,.02,0h.02s.03-.01.03-.01v.06s0,.05,0,.05v.02s.01.02.01.02v.02s.03.01.03.01h.02s.02.02.02.02h.02s.02.01.02.01h.13s.08-.01.08-.01h.09s.1-.03.1-.03l.11-.02.12-.04.13-.04.14-.05.15-.06v.17l-.02.13-.02.12-.03.09-.03.08-.02.03v.02s-.04.02-.04.02l-.02.02-.02.02h-.02s-.03.01-.03.01h-.02s-.11.03-.11.03l-.1.02-.11.03-.1.04-.09.04-.09.04-.09.05-.08.05-.02.04-.02.04-.02.04v.03s-.02.03-.02.03v.06s.02.02.02.02l.02.02h.02s.03.03.03.03h.03s.03.02.03.02h.04s.04.01.04.01h.05l.16-.02.15-.03.15-.04.13-.04.12-.05.11-.05.1-.06.08-.06.04-.04.03-.03.04-.04.03-.05.02-.03.03-.04.02-.05.02-.04.02-.05v-.04s.02-.06.02-.06v-.05s.01-.1.01-.1v-.12s0-.25,0-.25v-1.45l-.03-.14-.03-.12-.04-.1-.04-.09-.03-.04-.02-.04-.03-.02-.02-.02-.02-.02h-.03s-.03-.02-.03-.02l-.03-.02ZM25.4,29.96l-.1.07-.11.09-.12.1-.13-.1-.13-.09-.13-.07-.12-.07.06-.05.09-.08.09-.06.07-.06.05-.05.04-.05.12.07.13.08.13.09.12.1-.08.07Z"/>
      <path class="cls-1" d="M26.98,35.16l-.02-.03-.02-.02h-.03s-.02-.02-.02-.02h-.04s-.04-.01-.04-.01h-.03s-.03.03-.03.03l-.03.02-.03.04-.03.04-.02.05-.06.09-.06.08-.05.08-.07.08-.07.07-.07.08-.07.06-.08.06-.08.06-.09.05-.09.05-.09.05-.1.04-.1.04-.11.03-.1.02v-.07s.01-.15.01-.15v-.2s-.01-.22-.01-.22v-.23s-.02-.22-.02-.22v-.03s-.02,0-.02,0v-.27.12s.02.15.02.15h.1s.11-.04.11-.04l.11-.03.1-.03.09-.05.09-.05.08-.06.07-.07.06-.07.05-.08.05-.09.04-.09.03-.1.03-.11v-.12s.02-.12.02-.12v-.09s-.02-.08-.02-.08v-.04s-.03-.04-.03-.04l-.02-.04-.03-.03-.02-.04-.02-.03-.03-.03-.03-.03-.04-.03-.03-.02-.04-.03-.05-.02-.1-.04-.1-.04-.11-.03-.1-.02-.11-.02-.12-.02h-.12s-.12,0-.12,0h-.26s-.13.02-.13.02l-.14.02-.14.02-.15.03-.15.04-.15.04h-.04s-.04.02-.04.02l-.03.02-.03.02-.03.02-.02.03-.03.03-.02.03-.02.04-.02.04v.05s-.02.05-.02.05v.05s-.01.06-.01.06v.23s.03.1.03.1l.02.1.04.09.05.09.05.08.06.08.07.08.07.07.09.06.09.06.1.05.11.04.11.04.12.04.13.03v.23s.01.15.01.15v.16s.01.15.01.15v.15s.01.13.01.13v.1s-.11-.04-.11-.04l-.1-.04-.11-.05-.1-.05-.11-.06-.11-.06-.11-.07-.1-.08-.11-.08-.1-.09-.11-.09-.1-.1-.11-.1-.11-.1-.1-.11-.11-.11-.02-.03-.02-.02-.02-.02h-.02s-.02,0-.02,0h-.03s-.01.03-.01.03l-.02.02v.02s-.02.03-.02.03v.04s-.01.04-.01.04v.09s.01.05.01.05l.02.12.04.11.05.11.06.1.07.11.09.1.1.09.11.1.12.09.13.08.15.09.15.08.17.08.18.08.19.07.21.07-.03.21v.12s-.01.03-.01.03v.02s0,.01,0,.01h-.03s-.04,0-.04,0h-.03s-.04.04-.04.04l-.06.04-.06.06-.13.13-.13.16-.14.16-.15.19-.02.08v.07s0,.03,0,.03v.05s.02.02.02.02l.03.02.05.02.07.02h.07s.07.01.07.01h.12s.05-.02.05-.02l.3-.18.22-.13.09-.06.07-.05.05-.05.05-.05.04-.06.03-.07.02-.08.02-.09.04-.25.04-.35.17-.03.16-.05.16-.06.15-.05.13-.07.13-.07.12-.08.11-.09.1-.09.08-.1.08-.1.07-.11.05-.11.05-.13.04-.13.03-.14v-.05s0-.05,0-.05v-.04s-.02-.04-.02-.04ZM25.28,34.58h-.06s-.09.01-.09.01h-.17s-.07-.01-.07-.01h-.08s-.07-.02-.07-.02l-.07-.02-.06-.02-.06-.02-.05-.03-.05-.03-.05-.03-.05-.05-.03-.04-.04-.05-.03-.05v-.08s0-.07,0-.07v-.06s.04-.04.04-.04l.03-.05.04-.04.05-.02.06-.02.14-.04.14-.03.14-.02h.13s.13-.01.13-.01h.14s.13.03.13.03l.13.03.05.02.06.02.04.04.04.04.03.05.02.06v.08s.01.08.01.08v.05s-.02.05-.02.05l-.02.04-.02.04-.02.04-.03.03-.02.03-.04.03-.04.02-.04.02-.04.02-.05.02h-.05s-.05.03-.05.03h-.06Z"/>
      <polygon class="cls-1" points="27.68 35.08 27.67 34.99 27.67 35.05 27.68 35.08"/>
      <path class="cls-1" d="M28.35,0C12.72,0,0,12.72,0,28.35s12.72,28.35,28.35,28.35,28.35-12.72,28.35-28.35S43.98,0,28.35,0ZM28.35,55.58c-15.02,0-27.23-12.22-27.23-27.23S13.33,1.12,28.35,1.12s27.23,12.22,27.23,27.23-12.22,27.23-27.23,27.23Z"/>
    </g>
    <g>
      <path class="cls-2" d="M108.99,28.49c.28.23.51.46.78.64.14.1.34.14.51.15.34.01.69-.01,1.03-.04.31-.02.53-.24.57-.54.07-.58-.15-1.1-.4-1.61-.03-.06-.18-.11-.26-.1-.49.07-.95-.03-1.43-.08-.17-.02-.23-.07-.25-.25-.12-1.13-.25-2.27-.4-3.4-.02-.14-.09-.28-.16-.4-.26-.42-.54-.82-.62-1.32-.08-.46.1-.69.55-.74.44-.05.83.09,1.22.26.29.12.57.24.89.23.38,0,.68-.2.81-.57.13-.36.18-.74.12-1.11-.03-.2-.16-.4-.28-.58-.51-.75-1.04-1.49-1.56-2.24-.21-.31-.41-.63-.58-.96-.27-.51-.28-1.05-.16-1.6.07-.32.35-.54.68-.56.48-.02.93.11,1.33.34.49.28.97.59,1.45.9.65.43,1.27.88,1.92,1.3.26.17.53.3.76.52.51.5.78,1.1.74,1.81-.06,1.25-.13,2.51-.18,3.76-.03.73-.05,1.46-.05,2.19,0,.17.03.34.08.5.28.92.77.91,1.37.65.48-.21.9-.54,1.28-.9.08-.08.16-.16.24-.23.57-.48.79-1.16.98-1.84.1-.36.18-.73.25-1.1.03-.15.03-.32.02-.48-.01-.28-.04-.57-.06-.85-.07-1.51-.14-3.01-.22-4.52-.04-.91-.08-1.82-.14-2.74-.01-.2-.08-.4-.14-.59-.3-.87-.52-1.77-.67-2.68-.03-.18-.06-.35-.09-.52.57-.39,1.13-.48,1.78-.29.86.27,1.56.78,2.22,1.35.77.66,1.45,1.42,2.07,2.22.37.47.78.89,1.19,1.32.39.41.61.9.56,1.49-.03.4-.21.74-.45,1.05-.29.38-.64.71-1.05.97-.07.04-.12.13-.16.21-.19.4-.16.83-.1,1.25.04.27.31.47.64.46.28-.01.56-.07.83-.14.18-.04.33-.15.5-.21.19-.07.27-.22.31-.41.07-.35.14-.69.23-1.03.05-.17.15-.34.26-.48.17-.23.51-.24.71-.03.27.27.53.56.8.84.25.26.5.53.76.79.45.45.73,1,.88,1.6.15.61-.1,1.22-.76,1.56-.66.33-1.35.47-2.08.47-.29,0-.57,0-.86,0-.89.02-1.77.1-2.63.38-.38.13-.73.3-1.06.53-.32.23-.6.48-.79.83-.16.29-.26.6-.3.93-.03.27-.05.54-.08.82-.04.33-.06.66.06.98.08.22.22.35.45.34.24-.01.49-.03.7-.13.39-.19.74-.44,1.1-.67.13-.08.18-.19.2-.34.05-.53.36-.87.82-1.08.67-.31,1.37-.29,2.08-.25.15,0,.27.08.35.23.34.62.72,1.22,1.05,1.85.15.29.28.61.31.93.07.72-.16,1.02-.84,1.27-.56.21-1.16.23-1.76.15-.29-.04-.56-.02-.84.07-.95.31-1.88.69-2.78,1.1-1.03.47-2.06.96-3.09,1.44-.42.2-.88-.06-.93-.52-.05-.43.01-.85.16-1.25.14-.37.26-.76.46-1.1.32-.54-.09-1.18-.55-1.37-.43-.18-.86-.24-1.32-.21-.3.03-.61-.02-.9.15-.45.27-.8.61-1.02,1.1-.33.76-.34,1.56-.22,2.36.12.79.02,1.55-.17,2.3-.1.38-.24.77-.45,1.1-.5.8-1.26,1.17-2.21,1.08-.28-.03-.55-.12-.83-.18-.41-.09-.68-.35-.92-.66-.69-.9-1.28-1.86-1.84-2.84-.08-.13-.19-.25-.3-.36-.25-.26-.54-.5-.66-.86-.16-.48-.11-.92.17-1.33.11-.17.25-.32.36-.45Z"/>
      <path class="cls-2" d="M142.72,20.56c.73.28,1.4.54,2.07.77.26.09.48.22.69.38.56.42,1.19.63,1.9.65.99.02,1.88-.24,2.75-.69.81-.41,1.52-.96,2.22-1.52.13-.1.25-.23.36-.36.11-.12.08-.25.04-.39-.29-.92-.57-1.83-.85-2.75-.25-.83-.5-1.66-.76-2.49-.03-.11-.1-.23-.18-.31-.39-.41-.59-.9-.7-1.45-.22-1.05-.17-2.11-.12-3.17.02-.59.12-1.18.19-1.77.01-.1.05-.19.09-.3.54.03,1.06.08,1.57.21.64.16,1.28.33,1.87.64.52.27,1.01.59,1.45,1.01.93.89,1.44,1.99,1.64,3.23.08.51.18,1.05.03,1.57-.08.28-.22.55-.31.83-.26.78-.47,1.57-.43,2.41.01.38.1.72.29,1.04.05.09.16.18.26.19.62.09,1.12-.01,1.53-.65.33-.52.42-1.1.47-1.7,0-.11.02-.22.03-.37.17,0,.33,0,.48.03.61.08,1.22.16,1.83.24.41.06.82-.05,1.22-.11.52-.08,1.03-.05,1.53.06.24.06.47.23.68.38.12.08.18.22.18.39,0,.59-.1,1.14-.53,1.58-.34.35-.75.59-1.22.71-.52.14-1.04.26-1.58.22-.45-.04-.87.07-1.27.22-.85.33-1.71.65-2.53,1.03-.73.34-1.45.72-1.99,1.34-.14.16-.27.34-.34.54-.41,1.08-.77,2.17-1.2,3.24-.82,2.06-1.79,4.04-3.05,5.87-.4.57-.68,1.21-1.08,1.78-.31.43-.66.82-1.12,1.09-.54.31-1.12.39-1.75.28-.9-.17-1.6-.67-2.29-1.24-.42-.35-.78-.76-1.15-1.17-.21-.24-.47-.42-.71-.64-.36-.33-.66-.69-.79-1.17-.08-.31,0-.59.16-.85.21-.31.48-.54.81-.71.14-.08.28-.15.42-.23.25-.13.28-.12.46.09.34.39.67.8,1.04,1.17.34.35.75.63,1.21.81.44.18.89.21,1.32-.01.17-.08.31-.23.45-.36.28-.26.55-.54.83-.8,1.02-.93,1.82-2.01,2.33-3.3.3-.75.46-1.53.48-2.33,0-.09-.02-.17-.03-.3-.1.06-.17.08-.22.13-.44.36-.85.76-1.32,1.08-.5.34-1.06.55-1.68.63-.96.13-1.86-.05-2.71-.49-.54-.28-1.03-.62-1.49-1.02-.25-.22-.58-.34-.89-.5-.35-.18-.66-.41-.93-.69-.24-.26-.37-.58-.32-.94.01-.1.04-.2.1-.28.18-.26.37-.52.57-.79Z"/>
      <path class="cls-2" d="M178.07,28.29c.35.08.67.14.97.22.92.26,1.86.36,2.81.29.69-.05,1.35-.19,1.9-.66.35-.3.78-.46,1.21-.62.83-.32,1.7-.49,2.57-.66.73-.14,1.49-.2,2.23-.3.2-.03.4-.07.6-.11.29-.07.42-.3.53-.54.19-.43.28-.89.28-1.36,0-.6-.01-1.19-.02-1.79,0-.04-.02-.08-.04-.13-.16,0-.19.12-.25.22-.3.54-.64,1.05-1.06,1.51-.33.37-.71.68-1.18.85-.64.22-1.23.09-1.77-.31-.09-.07-.17-.15-.26-.22-.23-.17-.3-.41-.24-.67.07-.33.16-.67.3-.98.46-1,1.11-1.89,1.78-2.75.18-.24.49-.27.76-.36.52-.18,1.05-.29,1.6-.34.74-.07,1.44,0,2.06.44.33.23.59.53.78.89.47.9.58,1.87.53,2.86-.03.61-.13,1.22-.2,1.83,0,.06-.01.11-.02.2.5.1.98.2,1.47.29.73.13,1.46.22,2.16.49.34.13.65.3.92.58.33.35.38.76.26,1.17-.1.37-.3.71-.58.99-.23-.05-.45-.1-.67-.15-.47-.11-.94-.09-1.42-.01-.98.16-1.79.62-2.52,1.27-.14.13-.28.27-.42.39-.13.11-.16.23-.09.39.28.68.23,1.39.15,2.1-.16,1.32-.5,2.6-.94,3.85-.29.81-.85,1.35-1.69,1.6-.6.18-1.21.28-1.82.22-.66-.07-1.32-.23-1.98-.37-.29-.06-.57-.16-.85-.25-.37-.12-.7-.26-.98-.56-.23-.25-.58-.39-.89-.56-.17-.09-.36-.14-.53-.23-.31-.15-.57-.38-.76-.67-.35-.5-.23-.99.18-1.38.24-.23.53-.39.8-.6.16.11.31.19.44.3.83.69,1.73,1.26,2.73,1.64.6.23,1.23.34,1.87.14.39-.12.66-.39.88-.72.11-.17.22-.35.36-.49.39-.38.51-.85.54-1.36.02-.47-.04-.94-.2-1.38-.18-.49-.38-.97-.59-1.45-.1-.23-.14-.2-.34-.05-.31.23-.62.46-.97.63-1.14.58-2.33,1.01-3.54,1.41-.51.17-1.02.33-1.53.47-.75.21-1.47.07-2.15-.28-.78-.41-1.41-.99-1.98-1.66-.44-.52-.8-1.08-1.11-1.68-.17-.33-.22-.7-.21-1.06,0-.17.09-.34.14-.52Z"/>
      <path class="cls-2" d="M194.75,5.29c.11-.08.22-.14.32-.22.64-.48,1.28-.96,2.07-1.16.95-.24,1.82-.05,2.56.58.28.24.52.55.77.82.33.35.43.8.46,1.26.05.77-.02,1.51-.49,2.16-.26.37-.59.68-1,.87-.91.43-1.73,1-2.57,1.54-.68.44-1.37.85-2.05,1.28-.67.42-1.33.84-1.99,1.26-.58.36-1.16.72-1.74,1.08-.04.02-.08.04-.17.08.31.16.55.12.77.09.68-.09,1.35.02,2.02.02.81.01,1.62.06,2.42.17.89.12,1.78.27,2.61.63.26.11.54.17.81.26,1.12.36,1.47,1.44,1.31,2.27-.1.49-.25.96-.49,1.41-.07.14-.17.19-.31.22-.55.1-1.08.26-1.57.53-.47.27-.93.55-1.4.82-.28.16-.57.27-.91.19-.41-.1-.62-.41-.8-.74-.09-.17-.14-.36-.2-.52.18-.23.38-.42.52-.65.21-.37.17-.75.04-1.15-.21-.64-.64-.97-1.27-1.09-.76-.14-1.54-.2-2.31-.22-.29,0-.57-.06-.85-.05-.96.02-1.92.06-2.88.11-.26.01-.51.1-.76.17-.88.27-1.71.63-2.47,1.15-.45.31-.86.68-1.17,1.13-.12.17-.15.4-.19.61-.16.79-.31,1.59-.45,2.38-.1.55-.39,1.02-.69,1.47-.21.32-.5.57-.83.75-.42.23-.88.22-1.33.12-.6-.12-1.09-.45-1.56-.82-.12-.1-.25-.19-.37-.3-.19-.18-.27-.41-.33-.66-.23-.96-.49-1.92-.71-2.89-.17-.76-.23-1.54.02-2.3.23-.69.69-1.16,1.39-1.38.4-.13.8-.17,1.21-.18.94-.01,1.86-.11,2.78-.32.4-.09.81-.11,1.21-.2.72-.15,1.44-.31,2.16-.48.31-.07.6-.17.88-.36.81-.55,1.64-1.07,2.46-1.61,1.15-.75,2.3-1.51,3.45-2.26.86-.56,1.72-1.11,2.57-1.67.39-.26.77-.53,1.06-.9.34-.43.31-.94-.06-1.33-.19-.2-.42-.32-.71-.38-.37-.09-.64-.35-.82-.68-.15-.27-.25-.56-.42-.95Z"/>
      <path class="cls-2" d="M62.15,27.16c.18.09.34.17.5.25.48.23.97.39,1.51.37.12,0,.25-.04.37-.07.18-.06.26-.17.31-.36.21-.89.28-1.79.24-2.69-.07-1.66-.53-3.22-1.49-4.59-.31-.45-.68-.85-1.05-1.26-.15-.16-.26-.32-.31-.55-.1-.39-.1-.79-.04-1.18.06-.4.39-.69.8-.72.27-.02.54-.07.81-.07.96-.01,1.89.17,2.73.64.51.29.97.69,1.3,1.19.17.27.34.54.52.82.49.02.96,0,1.37-.34.06-.05.14-.1.17-.17.25-.48.73-.71,1.12-1.04.15-.14.32-.25.48-.38.31-.24.62-.24.93-.01.11.08.16.18.18.31.04.29-.04.55-.17.79-.22.4-.45.79-.69,1.18-.51.81-.96,1.65-1.37,2.52-.46.98-.83,1.98-1.07,3.02-.13.53-.19,1.08-.26,1.62-.05.36-.07.73-.07,1.09,0,.33.04.66.1.98.25,1.37.43,2.75.33,4.15-.05.69-.2,1.35-.53,1.97-.22.42-.58.66-.97.88-.57.32-1.17.61-1.74.95-.38.22-.74.18-1.1.02-.29-.13-.52-.33-.7-.59-.35-.49-.53-1.05-.67-1.63-.21-.86-.09-1.7.05-2.54.04-.27.08-.54.12-.81.02-.16-.01-.29-.14-.43-.55-.6-1.01-1.26-1.35-2-.18-.39-.29-.81-.22-1.3Z"/>
      <path class="cls-2" d="M90.63,12.49c-.34-.19-.67-.15-.98-.12-.3.03-.61.11-.9.2-.82.26-1.61.6-2.39.98-1.34.65-2.62,1.41-3.9,2.18-.7.42-1.38.89-2.07,1.33-.3.19-.59.38-.9.54-.44.23-.93.28-1.41.32-.48.05-.96-.03-1.42-.17-.5-.15-.96-.41-1.37-.74-.96-.79-1.51-1.83-1.94-2.96-.03-.07-.05-.15-.07-.23-.09-.34,0-.6.32-.74.31-.14.64-.24.97-.3.81-.15,1.64-.1,2.46-.07.61.02,1.22.13,1.83.17.25.02.5,0,.74-.07,1.26-.31,2.52-.63,3.77-.95.63-.16,1.25-.33,1.88-.49,1.56-.4,3.13-.79,4.7-1.19,1.16-.29,2.31-.61,3.47-.88.66-.15,1.31-.37,2.01-.34.85.04,1.55.55,1.77,1.35.06.21.16.34.33.44.37.22.75.43,1.12.65.6.35,1.05.84,1.3,1.49.2.51.07.89-.4,1.16-.28.16-.6.28-.91.37-.57.16-1.15.27-1.75.28-.95.02-1.89.04-2.84.05-.25,0-.5-.03-.75-.06-.2-.02-.38.04-.56.12-.33.15-.67.3-1.01.39-.26.07-.54.09-.8-.03-.38-.18-.51-.5-.53-.89-.02-.49-.02-.98.16-1.45.04-.1.05-.22.08-.34Z"/>
      <path class="cls-2" d="M90.3,16.81c-.06.28-.12.55-.17.83-.1.51-.22,1.02-.29,1.54-.1.73-.18,1.47-.25,2.2-.05.5-.09,1-.09,1.5,0,1.07.03,2.15.06,3.22.02,1.06.17,2.12.38,3.16.16.84.4,1.66.62,2.48.1.36.26.71.36,1.07.05.18.06.39.03.57-.25,1.28-.59,2.53-1.16,3.71-.24.49-.49.97-.91,1.34-.21.19-.45.32-.71.39-.35.11-.67-.03-.98-.2-.08-.04-.15-.1-.23-.15-.24-.14-.34-.34-.37-.64-.13-1.39-.85-2.38-2.12-2.95-.73-.33-1.51-.49-2.32-.5-.58,0-1.16-.05-1.74-.07-.26,0-.48-.11-.7-.25-.18-.12-.24-.29-.21-.5.07-.46.43-.8.9-.82.77-.05,1.55-.08,2.33-.14,1.25-.08,2.5-.18,3.75-.26.18-.01.28-.09.36-.26.22-.46.34-.95.35-1.45.01-.55.05-1.1-.01-1.64-.08-.74,1.31-13.32,1.64-13.37.33-.05.67-.02.93.13.27.16.51.43.51.8v.24s.03,0,.04,0Z"/>
      <path class="cls-2" d="M79.84,25.1c.47-.29.89-.54,1.3-.8.17-.11.27-.27.35-.45.11-.25.02-.42-.13-.59-.1-.11-.24-.2-.37-.29-.2-.15-.41-.14-.64-.05-.96.35-1.54,1.04-1.79,2-.09.36-.1.75-.1,1.12,0,.56-.34.87-.78,1.1-.44.23-.87.11-1.19-.22-.33-.34-.65-.71-.89-1.12-.23-.4-.52-.74-.82-1.08-.38-.44-.67-.94-.77-1.51-.09-.5.08-.98.39-1.41.63-.88,1.24-1.78,1.88-2.7.33-.03.68,0,1,.22.19.13.31.31.31.54,0,.19.09.31.22.43.41.36.82.68,1.37.79.47.09.86.03,1.18-.38.5-.62,1.04-1.21,1.55-1.82.54-.65,1.13-1.24,1.75-1.81.02-.02.03-.03.05-.05.47-.41.57-.38.78.19.37.96.75,1.91,1.12,2.87.06.16.1.33.1.5,0,.87-.03,1.73-.18,2.59-.06.37-.11.74-.16,1.12-.1.66-.3,1.31-.51,1.94-.26.76-.62,1.44-1.14,2.05-.36.42-.79.75-1.31.96-.4.17-.76.03-1.11-.14-.66-.33-1.14-.85-1.38-1.54-.17-.49-.28-1.01-.17-1.55.06-.32.06-.66.08-.91Z"/>
      <path class="cls-2" d="M182.01,1.45c.03.49-.24,1.32-.23,1.28-.13.81-.18,1.63-.13,2.45.05.92.12,1.84.31,2.75.04.19.08.38.14.57.07.23.17.25.33.09.17-.17.33-.35.5-.52.44-.46.88-.92,1.35-1.4.06.09.12.16.15.23.06.12.09.27.18.37.27.32.27.66.13,1.02-.25.68-.5,1.37-.78,2.04-.19.45-.43.88-.66,1.31-.25.46-.6.82-1.05,1.1-.66.41-1.35.38-2.02.05-.34-.16-.89-.34-1.05-.72-.13-.3-.07-.71-.14-1.04-.08-.41-.19-.82-.19-1.24,0-1.28.5-2.78.86-3.99.42-1.44.74-3.88,1.74-5.05.27-.31.55.28.57.71Z"/>
      <path class="cls-2" d="M158.76,26.61c.59.08,1.22.16,1.85.26.36.06.71.14,1.07.23.74.18,1.33.62,1.88,1.12.35.32.63.7.79,1.15.24.69.16,1.37-.16,2.02-.52,1.05-1.29,1.86-2.34,2.4-.25.13-.51.24-.76.38-.31.16-.66.18-1,.18-.31,0-.77-.38-.89-.72-.2-.58-.24-1.18-.11-1.78.08-.37.09-.71,0-1.08-.08-.3-.22-.56-.43-.76-.31-.29-.63-.59-1.07-.68-.12-.02-.24-.05-.37-.07-.68-.1-.93-.4-.78-1.07.09-.39.28-.74.5-1.08.16-.24.41-.29.65-.34.38-.07.76-.1,1.2-.15Z"/>
      <path class="cls-2" d="M64.35,6.19c.55.01,1.02.22,1.49.43.69.31,1.36.63,2.05.93.78.34,1.56.68,2.35,1.01.29.12.53.31.74.54.36.38.4.82.27,1.31-.15.53-.45.98-.82,1.37-.47.49-.97.97-1.49,1.41-.37.31-.82.38-1.28.19-.26-.1-.42-.31-.58-.52-.03-.04-.05-.11-.05-.16.07-.51-.24-.86-.53-1.2-.79-.94-1.74-1.71-2.72-2.43-.03-.02-.05-.05-.08-.06-.51-.22-.65-.64-.6-1.15.03-.35.1-.7.16-1.05.03-.19.12-.32.3-.38.27-.09.54-.16.81-.24Z"/>
      <path class="cls-2" d="M193.69,7.37c.07.12.13.23.18.34.25.53.13,1.03-.13,1.5-.29.52-.7.93-1.15,1.3-.71.59-1.48,1.06-2.29,1.48-.37.19-.77.21-1.17.16-.34-.05-.6-.27-.8-.53-.37-.47-.57-1.01-.71-1.58-.25-1.06-.37-2.14-.28-3.23.05-.69.19-1.38.42-2.04.02-.06.05-.13.08-.19.08-.17.16-.36.37-.37.21,0,.31.18.4.34.3.53.46,1.11.63,1.69.08.27.12.55.21.82.06.18.16.36.27.51.14.19.35.27.6.28.57.02,1.1-.12,1.65-.24.57-.13,1.12-.31,1.74-.24Z"/>
    </g>
    <g>
      <path class="cls-1" d="M66.37,47.45h3.97v-2.1c0-.37-.03-.62-.08-.74-.04-.09-.13-.17-.26-.23-.18-.09-.37-.13-.57-.13h-.3v-.2h3.65v.2h-.31c-.2,0-.39.04-.57.13-.14.06-.23.14-.27.26-.05.12-.07.35-.07.71v4.72c0,.37.03.61.08.73.04.09.13.17.26.24.19.08.38.13.58.13h.31v.2h-3.65v-.2h.3c.34,0,.6-.09.76-.26.1-.11.16-.39.16-.83v-2.23h-3.97v2.23c0,.37.03.61.08.73.04.09.13.17.27.24.18.08.37.13.57.13h.31v.2h-3.66v-.2h.31c.35,0,.61-.09.77-.26.1-.11.15-.39.15-.83v-4.72c0-.37-.03-.62-.08-.74-.04-.09-.13-.17-.26-.23-.19-.09-.38-.13-.58-.13h-.31v-.2h3.66v.2h-.31c-.2,0-.39.04-.57.13-.13.06-.22.14-.27.26s-.07.35-.07.71v2.1Z"/>
      <path class="cls-1" d="M76.7,44.46v2.89h1.87c.49,0,.82-.06.98-.19.22-.17.34-.46.37-.87h.24v2.55h-.24c-.06-.36-.12-.58-.18-.68-.07-.13-.2-.23-.37-.3-.17-.07-.44-.11-.8-.11h-1.87v2.41c0,.33.01.52.05.59.03.07.09.12.18.16.09.04.25.06.48.06h1.45c.48,0,.83-.03,1.05-.08.22-.06.43-.17.63-.34.26-.22.53-.56.8-1.01h.25l-.73,1.84h-6.58v-.2h.3c.2,0,.4-.04.58-.12.13-.06.22-.14.27-.26.05-.12.08-.35.08-.7v-4.76c0-.46-.06-.75-.16-.86-.15-.14-.4-.22-.76-.22h-.3v-.2h6.58l.09,1.61h-.24c-.09-.39-.19-.65-.29-.8-.11-.14-.27-.25-.47-.33-.17-.05-.47-.08-.89-.08h-2.34Z"/>
      <path class="cls-1" d="M88.8,47.64c.59.11,1.03.28,1.32.52.41.33.61.74.61,1.21,0,.37-.13.72-.4,1.05-.27.33-.64.58-1.1.73-.47.15-1.18.23-2.14.23h-4.04v-.2h.32c.36,0,.62-.1.78-.29.09-.13.14-.39.14-.8v-4.72c0-.46-.06-.74-.18-.86-.17-.16-.41-.24-.74-.24h-.32v-.2h3.69c.69,0,1.24.05,1.66.13.63.13,1.11.36,1.44.69.33.33.5.71.5,1.14,0,.37-.13.7-.39.98-.26.29-.64.5-1.15.64ZM85.49,47.35c.15.03.33.05.53.06.2.01.42.02.66.02.61,0,1.07-.06,1.38-.17.31-.11.55-.29.71-.52.16-.24.25-.49.25-.77,0-.42-.2-.79-.61-1.09-.41-.3-1-.46-1.78-.46-.42,0-.8.04-1.13.12v2.81ZM85.49,50.84c.48.1.96.15,1.44.15.76,0,1.34-.15,1.74-.44.4-.29.6-.66.6-1.09,0-.29-.09-.56-.27-.82-.18-.26-.48-.47-.88-.62-.41-.15-.91-.23-1.51-.23-.26,0-.48,0-.67.01-.19,0-.33.02-.44.04v2.99Z"/>
      <path class="cls-1" d="M95.1,44.46v2.89h1.87c.49,0,.82-.06.98-.19.22-.17.34-.46.37-.87h.23v2.55h-.23c-.06-.36-.12-.58-.18-.68-.07-.13-.19-.23-.37-.3-.17-.07-.44-.11-.8-.11h-1.87v2.41c0,.33.02.52.05.59.03.07.09.12.18.16.09.04.25.06.48.06h1.45c.48,0,.83-.03,1.05-.08.22-.06.43-.17.63-.34.26-.22.53-.56.8-1.01h.25l-.73,1.84h-6.58v-.2h.3c.2,0,.4-.04.58-.12.13-.06.22-.14.27-.26.05-.12.07-.35.07-.7v-4.76c0-.46-.06-.75-.16-.86-.15-.14-.4-.22-.76-.22h-.3v-.2h6.58l.09,1.61h-.24c-.09-.39-.19-.65-.29-.8-.11-.14-.26-.25-.47-.33-.17-.05-.47-.08-.89-.08h-2.34Z"/>
      <path class="cls-1" d="M105.22,51.17v.2h-3.66v-.2h.3c.35,0,.61-.09.77-.26.1-.11.15-.39.15-.83v-4.72c0-.37-.03-.62-.08-.74-.04-.09-.13-.17-.26-.23-.19-.09-.38-.13-.58-.13h-.3v-.2h3.66v.2h-.31c-.34,0-.6.09-.76.27-.1.11-.16.39-.16.83v4.72c0,.37.03.61.08.73.04.09.13.17.27.24.18.08.37.13.57.13h.31Z"/>
      <path class="cls-1" d="M121.01,44.26v-.2h3.03v.2h-.32c-.34,0-.6.12-.78.36-.09.11-.13.37-.13.78v2.97c0,.73-.08,1.3-.25,1.71-.17.4-.5.75-1,1.04-.5.29-1.17.44-2.03.44-.93,0-1.64-.14-2.13-.42-.48-.28-.83-.65-1.03-1.12-.14-.32-.2-.92-.2-1.8v-2.85c0-.45-.07-.75-.22-.89-.14-.14-.38-.21-.7-.21h-.32v-.2h3.69v.2h-.33c-.36,0-.61.1-.76.29-.1.13-.16.4-.16.81v3.18c0,.29.03.61.09.98.06.37.17.65.33.86.16.21.39.38.69.51.3.13.67.2,1.1.2.56,0,1.06-.1,1.5-.31.44-.21.74-.48.9-.8.16-.33.24-.87.24-1.65v-2.96c0-.46-.06-.75-.17-.86-.16-.16-.41-.24-.73-.24h-.33Z"/>
      <path class="cls-1" d="M124.97,44.05h2.32l5.22,5.49v-4.21c0-.45-.06-.73-.18-.85-.15-.15-.39-.23-.73-.23h-.3v-.2h2.97v.2h-.3c-.37,0-.62.09-.78.28-.09.12-.13.38-.13.79v6.16h-.23l-5.63-5.89v4.5c0,.45.06.73.17.84.16.15.4.23.74.23h.3v.2h-2.97v-.2h.29c.37,0,.63-.09.77-.28.09-.11.14-.37.14-.78v-5.08c-.25-.25-.43-.41-.56-.49-.13-.08-.32-.15-.57-.23-.12-.03-.31-.05-.55-.05v-.2Z"/>
      <path class="cls-1" d="M139.4,51.17v.2h-3.66v-.2h.31c.35,0,.6-.09.77-.26.1-.11.15-.39.15-.83v-4.72c0-.37-.03-.62-.08-.74-.04-.09-.13-.17-.26-.23-.19-.09-.38-.13-.58-.13h-.31v-.2h3.66v.2h-.32c-.34,0-.6.09-.76.27-.1.11-.16.39-.16.83v4.72c0,.37.03.61.08.73.04.09.13.17.27.24.18.08.37.13.57.13h.32Z"/>
      <path class="cls-1" d="M149.83,44.05v.2c-.3.05-.52.13-.68.25-.23.18-.42.45-.6.81l-2.98,6.23h-.23l-3.2-6.31c-.17-.33-.28-.53-.35-.6-.1-.11-.23-.2-.39-.26-.15-.06-.36-.1-.62-.12v-.2h3.49v.2c-.39.03-.65.09-.76.17-.12.08-.18.19-.18.32,0,.18.1.46.29.85l2.17,4.29,2.02-4.24c.2-.42.3-.71.3-.87,0-.1-.06-.2-.18-.3-.12-.1-.33-.16-.61-.2-.02,0-.06-.01-.11-.02v-.2h2.63Z"/>
      <path class="cls-1" d="M153.65,44.46v2.89h1.87c.49,0,.81-.06.98-.19.22-.17.34-.46.37-.87h.24v2.55h-.24c-.06-.36-.12-.58-.18-.68-.07-.13-.2-.23-.37-.3-.17-.07-.44-.11-.8-.11h-1.87v2.41c0,.33.02.52.05.59.03.07.09.12.18.16.09.04.25.06.48.06h1.45c.48,0,.83-.03,1.05-.08.22-.06.43-.17.63-.34.26-.22.53-.56.8-1.01h.25l-.74,1.84h-6.58v-.2h.3c.2,0,.4-.04.58-.12.13-.06.22-.14.27-.26.05-.12.07-.35.07-.7v-4.76c0-.46-.05-.75-.16-.86-.15-.14-.41-.22-.76-.22h-.3v-.2h6.58l.1,1.61h-.24c-.09-.39-.19-.65-.29-.8-.11-.14-.26-.25-.47-.33-.17-.05-.47-.08-.89-.08h-2.34Z"/>
      <path class="cls-1" d="M168.51,51.37h-2.28l-2.9-3.42c-.21,0-.39,0-.52,0-.05,0-.11,0-.17,0-.06,0-.13,0-.19,0v2.12c0,.46.06.75.17.86.16.16.4.23.72.23h.34v.2h-3.66v-.2h.32c.36,0,.62-.1.77-.3.09-.11.13-.38.13-.79v-4.72c0-.46-.06-.75-.17-.86-.17-.16-.41-.24-.73-.24h-.32v-.2h3.12c.91,0,1.58.06,2.01.17.43.11.79.32,1.09.63.3.31.45.67.45,1.09,0,.45-.17.84-.51,1.17-.34.33-.87.56-1.59.7l1.76,2.1c.41.48.76.8,1.04.96.29.16.67.26,1.13.3v.2ZM162.45,47.61c.08,0,.15,0,.21,0,.06,0,.11,0,.14,0,.81,0,1.43-.15,1.84-.46s.62-.69.62-1.15-.17-.83-.5-1.11c-.33-.29-.78-.43-1.33-.43-.24,0-.57.03-.98.1v3.04Z"/>
      <path class="cls-1" d="M175.27,43.89v2.53h-.24c-.07-.49-.21-.87-.4-1.16-.19-.29-.48-.51-.84-.68-.36-.17-.74-.25-1.12-.25-.43,0-.79.11-1.08.34-.29.23-.43.49-.43.78,0,.23.09.43.28.61.26.27.88.63,1.85,1.08.8.37,1.34.65,1.63.84.29.2.52.43.67.69.16.27.23.54.23.83,0,.55-.25,1.03-.75,1.43-.5.4-1.15.6-1.93.6-.25,0-.49-.02-.7-.05-.13-.02-.4-.08-.81-.2-.41-.11-.67-.17-.78-.17-.1,0-.19.03-.24.08-.06.05-.11.17-.14.34h-.23v-2.51h.23c.11.52.25.91.44,1.18.19.26.47.48.85.65.38.17.8.26,1.25.26.52,0,.94-.12,1.24-.36.3-.24.46-.52.46-.85,0-.18-.06-.36-.17-.54-.11-.18-.3-.35-.54-.51-.16-.11-.61-.33-1.34-.69-.73-.35-1.25-.63-1.56-.84-.31-.21-.55-.44-.7-.69-.16-.25-.24-.53-.24-.83,0-.53.23-.98.7-1.36.47-.38,1.07-.57,1.8-.57.45,0,.93.09,1.44.29.24.09.4.13.5.13.1,0,.19-.03.26-.08.07-.06.13-.17.17-.34h.24Z"/>
      <path class="cls-1" d="M181.48,51.17v.2h-3.66v-.2h.31c.35,0,.6-.09.77-.26.1-.11.15-.39.15-.83v-4.72c0-.37-.03-.62-.08-.74-.04-.09-.13-.17-.26-.23-.18-.09-.38-.13-.58-.13h-.31v-.2h3.66v.2h-.31c-.34,0-.6.09-.76.27-.1.11-.16.39-.16.83v4.72c0,.37.03.61.08.73.04.09.13.17.27.24.18.08.37.13.57.13h.31Z"/>
      <path class="cls-1" d="M190.21,44.05l.09,1.72h-.24c-.04-.3-.1-.51-.19-.64-.13-.21-.3-.36-.52-.46-.22-.1-.5-.15-.85-.15h-1.2v5.59c0,.45.06.73.17.84.16.15.4.23.74.23h.3v.2h-3.62v-.2h.3c.36,0,.62-.09.77-.28.09-.11.13-.37.13-.78v-5.59h-1.02c-.4,0-.68.02-.85.07-.22.07-.41.2-.56.39-.16.19-.25.46-.27.79h-.24l.1-1.72h6.97Z"/>
      <path class="cls-1" d="M197.74,44.05h2.97v.2h-.16c-.11,0-.27.04-.48.12-.21.08-.4.2-.57.36-.17.15-.38.41-.63.76l-2.06,2.77v1.83c0,.45.06.73.17.84.16.15.42.23.76.23h.28v.2h-3.63v-.2h.31c.36,0,.61-.09.77-.28.09-.11.14-.37.14-.78v-1.73l-2.34-3.06c-.28-.36-.47-.58-.57-.67-.1-.09-.3-.2-.61-.32-.08-.04-.21-.05-.37-.05v-.2h3.65v.2h-.19c-.2,0-.38.04-.54.12-.16.08-.25.2-.25.35,0,.13.13.36.38.7l1.78,2.35,1.67-2.25c.25-.34.38-.59.38-.76,0-.1-.03-.19-.09-.27-.06-.08-.15-.14-.26-.19-.11-.05-.28-.07-.51-.07v-.2Z"/>
    </g>
  </g>
</svg>