<?xml version="1.0" encoding="UTF-8"?>
<svg id="_图层_1" data-name="图层 1" xmlns="http://www.w3.org/2000/svg" viewBox="0 0 320.88 93.38">
  <defs>
    <style>
      .cls-1, .cls-2 {
        fill: #1b4a9c;
        stroke-width: 0px;
      }

      .cls-2 {
        fill-rule: evenodd;
      }
    </style>
  </defs>
  <g>
    <polygon class="cls-1" points="40.02 73.24 40.13 73.03 40.23 72.83 40.35 72.64 40.46 72.47 40.61 72.28 40.8 72.04 41.05 71.77 41.35 71.45 41.63 71.16 41.88 70.86 41.99 70.72 42.1 70.57 42.2 70.43 42.3 70.28 42.39 70.13 42.47 69.97 42.52 69.83 42.57 69.66 42.6 69.49 42.61 69.33 42.62 69.14 42.61 68.97 42.59 68.75 42.55 68.54 42.5 68.36 42.43 68.17 42.39 68.09 42.35 68.01 42.31 67.93 42.26 67.86 42.2 67.79 42.15 67.72 42.09 67.66 42.02 67.6 41.97 67.53 41.89 67.48 41.82 67.43 41.75 67.38 41.67 67.35 41.6 67.31 41.52 67.27 41.43 67.25 41.35 67.22 41.26 67.21 41.16 67.19 41.07 67.18 40.97 67.18 40.87 67.18 40.77 67.18 40.67 67.18 40.56 67.2 40.45 67.22 40.35 67.23 40.25 67.26 40.16 67.29 40.07 67.32 39.97 67.36 39.89 67.41 39.82 67.45 39.73 67.5 39.65 67.56 39.59 67.62 39.52 67.69 39.46 67.75 39.4 67.82 39.35 67.91 39.29 67.98 39.25 68.07 39.2 68.17 39.16 68.26 39.12 68.35 39.09 68.46 39.06 68.56 39.04 68.67 39.01 68.79 38.99 68.9 38.98 69.02 38.97 69.14 38.96 69.4 38.97 69.68 39.86 69.59 39.84 69.38 39.84 69.18 39.85 69 39.87 68.83 39.9 68.68 39.94 68.55 39.99 68.43 40.05 68.33 40.11 68.24 40.18 68.17 40.26 68.1 40.34 68.04 40.42 68 40.51 67.96 40.6 67.94 40.69 67.92 40.8 67.91 40.91 67.92 41.01 67.94 41.1 67.97 41.18 68.01 41.27 68.06 41.33 68.13 41.4 68.19 41.46 68.28 41.51 68.36 41.55 68.45 41.59 68.55 41.63 68.66 41.65 68.77 41.66 68.89 41.68 69.01 41.69 69.14 41.69 69.25 41.68 69.38 41.66 69.49 41.63 69.62 41.6 69.73 41.56 69.85 41.52 69.96 41.46 70.07 41.38 70.18 41.31 70.31 41.21 70.44 41.12 70.56 41.01 70.7 40.89 70.83 40.77 70.96 40.59 71.14 40.42 71.31 40.27 71.48 40.13 71.65 40 71.8 39.89 71.95 39.78 72.1 39.69 72.24 39.6 72.39 39.51 72.53 39.44 72.68 39.37 72.82 39.31 72.97 39.25 73.13 39.2 73.28 39.15 73.43 39.2 74.06 43.15 73.71 43.08 72.98 40.02 73.24"/>
    <polygon class="cls-1" points="31.1 66.53 31.03 66.64 30.95 66.74 30.87 66.83 30.78 66.91 30.69 66.97 30.58 67.03 30.48 67.09 30.36 67.11 30.24 67.15 30.11 67.17 29.97 67.17 29.83 67.17 29.68 67.15 29.52 67.12 29.36 67.09 29.25 67.53 30.37 67.81 29.12 72.83 29.99 73.05 31.62 66.52 31.17 66.42 31.1 66.53"/>
    <polygon class="cls-1" points="45.54 66.36 45.54 66.5 45.53 66.63 45.51 66.76 45.48 66.87 45.44 66.99 45.39 67.09 45.32 67.19 45.25 67.28 45.17 67.37 45.07 67.45 44.97 67.53 44.84 67.6 44.72 67.65 44.58 67.71 44.43 67.76 44.26 67.81 44.38 68.26 45.5 67.97 46.75 73 47.62 72.78 45.99 66.26 45.54 66.36"/>
    <path class="cls-1" d="M37.48,69.23v-.17s-.03-.16-.03-.16l-.03-.14-.03-.15-.03-.14-.04-.12-.05-.12-.05-.1-.06-.11-.06-.1-.07-.09-.06-.09-.08-.08-.08-.08-.07-.07-.09-.07-.08-.06-.09-.06-.09-.04-.1-.04-.1-.04-.1-.02-.11-.03-.11-.02h-.11s-.12-.02-.12-.02h-.32s-.1.02-.1.02l-.1.02-.09.03-.09.02-.09.04-.09.04-.08.04-.09.05-.07.05-.07.06-.08.07-.07.06-.06.08-.06.08-.06.07-.06.08-.04.09-.05.09-.04.09-.04.1-.03.1-.03.1-.03.1-.02.11-.04.24-.02.24-.02.25v.34s.02.11.02.11l.02.1v.11s.04.1.04.1l.03.1.03.09.03.09.03.08.04.09.05.07.05.08.05.08.06.06.06.06.06.06.07.06.07.05.07.04.07.04.07.04.08.03.08.03.09.03.08.02h.08s.09.02.09.02h.09s.11.01.11.01h.21s.1-.02.1-.02l.09-.02.1-.03.09-.04.1-.04.08-.06.09-.06.08-.07.08-.06.07-.09.08-.08.06-.09.06-.1-.05.3-.05.28-.06.27-.07.25-.07.23-.08.21-.08.19-.08.17-.04.08-.05.07-.05.06-.05.07-.05.05-.05.05-.06.05-.06.03-.06.03-.06.03-.07.03h-.06s-.07.02-.07.02h-.07s-.07,0-.07,0h-.07l-.09-.02h-.08s-.08-.05-.08-.05l-.06-.04-.07-.05-.06-.06-.06-.06-.04-.08-.05-.08-.03-.09-.02-.09-.02-.08-.02-.09v-.1s0-.09,0-.09v-.1l-.89-.08v.16s0,.16,0,.16l.02.16.03.16.05.16.07.15.08.15.1.14.05.08.05.07.06.06.06.06.06.06.07.05.07.04.07.04.07.04.08.03.08.03.08.03h.08s.09.04.09.04h.08s.09.02.09.02h.13s.12,0,.12,0h.12s.12-.02.12-.02l.11-.02.12-.03.11-.04.11-.04.1-.06.1-.06.1-.07.09-.08.09-.08.09-.1.09-.09.08-.11.08-.12.07-.12.08-.12.07-.13.06-.14.06-.14.06-.15.05-.15.05-.16.04-.16.03-.18.04-.17.03-.18.03-.18v-.19s.04-.2.04-.2l.02-.21v-.21s.01-.2.01-.2v-.56s-.02-.17-.02-.17ZM36.6,69.4l-.02.21v.13s-.04.12-.04.12l-.03.12-.04.11-.05.1-.06.1-.06.09-.08.08-.08.08-.1.06-.09.05-.1.04-.11.02-.11.02h-.35s-.11-.04-.11-.04l-.09-.04-.09-.05-.07-.06-.07-.07-.06-.08-.05-.09-.04-.1-.03-.11-.03-.11-.02-.13v-.13s-.01-.14-.01-.14v-.16s.01-.16.01-.16l.02-.21.03-.2.04-.17.04-.16.05-.14.06-.11.07-.11.07-.08.08-.08.08-.06.08-.05.08-.04.08-.02.08-.02h.09s.09,0,.09,0l.12.02.11.04.11.04.1.05.09.07.08.07.08.1.07.1.06.12.04.12.04.15.03.15v.17s.02.18.02.18v.2Z"/>
    <polygon class="cls-1" points="23.14 66.11 23.11 65.97 23.06 65.85 23 65.73 22.93 65.62 22.86 65.52 22.77 65.42 22.67 65.34 22.57 65.27 22.47 65.2 22.35 65.14 22.22 65.09 22.09 65.06 21.96 65.04 21.82 65.03 21.69 65.04 21.56 65.06 21.42 65.09 21.31 65.14 21.19 65.2 21.08 65.27 20.98 65.34 20.88 65.42 20.79 65.52 20.71 65.62 20.65 65.73 20.59 65.85 20.55 65.97 20.51 66.11 20.49 66.23 20.49 66.38 20.49 66.51 20.51 66.64 20.55 66.77 20.59 66.89 20.65 67.01 20.71 67.12 20.79 67.22 20.88 67.32 20.98 67.41 21.08 67.48 21.19 67.55 21.31 67.61 21.42 67.65 21.56 67.69 21.69 67.71 21.82 67.71 21.96 67.71 22.09 67.69 22.22 67.65 22.35 67.61 22.47 67.55 22.57 67.48 22.67 67.41 22.77 67.32 22.86 67.22 22.93 67.12 23 67.01 23.06 66.89 23.11 66.77 23.14 66.64 23.16 66.51 23.17 66.38 23.16 66.23 23.14 66.11"/>
    <polygon class="cls-1" points="56.18 66.11 56.15 65.97 56.1 65.85 56.05 65.73 55.98 65.62 55.9 65.52 55.82 65.42 55.72 65.34 55.62 65.27 55.51 65.2 55.39 65.14 55.27 65.09 55.14 65.06 55.01 65.04 54.87 65.03 54.74 65.04 54.6 65.06 54.48 65.09 54.35 65.14 54.24 65.2 54.13 65.27 54.01 65.34 53.92 65.42 53.83 65.52 53.76 65.62 53.69 65.73 53.63 65.85 53.59 65.97 53.56 66.11 53.54 66.23 53.54 66.38 53.54 66.51 53.56 66.64 53.59 66.77 53.63 66.89 53.69 67.01 53.76 67.12 53.83 67.22 53.92 67.32 54.01 67.41 54.13 67.48 54.24 67.55 54.35 67.61 54.48 67.65 54.6 67.69 54.74 67.71 54.87 67.71 55.01 67.71 55.14 67.69 55.27 67.65 55.39 67.61 55.51 67.55 55.62 67.48 55.72 67.41 55.82 67.32 55.9 67.22 55.98 67.12 56.05 67.01 56.1 66.89 56.15 66.77 56.18 66.64 56.21 66.51 56.21 66.38 56.21 66.23 56.18 66.11"/>
    <path class="cls-1" d="M59.83,18.66l-.08.07-.08.06-.08.04-.08.03-.08.03h-.08s-.08,0-.08,0h-.07s-.08-.04-.08-.04l-.07-.03-.07-.05-.07-.05-.07-.07-.06-.08-.07-.08-.17.14,1.98,2.44.18-.13-.08-.09-.06-.08-.05-.09-.04-.08-.03-.08-.02-.08v-.16l.02-.07.03-.07.03-.07.05-.07.07-.07.07-.06.08-.07.1-.06,1.42-1.15.17.2-1.06,3.35,1.2,1.48.16-.14-.03-.03-.02-.04-.02-.04-.02-.04v-.06s0-.06,0-.06v-.06s.01-.06.01-.06l.87-3.16.16.1.15.09.15.08.14.07.14.06.14.03.14.03h.13s.14,0,.14,0h.13s.13-.03.13-.03l.12-.03.12-.05.13-.07.13-.08.11-.09.08-.07.06-.06.07-.07.05-.08.06-.08.04-.07.04-.08.04-.08.03-.08.02-.08.02-.09v-.09s.02-.09.02-.09v-.18s-.01-.1-.01-.1l-.02-.09-.02-.1-.03-.1-.03-.11-.03-.1-.04-.11-.05-.11-.05-.12-.12-.23-.15-.23-.17-.25-.18-.25-1.9-2.33-.17.13.07.08.06.08.04.07.03.08.02.08v.08s.01.08.01.08v.14s-.04.08-.04.08l-.04.07-.04.07-.06.08-.07.07-.08.07-.09.07-3.21,2.6-.09.08ZM64.42,16.93l.03-.04.03-.02.03-.02.04-.02h.03s.04,0,.04,0h.04l.04.02h.04s.05.04.05.04l.04.03.04.04.09.09.09.12.09.12.07.11.06.11.04.11.02.11.02.11v.11l-.02.11-.02.11-.04.1-.06.11-.07.11-.09.11-.1.11-.11.11-.12.11-.14.12-.14.1-.07.05-.08.03-.07.03-.06.03-.08.02-.07.02h-.07s-.08.02-.08.02h-.06s-.07,0-.07,0h-.07s-.08-.02-.08-.02l-.07-.02-.07-.02-.07-.03-.06-.03-.07-.03-.08-.04-.07-.05-.07-.05-.13-.11-.13-.13-.14-.16-.13-.17,1.88-1.52Z"/>
    <polygon class="cls-1" points="4.27 40.73 4.33 40.69 4.39 40.66 4.46 40.64 4.53 40.62 4.61 40.62 4.7 40.62 9.2 40.53 9.29 40.53 9.36 40.53 9.44 40.54 9.51 40.56 9.57 40.59 9.63 40.61 9.68 40.65 9.72 40.7 9.77 40.76 9.8 40.82 9.84 40.89 9.86 40.97 9.88 41.06 9.89 41.15 9.91 41.26 9.91 41.37 10.13 41.36 10.04 35.87 8.09 35.54 8.09 35.8 8.3 35.88 8.49 35.98 8.68 36.08 8.85 36.2 9 36.31 9.15 36.45 9.27 36.59 9.38 36.73 9.48 36.89 9.56 37.06 9.64 37.23 9.7 37.41 9.74 37.6 9.77 37.8 9.78 38.01 9.78 38.22 9.79 38.33 9.79 38.43 9.79 38.52 9.79 38.6 9.77 38.68 9.76 38.74 9.73 38.81 9.7 38.86 9.67 38.91 9.63 38.95 9.59 38.98 9.54 39.01 9.48 39.03 9.42 39.03 9.35 39.03 9.29 39.03 7.01 39.07 7.01 38.9 7.01 38.74 7.03 38.59 7.06 38.45 7.11 38.33 7.17 38.2 7.24 38.09 7.32 37.98 7.41 37.9 7.52 37.81 7.64 37.74 7.77 37.67 7.91 37.62 8.06 37.58 8.24 37.54 8.41 37.51 8.41 37.29 5.26 37.35 5.27 37.57 5.45 37.58 5.63 37.61 5.79 37.64 5.94 37.69 6.07 37.75 6.18 37.82 6.29 37.9 6.4 37.98 6.48 38.08 6.55 38.2 6.6 38.32 6.65 38.45 6.67 38.59 6.68 38.74 6.69 38.91 6.68 39.07 4.52 39.12 4.47 39.13 4.41 39.13 4.37 39.12 4.32 39.1 4.27 39.08 4.24 39.06 4.2 39.03 4.17 38.98 4.15 38.94 4.13 38.88 4.11 38.82 4.09 38.76 4.08 38.69 4.08 38.61 4.08 38.53 4.08 38.43 4.06 38.19 4.07 37.97 4.08 37.75 4.11 37.56 4.13 37.46 4.16 37.38 4.18 37.28 4.22 37.2 4.25 37.13 4.29 37.05 4.33 36.97 4.37 36.91 4.43 36.84 4.48 36.78 4.53 36.72 4.59 36.66 4.65 36.62 4.72 36.56 4.79 36.53 4.86 36.48 4.94 36.44 5.02 36.41 5.1 36.38 5.19 36.35 5.38 36.31 5.57 36.28 5.57 36.02 3.7 36.06 3.8 41.47 4.02 41.47 4.02 41.36 4.02 41.26 4.03 41.17 4.05 41.09 4.08 41.01 4.11 40.94 4.14 40.88 4.17 40.82 4.23 40.77 4.27 40.73"/>
    <polygon class="cls-1" points="53.38 14 53.3 14 53.22 14 53.15 13.98 53.07 13.95 52.99 13.91 52.91 13.87 52.82 13.82 52.72 13.76 52.6 13.94 57.09 17.09 58.51 15.71 58.3 15.56 58.11 15.68 57.91 15.78 57.72 15.87 57.53 15.94 57.35 15.99 57.16 16.03 56.97 16.05 56.78 16.06 56.6 16.04 56.42 16.01 56.24 15.98 56.05 15.91 55.88 15.83 55.7 15.74 55.52 15.63 55.34 15.51 55.25 15.45 55.18 15.4 55.1 15.34 55.03 15.28 54.99 15.23 54.93 15.17 54.9 15.12 54.88 15.06 54.85 15.01 54.84 14.96 54.84 14.9 54.85 14.84 54.88 14.79 54.9 14.73 54.93 14.68 54.99 14.62 56.29 12.77 56.42 12.86 56.55 12.96 56.66 13.06 56.75 13.17 56.84 13.28 56.9 13.4 56.94 13.52 56.99 13.65 57 13.78 57.01 13.91 57 14.06 56.97 14.2 56.93 14.35 56.88 14.5 56.81 14.65 56.72 14.81 56.9 14.94 58.72 12.36 58.53 12.24 58.4 12.38 58.29 12.51 58.16 12.61 58.04 12.7 57.91 12.78 57.79 12.84 57.65 12.87 57.53 12.89 57.46 12.9 57.4 12.9 57.34 12.9 57.27 12.89 57.14 12.87 57 12.83 56.88 12.77 56.74 12.7 56.6 12.6 56.47 12.49 57.71 10.73 57.74 10.68 57.77 10.63 57.8 10.6 57.85 10.56 57.88 10.54 57.93 10.53 57.97 10.52 58.02 10.52 58.08 10.53 58.13 10.54 58.19 10.56 58.25 10.58 58.32 10.62 58.39 10.66 58.46 10.71 58.53 10.76 58.73 10.89 58.91 11.02 59.07 11.17 59.22 11.31 59.28 11.38 59.34 11.45 59.4 11.53 59.44 11.6 59.49 11.68 59.52 11.75 59.56 11.83 59.59 11.9 59.61 11.98 59.63 12.06 59.65 12.14 59.66 12.22 59.67 12.3 59.67 12.38 59.66 12.46 59.65 12.54 59.63 12.63 59.61 12.72 59.59 12.8 59.56 12.89 59.48 13.06 59.39 13.24 59.6 13.39 60.67 11.86 56.24 8.75 56.1 8.93 56.2 8.99 56.27 9.06 56.33 9.12 56.4 9.18 56.44 9.25 56.49 9.32 56.52 9.38 56.54 9.44 56.56 9.51 56.56 9.58 56.56 9.64 56.54 9.71 56.52 9.78 56.49 9.84 56.44 9.92 56.4 9.99 53.82 13.67 53.77 13.75 53.73 13.81 53.68 13.86 53.62 13.91 53.56 13.95 53.5 13.97 53.44 13.99 53.38 14"/>
    <path class="cls-1" d="M4.34,32.08l.03-.1.04-.08.04-.08.04-.06.05-.06.05-.05.06-.05.05-.03.07-.03h.06s.07-.02.07-.02h.14s.08.02.08.02l.08.02,4.33,1.24.08.02.08.02.07.03.06.04.05.04.05.05.03.06.03.06.03.07v.07s.02.08.02.08v.16l-.02.09v.1s-.04.1-.04.1l.21.07.84-2.93.08-.29.05-.28.03-.26v-.26s.01-.12.01-.12v-.23s-.01-.12-.01-.12l-.02-.1-.02-.1v-.1s-.05-.1-.05-.1l-.03-.09-.03-.09-.04-.08-.05-.09-.05-.07-.05-.08-.06-.07-.07-.07-.07-.07-.07-.06-.08-.06-.08-.05-.08-.05-.09-.04-.1-.04-.09-.03-.16-.03-.16-.02h-.15l-.15.02-.14.02-.14.04-.13.06-.13.07-.12.08-.13.1-.11.12-.12.12-.11.14-.11.15-.1.18-.1.18h-.04s0-.19,0-.19v-.34s-.03-.15-.03-.15l-.03-.15-.03-.13-.05-.12-.05-.12-.07-.11-.07-.1-.09-.09-.09-.08-.09-.07-.11-.06-.12-.05-.12-.04-.08-.02-.09-.02h-.09s-.08-.01-.08-.01h-.16l-.08.02h-.08s-.08.03-.08.03l-.07.04-.08.02-.08.04-.07.04-.07.05-.07.05-.07.06-.07.07-.07.07-.06.08-.07.07-.12.18-.11.19-.11.22-.1.24-.1.26-.09.28-.79,2.78.21.07.03-.11ZM7.8,30.49l.06-.17.07-.15.08-.14.08-.12.09-.11.09-.09.11-.08.11-.07.11-.05.12-.04.14-.02h.14s.14,0,.14,0l.16.02.17.02.17.05.17.05.16.06.13.07.13.07.11.08.1.08.08.08.08.09.06.1.04.1.03.11v.11s.02.11.02.11v.13s-.03.12-.03.12l-.03.13-.02.07-.02.06-.02.06-.02.05-.03.05-.03.03-.04.04-.04.02-.05.02h-.05s-.05.02-.05.02h-.18s-.07-.03-.07-.03l-.08-.02-2.25-.65.07-.24ZM5.12,29.73v-.11s.04-.12.04-.12l.04-.11.04-.11.06-.09.06-.09.07-.07.08-.06.08-.06.08-.04.1-.03.1-.03h.11s.11-.01.11-.01h.11s.12.02.12.02l.13.02.14.03.17.04.16.05.14.06.13.07.06.03.05.04.05.04.05.05.04.05.03.05.03.05.03.05.02.06.02.06.02.07.02.06.02.13v.15l-.02.15-.02.16-.05.18-.06.18-2.04-.59h-.06s-.05-.02-.05-.02l-.04-.02-.03-.02-.04-.02-.02-.02-.02-.04-.02-.03-.02-.04v-.04s-.01-.05-.01-.05v-.05Z"/>
    <polygon class="cls-1" points="66.53 31.89 66.46 31.9 66.39 31.9 66.32 31.89 66.25 31.88 66.19 31.85 66.14 31.82 66.08 31.78 66.03 31.73 65.98 31.67 65.94 31.61 65.89 31.53 65.85 31.44 65.82 31.35 65.79 31.25 65.76 31.14 65.54 31.19 66.17 34.42 66.39 34.38 66.36 34.26 66.34 34.15 66.34 34.05 66.34 33.95 66.34 33.87 66.35 33.79 66.38 33.71 66.4 33.65 66.43 33.58 66.48 33.53 66.53 33.48 66.59 33.44 66.66 33.42 66.73 33.38 66.81 33.36 66.9 33.35 71.32 32.49 71.4 32.48 71.48 32.47 71.54 32.47 71.61 32.48 71.67 32.49 71.73 32.51 71.79 32.55 71.84 32.59 71.89 32.64 71.93 32.69 71.97 32.75 72.02 32.83 72.05 32.91 72.07 33 72.11 33.09 72.12 33.19 72.14 33.23 72.17 33.26 72.39 33.22 71.77 29.98 71.55 30.03 71.56 30.13 71.57 30.23 71.57 30.33 71.57 30.41 71.56 30.49 71.53 30.57 71.51 30.65 71.48 30.71 71.45 30.77 71.41 30.82 71.35 30.87 71.31 30.91 71.25 30.94 71.18 30.98 71.1 31 71.03 31.02 66.61 31.88 66.53 31.89"/>
    <polygon class="cls-1" points="11.07 46.66 11.09 46.77 11.12 46.87 11.12 46.96 11.12 47.05 11.12 47.13 11.12 47.2 11.1 47.28 11.07 47.35 11.04 47.41 11 47.46 10.96 47.51 10.9 47.55 10.84 47.58 10.77 47.61 10.7 47.63 10.62 47.65 8.56 48.2 7.99 46.04 10.03 45.49 10.12 45.46 10.19 45.45 10.27 45.45 10.34 45.45 10.4 45.46 10.47 45.48 10.53 45.51 10.59 45.54 10.64 45.59 10.69 45.64 10.74 45.7 10.78 45.77 10.82 45.84 10.86 45.93 10.89 46.03 10.92 46.12 11.14 46.07 10.31 42.99 10.1 43.05 10.12 43.15 10.13 43.26 10.14 43.35 10.14 43.43 10.14 43.52 10.12 43.59 10.11 43.65 10.08 43.71 10.05 43.77 10.01 43.82 9.96 43.87 9.91 43.9 9.86 43.94 9.79 43.97 9.71 43.99 9.64 44 5.29 45.17 5.21 45.2 5.13 45.21 5.06 45.21 4.99 45.21 4.93 45.2 4.87 45.18 4.81 45.16 4.75 45.12 4.7 45.08 4.65 45.03 4.6 44.98 4.56 44.91 4.51 44.84 4.48 44.75 4.43 44.67 4.41 44.57 4.19 44.63 5.02 47.71 5.22 47.65 5.2 47.55 5.19 47.45 5.18 47.36 5.18 47.26 5.18 47.19 5.19 47.11 5.2 47.04 5.22 46.98 5.26 46.91 5.3 46.87 5.34 46.82 5.4 46.78 5.46 46.73 5.53 46.71 5.6 46.68 5.68 46.66 7.56 46.15 8.14 48.32 6.26 48.82 6.17 48.84 6.1 48.86 6.03 48.87 5.96 48.87 5.89 48.86 5.82 48.84 5.77 48.82 5.71 48.79 5.66 48.73 5.61 48.69 5.56 48.63 5.52 48.55 5.48 48.47 5.44 48.38 5.4 48.28 5.37 48.19 5.16 48.25 5.98 51.32 6.19 51.26 6.17 51.16 6.17 51.07 6.16 50.98 6.16 50.9 6.17 50.83 6.17 50.75 6.2 50.69 6.23 50.63 6.26 50.57 6.29 50.52 6.34 50.47 6.4 50.43 6.45 50.38 6.51 50.35 6.59 50.33 6.66 50.3 11.01 49.14 11.09 49.11 11.17 49.1 11.24 49.09 11.32 49.09 11.38 49.1 11.45 49.12 11.51 49.14 11.57 49.18 11.61 49.22 11.67 49.27 11.71 49.33 11.76 49.39 11.79 49.47 11.83 49.54 11.86 49.64 11.89 49.74 12.11 49.68 11.28 46.6 11.07 46.66"/>
    <polygon class="cls-1" points="71.85 45.21 71.79 45.3 71.72 45.38 71.64 45.45 71.55 45.52 71.45 45.58 71.33 45.64 71.21 45.68 67.76 46.54 66.42 46.18 66.31 46.15 66.21 46.12 66.12 46.09 66.04 46.05 65.97 46.01 65.91 45.95 65.85 45.89 65.81 45.84 65.78 45.76 65.75 45.68 65.73 45.6 65.73 45.52 65.73 45.42 65.74 45.32 65.77 45.21 65.8 45.11 65.58 45.05 64.74 48.19 64.95 48.25 64.98 48.13 65.01 48.03 65.05 47.93 65.09 47.85 65.13 47.77 65.2 47.72 65.25 47.66 65.31 47.62 65.38 47.59 65.46 47.57 65.54 47.56 65.63 47.56 65.72 47.57 65.81 47.59 65.91 47.62 66.02 47.67 67.69 48.11 70.05 50.6 70.11 50.66 70.15 50.73 70.19 50.79 70.21 50.88 70.23 50.96 70.23 51.05 70.23 51.15 70.21 51.25 70.22 51.24 70.23 51.24 70.23 51.27 70.24 51.3 70.46 51.35 70.98 49.38 70.77 49.32 70.71 49.49 70.64 49.65 70.61 49.71 70.57 49.77 70.53 49.82 70.5 49.86 70.46 49.89 70.41 49.93 70.37 49.94 70.33 49.96 70.29 49.97 70.24 49.97 70.2 49.96 70.15 49.94 70.06 49.91 69.97 49.86 69.89 49.8 69.8 49.74 69.7 49.66 69.61 49.58 69.52 49.49 69.43 49.38 67.99 47.93 70.41 47.4 70.42 47.38 70.45 47.38 70.49 47.36 70.54 47.36 70.67 47.33 70.79 47.32 70.89 47.31 70.97 47.33 71 47.33 71.04 47.33 71.07 47.34 71.1 47.36 71.13 47.39 71.15 47.43 71.16 47.47 71.17 47.52 71.17 47.58 71.17 47.63 71.17 47.71 71.17 47.78 71.13 47.95 71.08 48.15 71.3 48.21 72.12 45.17 71.9 45.11 71.85 45.21"/>
    <polygon class="cls-1" points="43.67 10.4 43.55 10.39 43.44 10.38 43.34 10.36 43.25 10.32 43.17 10.29 43.09 10.25 43.03 10.21 42.97 10.16 42.93 10.11 42.89 10.05 42.86 9.99 42.84 9.93 42.83 9.85 42.83 9.78 42.83 9.69 42.85 9.6 43.4 5.13 43.41 5.05 43.43 4.98 43.44 4.92 43.47 4.85 43.51 4.8 43.55 4.75 43.59 4.7 43.65 4.67 43.71 4.63 43.78 4.6 43.85 4.59 43.93 4.57 44.02 4.57 44.11 4.57 44.21 4.57 44.32 4.58 44.35 4.57 44.39 4.56 44.42 4.34 41.15 3.93 41.12 4.16 41.22 4.17 41.32 4.19 41.42 4.22 41.49 4.25 41.56 4.28 41.64 4.33 41.7 4.37 41.75 4.42 41.8 4.47 41.83 4.53 41.87 4.59 41.89 4.66 41.91 4.72 41.91 4.8 41.91 4.87 41.91 4.95 41.36 9.42 41.35 9.5 41.33 9.58 41.31 9.64 41.28 9.7 41.25 9.76 41.21 9.81 41.16 9.86 41.1 9.89 41.03 9.93 40.96 9.96 40.89 9.97 40.8 9.99 40.71 10 40.61 10.01 40.51 10.01 40.4 10 40.37 10.22 43.64 10.63 43.67 10.4"/>
    <polygon class="cls-1" points="47.55 5.18 47.6 5.21 47.66 5.25 47.7 5.29 47.75 5.34 47.78 5.39 47.81 5.45 47.85 5.51 47.87 5.56 47.9 5.63 47.91 5.7 47.93 5.78 47.94 5.85 47.94 5.92 47.95 6 48.18 12.06 48.42 12.15 52.36 7.81 52.42 7.74 52.48 7.68 52.53 7.62 52.6 7.57 52.66 7.52 52.72 7.47 52.79 7.44 52.86 7.41 52.93 7.39 52.99 7.37 53.06 7.36 53.12 7.36 53.2 7.36 53.27 7.37 53.34 7.38 53.42 7.4 53.49 7.2 51.65 6.49 51.57 6.69 51.75 6.77 51.9 6.86 51.97 6.91 52.01 6.95 52.07 6.99 52.1 7.03 52.14 7.08 52.17 7.12 52.18 7.17 52.2 7.21 52.2 7.26 52.2 7.3 52.18 7.35 52.17 7.39 52.12 7.46 52.06 7.57 51.97 7.68 51.85 7.81 51.79 7.89 51.76 7.94 49.53 10.38 49.46 7.18 49.45 7.03 49.44 6.89 49.43 6.76 49.43 6.66 49.43 6.56 49.45 6.47 49.46 6.39 49.48 6.32 49.49 6.27 49.5 6.23 49.52 6.19 49.55 6.16 49.58 6.13 49.62 6.12 49.67 6.1 49.72 6.09 49.78 6.09 49.85 6.09 49.92 6.1 50 6.12 50.17 6.16 50.37 6.23 50.45 6.03 47.51 4.9 47.44 5.11 47.5 5.14 47.55 5.18"/>
    <polygon class="cls-1" points="22.65 7.59 22.74 7.57 22.82 7.55 22.91 7.55 22.99 7.55 23.07 7.56 23.13 7.58 23.2 7.61 23.26 7.65 23.33 7.7 23.37 7.75 23.42 7.81 23.48 7.89 23.52 7.97 23.55 8.06 23.58 8.16 24.7 11.08 24.75 11.21 24.8 11.34 24.86 11.47 24.93 11.59 24.99 11.7 25.06 11.8 25.13 11.9 25.21 11.99 25.29 12.07 25.37 12.15 25.45 12.21 25.54 12.27 25.64 12.33 25.73 12.37 25.83 12.42 25.93 12.45 26.03 12.47 26.13 12.49 26.24 12.51 26.35 12.51 26.46 12.51 26.58 12.51 26.7 12.51 26.81 12.49 26.94 12.49 27.06 12.46 27.2 12.44 27.33 12.42 27.6 12.34 27.9 12.24 28.03 12.18 28.16 12.12 28.29 12.05 28.41 11.99 28.51 11.92 28.62 11.85 28.73 11.78 28.82 11.7 28.91 11.62 29 11.54 29.07 11.46 29.15 11.37 29.21 11.29 29.27 11.19 29.33 11.1 29.38 11 29.4 10.92 29.43 10.83 29.46 10.74 29.46 10.64 29.47 10.54 29.48 10.44 29.47 10.32 29.47 10.22 29.46 10.09 29.44 9.97 29.41 9.84 29.39 9.71 29.31 9.44 29.21 9.14 28.14 6.34 28.1 6.25 28.07 6.17 28.05 6.1 28.04 6.02 28.03 5.95 28.03 5.88 28.05 5.81 28.06 5.74 28.09 5.68 28.13 5.62 28.18 5.56 28.23 5.51 28.29 5.46 28.36 5.41 28.44 5.37 28.53 5.33 28.45 5.12 26.54 5.85 26.62 6.06 26.73 6.02 26.84 6 26.95 5.97 27.04 5.97 27.14 5.97 27.22 5.97 27.3 6 27.38 6.02 27.45 6.06 27.52 6.12 27.58 6.17 27.64 6.25 27.69 6.32 27.74 6.41 27.78 6.51 27.81 6.62 28.84 9.29 28.92 9.52 28.99 9.73 29.04 9.94 29.07 10.14 29.08 10.25 29.08 10.34 29.08 10.43 29.08 10.51 29.07 10.6 29.05 10.68 29.04 10.76 29.02 10.85 28.99 10.92 28.95 10.99 28.91 11.06 28.87 11.13 28.83 11.19 28.78 11.26 28.72 11.32 28.67 11.38 28.6 11.43 28.53 11.49 28.45 11.54 28.38 11.59 28.29 11.64 28.21 11.68 28.12 11.72 28.02 11.76 27.86 11.82 27.7 11.86 27.63 11.88 27.55 11.89 27.48 11.89 27.4 11.89 27.34 11.89 27.27 11.88 27.2 11.86 27.14 11.85 27.07 11.82 27 11.79 26.95 11.76 26.88 11.73 26.82 11.69 26.76 11.65 26.71 11.59 26.65 11.54 26.54 11.42 26.44 11.28 26.35 11.12 26.26 10.94 26.18 10.75 26.1 10.54 24.98 7.63 24.93 7.53 24.89 7.42 24.87 7.33 24.85 7.24 24.84 7.16 24.85 7.08 24.87 6.99 24.9 6.92 24.93 6.85 24.98 6.78 25.05 6.72 25.12 6.67 25.21 6.62 25.3 6.57 25.41 6.52 25.53 6.48 25.44 6.27 22.47 7.42 22.55 7.62 22.65 7.59"/>
    <polygon class="cls-1" points="66.23 27.49 66.19 27.57 66.14 27.64 66.08 27.71 66.01 27.77 65.94 27.82 65.87 27.87 65.79 27.9 65.67 27.94 65.55 27.97 65.43 27.98 65.33 27.98 65.22 27.98 65.13 27.97 65.03 27.94 64.94 27.91 64.85 27.87 64.78 27.81 64.69 27.75 64.62 27.67 64.55 27.59 64.49 27.49 64.42 27.39 64.36 27.28 64.29 27.11 64.24 26.94 64.23 26.86 64.21 26.78 64.19 26.69 64.19 26.62 64.18 26.53 64.19 26.45 64.2 26.36 64.21 26.28 64.23 26.2 64.24 26.12 64.27 26.04 64.29 25.96 64.37 25.79 64.45 25.64 64.55 25.47 64.68 25.31 64.82 25.15 64.97 24.99 65.14 24.84 65.33 24.68 65.22 24.45 63.2 25.39 63.31 25.62 63.37 25.6 63.42 25.6 63.48 25.6 63.52 25.62 63.57 25.65 63.6 25.68 63.64 25.72 63.67 25.78 63.67 25.85 63.69 25.95 63.71 26.05 63.72 26.16 63.8 26.48 63.89 26.78 63.94 26.93 63.99 27.08 64.05 27.22 64.12 27.35 64.24 27.57 64.37 27.78 64.43 27.87 64.5 27.97 64.57 28.06 64.64 28.13 64.72 28.22 64.79 28.28 64.87 28.35 64.94 28.42 65.03 28.48 65.1 28.52 65.19 28.58 65.27 28.62 65.36 28.65 65.45 28.68 65.53 28.72 65.62 28.73 65.71 28.76 65.8 28.77 65.89 28.78 65.99 28.78 66.09 28.78 66.19 28.78 66.29 28.76 66.4 28.75 66.5 28.73 66.6 28.7 66.7 28.67 66.81 28.63 66.94 28.57 67.04 28.5 67.15 28.43 67.25 28.34 67.35 28.26 67.43 28.17 67.51 28.08 67.59 27.97 67.65 27.87 67.71 27.75 67.77 27.63 67.81 27.52 67.86 27.39 67.89 27.26 67.92 27.12 67.94 26.97 67.96 25.47 67.96 25.32 67.97 25.19 67.98 25.06 67.99 24.94 68.01 24.82 68.04 24.71 68.06 24.62 68.1 24.53 68.15 24.45 68.19 24.37 68.24 24.3 68.3 24.25 68.37 24.2 68.43 24.15 68.5 24.12 68.58 24.1 68.67 24.06 68.75 24.04 68.84 24.02 68.93 24.01 69.01 24.01 69.1 24.03 69.18 24.05 69.26 24.08 69.33 24.12 69.41 24.17 69.48 24.23 69.55 24.3 69.61 24.37 69.68 24.46 69.75 24.55 69.8 24.66 69.86 24.8 69.9 24.95 69.92 25.1 69.94 25.25 69.93 25.4 69.92 25.55 69.89 25.7 69.85 25.85 69.79 26 69.72 26.14 69.64 26.29 69.54 26.44 69.43 26.59 69.31 26.74 69.17 26.89 69.02 27.04 69.13 27.28 70.96 26.43 70.83 26.16 70.74 26.17 70.66 26.18 70.6 26.18 70.54 26.17 70.5 26.15 70.46 26.11 70.43 26.08 70.4 26.03 70.38 25.95 70.36 25.85 70.34 25.73 70.32 25.58 70.31 25.43 70.29 25.29 70.27 25.15 70.24 25.02 70.21 24.89 70.17 24.78 70.13 24.66 70.09 24.56 69.97 24.35 69.86 24.15 69.8 24.06 69.73 23.98 69.66 23.91 69.6 23.83 69.53 23.76 69.46 23.69 69.39 23.63 69.31 23.57 69.25 23.52 69.17 23.48 69.09 23.44 69.01 23.4 68.93 23.36 68.84 23.34 68.76 23.31 68.67 23.3 68.59 23.29 68.5 23.28 68.4 23.27 68.31 23.27 68.22 23.28 68.12 23.3 68.02 23.31 67.93 23.33 67.72 23.39 67.51 23.45 67.37 23.51 67.25 23.59 67.13 23.66 67.01 23.76 66.91 23.86 66.82 23.97 66.74 24.1 66.66 24.24 66.6 24.39 66.55 24.55 66.5 24.72 66.46 24.9 66.43 25.1 66.41 25.31 66.4 25.52 66.4 25.76 66.37 26.46 66.38 26.6 66.38 26.73 66.38 26.87 66.37 26.98 66.35 27.1 66.33 27.21 66.31 27.31 66.27 27.4 66.23 27.49"/>
    <polygon class="cls-1" points="70.95 36.26 70.94 36.51 71.13 36.54 71.31 36.58 71.48 36.63 71.63 36.69 71.77 36.77 71.9 36.86 71.96 36.9 72.01 36.96 72.07 37 72.12 37.07 72.16 37.13 72.21 37.18 72.24 37.25 72.28 37.32 72.35 37.47 72.4 37.63 72.44 37.79 72.47 37.98 72.48 38.17 72.48 38.37 67.54 38.28 67.43 38.29 67.32 38.29 67.22 38.27 67.13 38.26 67.04 38.23 66.97 38.2 66.91 38.15 66.85 38.1 66.8 38.03 66.76 37.97 66.73 37.88 66.7 37.8 66.69 37.7 66.67 37.59 66.67 37.48 66.68 37.36 66.46 37.35 66.4 40.68 66.62 40.69 66.62 40.56 66.62 40.43 66.64 40.33 66.66 40.23 66.69 40.15 66.72 40.06 66.77 39.99 66.82 39.92 66.87 39.88 66.94 39.83 67.02 39.8 67.1 39.78 67.19 39.76 67.29 39.76 67.4 39.76 67.51 39.79 72.46 39.87 72.46 40.07 72.43 40.25 72.41 40.43 72.37 40.59 72.31 40.74 72.24 40.88 72.2 40.94 72.16 41 72.11 41.06 72.07 41.12 72.01 41.17 71.96 41.23 71.9 41.27 71.83 41.32 71.7 41.4 71.56 41.47 71.4 41.53 71.23 41.58 71.05 41.61 70.86 41.64 70.85 41.93 72.72 41.93 72.82 36.32 70.95 36.26"/>
    <polygon class="cls-1" points="31.94 4.36 31.97 4.36 32.01 4.37 32.04 4.39 32.13 4.43 32.22 4.51 32.34 4.6 32.47 4.7 32.62 4.85 32.77 5.01 33.08 9.43 33.09 9.52 33.09 9.6 33.08 9.69 33.07 9.76 33.04 9.83 33.02 9.9 32.98 9.96 32.93 10.01 32.87 10.06 32.82 10.1 32.75 10.14 32.67 10.18 32.59 10.2 32.5 10.22 32.4 10.25 32.3 10.25 32.31 10.47 34.43 10.32 34.42 10.1 34.29 10.11 34.19 10.1 34.08 10.09 33.98 10.08 33.9 10.04 33.82 10.01 33.75 9.97 33.68 9.92 33.63 9.85 33.58 9.78 33.54 9.71 33.52 9.62 33.49 9.53 33.48 9.43 33.47 9.33 33.48 9.22 33.21 5.49 37.73 10.2 37.98 10.19 37.6 4.74 37.59 4.67 37.58 4.59 37.58 4.51 37.59 4.44 37.6 4.38 37.62 4.32 37.66 4.26 37.69 4.21 37.74 4.16 37.8 4.11 37.85 4.07 37.92 4.04 38 4 38.09 3.97 38.18 3.94 38.28 3.92 38.26 3.71 36.25 3.85 36.27 4.07 36.38 4.07 36.49 4.07 36.6 4.09 36.69 4.1 36.77 4.14 36.85 4.17 36.92 4.22 36.98 4.27 37.04 4.33 37.08 4.4 37.12 4.47 37.15 4.56 37.18 4.64 37.2 4.74 37.21 4.84 37.21 4.95 37.41 7.77 33.87 4.01 31.9 4.15 31.92 4.36 31.94 4.36"/>
    <polygon class="cls-1" points="12.18 15.97 12.25 15.91 12.32 15.85 12.4 15.8 12.47 15.77 12.55 15.73 12.62 15.72 12.69 15.7 12.76 15.69 12.82 15.7 12.89 15.71 12.96 15.72 13.02 15.75 13.08 15.79 13.14 15.83 13.2 15.89 16.44 19.02 16.5 19.08 16.55 19.12 16.6 19.18 16.62 19.25 16.64 19.31 16.66 19.37 16.67 19.44 16.66 19.51 16.66 19.59 16.63 19.65 16.6 19.72 16.57 19.81 16.52 19.88 16.47 19.97 16.41 20.05 16.34 20.14 16.5 20.29 18.78 17.92 18.62 17.76 18.54 17.85 18.46 17.92 18.38 17.99 18.31 18.05 18.23 18.09 18.15 18.14 18.08 18.16 18 18.17 17.94 18.18 17.87 18.17 17.8 18.16 17.74 18.14 17.67 18.1 17.6 18.06 17.55 18 17.48 17.93 14.24 14.8 14.18 14.76 14.13 14.7 14.1 14.64 14.07 14.58 14.04 14.52 14.02 14.45 14.02 14.39 14.02 14.33 14.03 14.26 14.05 14.19 14.09 14.12 14.11 14.04 14.17 13.97 14.22 13.9 14.28 13.82 14.36 13.75 14.37 13.72 14.38 13.66 14.23 13.51 11.93 15.88 12.09 16.04 12.18 15.97"/>
    <polygon class="cls-1" points="7.25 23.51 7.3 23.44 7.36 23.36 7.42 23.3 7.48 23.25 7.54 23.2 7.61 23.16 7.66 23.13 7.73 23.11 7.8 23.1 7.86 23.09 7.93 23.1 7.99 23.12 8.07 23.15 8.14 23.18 8.21 23.23 12.12 25.48 12.19 25.51 12.26 25.56 12.31 25.6 12.37 25.65 12.41 25.71 12.44 25.76 12.46 25.82 12.47 25.89 12.48 25.96 12.48 26.03 12.47 26.11 12.46 26.19 12.42 26.27 12.39 26.36 12.35 26.46 12.29 26.56 12.48 26.67 15.23 21.91 13.74 20.62 13.61 20.84 13.74 21.03 13.86 21.21 13.96 21.39 14.05 21.58 14.11 21.76 14.17 21.95 14.21 22.13 14.23 22.31 14.23 22.49 14.22 22.68 14.19 22.86 14.14 23.06 14.09 23.24 14.01 23.42 13.92 23.6 13.81 23.79 13.76 23.89 13.71 23.97 13.66 24.05 13.61 24.12 13.56 24.18 13.51 24.23 13.46 24.27 13.41 24.3 13.35 24.32 13.3 24.34 13.24 24.34 13.19 24.34 13.13 24.32 13.07 24.3 13.02 24.27 12.96 24.23 10.99 23.09 11.07 22.95 11.16 22.81 11.26 22.7 11.35 22.6 11.46 22.5 11.58 22.43 11.69 22.37 11.81 22.32 11.94 22.29 12.08 22.27 12.21 22.27 12.36 22.29 12.51 22.31 12.66 22.35 12.83 22.41 13 22.48 13.11 22.29 10.38 20.71 10.27 20.9 10.42 21.01 10.56 21.13 10.67 21.24 10.78 21.35 10.87 21.48 10.93 21.6 10.98 21.72 11.02 21.85 11.04 21.97 11.04 22.11 11.02 22.23 11 22.37 10.95 22.5 10.88 22.65 10.81 22.79 10.71 22.93 8.84 21.85 8.78 21.83 8.74 21.8 8.7 21.77 8.66 21.74 8.64 21.69 8.62 21.65 8.61 21.61 8.6 21.56 8.6 21.5 8.61 21.45 8.63 21.39 8.65 21.33 8.68 21.25 8.71 21.18 8.75 21.11 8.81 21.03 8.92 20.82 9.04 20.63 9.16 20.45 9.29 20.3 9.35 20.23 9.42 20.17 9.49 20.11 9.55 20.05 9.63 20 9.7 19.95 9.77 19.92 9.85 19.88 9.92 19.85 10 19.82 10.08 19.8 10.16 19.79 10.24 19.77 10.32 19.77 10.4 19.76 10.49 19.77 10.57 19.78 10.65 19.79 10.74 19.8 10.83 19.82 11.01 19.88 11.2 19.96 11.32 19.73 9.7 18.8 7 23.5 7.19 23.6 7.25 23.51"/>
    <polygon class="cls-1" points="42.76 25.99 42.77 26.04 42.8 26.1 42.83 26.14 42.85 26.18 42.87 26.2 42.91 26.23 42.93 26.25 42.94 26.26 42.96 26.27 43 26.27 43.07 26.27 43.15 26.27 44.04 26.17 46.02 26.1 45.89 26.36 45.88 26.38 45.88 26.42 45.88 26.45 45.89 26.5 46.05 27.47 46.07 27.63 46.09 27.82 46.1 28.01 46.11 28.24 46.12 28.48 46.13 28.74 46.13 29.03 46.13 29.34 46.12 29.63 46.11 29.91 46.1 30.17 46.09 30.4 46.08 30.61 46.06 30.79 46.04 30.95 46.02 31.09 45.98 31.29 45.95 31.54 45.92 31.81 45.88 32.1 45.84 32.37 45.79 32.62 45.76 32.74 45.73 32.84 45.69 32.93 45.65 33 45.46 33.3 45.23 33.64 44.97 34.02 44.7 34.43 44.57 34.64 44.44 34.86 44.32 35.07 44.21 35.28 44.1 35.49 44.01 35.7 43.94 35.9 43.87 36.1 43.82 36.27 43.79 36.43 43.75 36.59 43.72 36.75 43.7 36.91 43.69 37.06 43.67 37.2 43.66 37.33 43.66 37.47 43.66 37.58 43.67 37.7 43.67 37.79 43.69 37.88 43.72 37.95 43.74 38.01 43.78 38.06 43.81 38.08 43.86 38.09 43.91 38.08 43.96 38.05 44.02 38 44.08 37.92 44.16 37.83 44.23 37.72 44.32 37.58 44.41 37.4 44.5 37.2 44.6 36.97 44.71 36.72 44.82 36.44 44.94 36.12 45.06 35.77 45.17 35.5 45.27 35.23 45.39 34.98 45.52 34.74 45.6 34.62 45.68 34.49 45.76 34.37 45.85 34.25 45.95 34.12 46.06 34 46.18 33.87 46.3 33.74 46.34 33.68 46.39 33.63 46.44 33.56 46.47 33.51 46.54 33.36 46.59 33.21 46.64 33.06 46.68 32.89 46.7 32.71 46.73 32.54 46.76 32.17 46.79 31.81 46.81 31.47 46.84 31.16 46.86 31.03 46.87 30.88 46.89 30.68 46.9 30.47 46.91 30.22 46.92 29.93 46.93 29.63 46.94 29.28 46.94 29.04 46.94 28.82 46.93 28.62 46.93 28.44 46.92 28.28 46.92 28.15 46.91 28.03 46.9 27.94 46.78 27.14 46.74 26.9 46.7 26.72 46.67 26.59 46.64 26.5 46.62 26.43 46.58 26.34 46.55 26.24 46.51 26.13 46.68 26.12 46.83 26.11 46.98 26.09 47.09 26.07 47.19 26.02 47.28 25.98 47.31 25.96 47.34 25.92 47.37 25.89 47.4 25.86 47.41 25.82 47.41 25.74 47.41 25.63 47.41 25.49 47.41 25.46 47.4 25.42 47.38 25.39 47.35 25.36 47.33 25.33 47.3 25.31 47.25 25.28 47.2 25.25 47.09 25.22 46.96 25.19 46.81 25.17 46.63 25.15 46.38 25.16 46.12 25.17 45.85 25.19 45.56 25.21 45.3 25.23 45.09 25.24 44.93 25.24 44.83 25.22 44.71 25.22 44.51 25.22 44.23 25.2 43.87 25.17 43.67 25.17 43.5 25.18 43.42 25.2 43.34 25.21 43.27 25.23 43.2 25.25 43.13 25.28 43.08 25.31 43.02 25.35 42.97 25.39 42.93 25.43 42.88 25.48 42.85 25.54 42.82 25.59 42.77 25.66 42.75 25.73 42.74 25.79 42.74 25.86 42.75 25.92 42.76 25.99"/>
    <polygon class="cls-1" points="41.15 24.81 41.22 24.95 41.33 25.11 41.45 25.27 41.55 25.42 41.63 25.55 41.68 25.66 41.71 25.72 41.73 25.79 41.75 25.86 41.76 25.97 41.81 26.19 41.84 26.46 41.85 26.67 41.86 26.86 41.86 27.05 41.86 27.24 41.84 27.42 41.82 27.62 41.81 27.81 41.78 28.01 41.59 28.74 41.56 28.83 41.55 28.9 41.54 28.96 41.55 29.03 41.56 29.08 41.57 29.14 41.61 29.21 41.64 29.27 41.68 29.32 41.72 29.35 41.78 29.38 41.84 29.38 41.88 29.38 41.94 29.36 41.99 29.32 42.05 29.28 42.12 29.2 42.18 29.11 42.25 29 42.32 28.87 42.41 28.73 42.48 28.58 42.55 28.42 42.6 28.26 42.63 28.11 42.66 27.94 42.67 27.78 42.67 27.62 42.67 27.46 42.67 27.28 42.65 27.1 42.64 26.92 42.62 26.72 42.6 26.52 42.58 26.32 42.56 26.11 42.52 25.91 42.49 25.71 42.45 25.51 42.4 25.33 42.35 25.16 42.29 24.99 42.23 24.85 42.16 24.71 42.08 24.57 42.01 24.46 41.93 24.37 41.85 24.29 41.76 24.23 41.68 24.19 41.64 24.17 41.59 24.17 41.55 24.15 41.5 24.15 41.42 24.17 41.34 24.2 41.28 24.23 41.21 24.29 41.18 24.36 41.14 24.43 41.12 24.52 41.11 24.62 41.11 24.66 41.11 24.71 41.12 24.76 41.15 24.81"/>
    <polygon class="cls-1" points="42.6 35.12 42.58 34.98 42.55 34.84 42.53 34.69 42.51 34.53 42.5 34.37 42.49 34.18 42.49 33.99 42.49 33.79 42.5 33.59 42.5 33.41 42.5 33.22 42.5 33.07 42.5 32.91 42.5 32.76 42.5 32.64 42.49 32.51 42.49 32.3 42.5 32.08 42.51 31.87 42.54 31.68 42.57 31.5 42.59 31.38 42.61 31.29 42.63 31.26 42.62 31.15 42.61 31.07 42.59 30.99 42.56 30.92 42.51 30.87 42.46 30.83 42.4 30.8 42.32 30.79 42.26 30.79 42.2 30.81 42.14 30.83 42.08 30.86 42.03 30.89 41.99 30.94 41.95 31 41.91 31.07 41.88 31.14 41.86 31.22 41.83 31.31 41.81 31.41 41.8 31.52 41.78 31.63 41.78 31.76 41.78 31.89 41.75 33.51 41.72 33.61 41.72 33.67 41.75 34.04 41.73 34.05 41.73 34.06 41.73 34.07 41.75 34.07 41.9 35.85 41.92 35.98 41.98 36.23 42.02 36.39 42.06 36.58 42.1 36.81 42.13 37.06 42.16 37.29 42.19 37.49 42.23 37.65 42.27 37.77 42.29 37.82 42.32 37.86 42.34 37.9 42.37 37.92 42.39 37.93 42.42 37.95 42.44 37.95 42.47 37.95 42.49 37.93 42.51 37.92 42.54 37.9 42.57 37.86 42.61 37.79 42.66 37.7 42.7 37.59 42.74 37.46 42.77 37.32 42.8 37.16 42.82 37.02 42.83 36.89 42.83 36.76 42.83 36.63 42.81 36.37 42.77 36.11 42.73 35.86 42.69 35.61 42.64 35.35 42.6 35.12"/>
    <polygon class="cls-1" points="39.66 24.59 39.71 24.66 40.22 25.42 40.28 25.57 40.35 25.79 40.44 26.08 40.52 26.42 40.57 26.61 40.61 26.79 40.64 26.97 40.67 27.16 40.69 27.35 40.7 27.54 40.71 27.73 40.72 27.91 40.72 28.25 40.72 28.55 40.7 28.81 40.68 29.01 40.37 30.93 40.25 33.2 40.28 34.88 40.5 37.16 40.5 37.26 40.51 37.43 40.54 37.59 40.57 37.74 40.59 37.86 40.62 37.98 40.66 38.08 40.69 38.18 40.72 38.25 40.76 38.32 40.79 38.37 40.83 38.41 40.86 38.43 40.9 38.45 40.94 38.46 40.97 38.45 41.02 38.43 41.05 38.42 41.09 38.38 41.12 38.34 41.16 38.29 41.19 38.23 41.22 38.17 41.25 38.09 41.28 38.01 41.32 37.83 41.37 37.63 41.4 37.4 41.41 37.16 41.38 36.93 41.16 34.37 41.16 34.14 41.2 31.76 41.53 29.04 41.53 28.94 41.54 28.83 41.54 28.73 41.55 28.61 41.55 28.45 41.54 28.19 41.53 27.85 41.5 27.41 41.48 27.19 41.47 26.97 41.45 26.77 41.42 26.58 41.4 26.41 41.37 26.25 41.34 26.11 41.31 25.98 41.27 25.85 41.22 25.72 41.16 25.58 41.11 25.43 40.96 25.11 40.8 24.76 40.7 24.58 40.61 24.43 40.51 24.3 40.42 24.2 40.37 24.15 40.32 24.11 40.26 24.07 40.21 24.05 40.16 24.02 40.11 24.01 40.07 23.99 40 23.99 39.96 23.99 39.91 24 39.86 24.01 39.83 24.03 39.79 24.05 39.76 24.08 39.74 24.11 39.72 24.15 39.68 24.23 39.65 24.3 39.65 24.35 39.64 24.39 39.63 24.46 39.64 24.52 39.66 24.59"/>
    <polygon class="cls-1" points="39.35 27.89 39.34 28.01 39.32 28.1 39.31 28.18 39.29 28.24 39.25 28.34 39.21 28.43 39.18 28.52 39.15 28.61 38.85 29.25 38.8 29.36 38.78 29.47 38.76 29.56 38.76 29.65 38.76 29.74 38.77 29.82 38.8 29.89 38.84 29.95 38.86 29.96 38.89 29.98 38.91 29.99 38.95 30.01 39.01 30.02 39.09 30.02 39.13 30.02 39.16 30 39.21 29.99 39.25 29.97 39.33 29.92 39.41 29.83 39.49 29.73 39.58 29.61 39.67 29.47 39.76 29.29 39.84 29.11 39.92 28.93 39.99 28.73 40.05 28.52 40.09 28.31 40.12 28.09 40.15 27.87 40.16 27.64 40.16 27.52 40.15 27.38 40.13 27.21 40.11 27 40.09 26.8 40.07 26.63 40.05 26.5 40.02 26.4 39.99 26.29 39.92 26.13 39.83 25.93 39.72 25.68 39.65 25.55 39.58 25.43 39.51 25.34 39.45 25.25 39.37 25.19 39.31 25.14 39.23 25.11 39.15 25.09 39.11 25.1 39.06 25.1 39.01 25.11 38.98 25.12 38.95 25.14 38.91 25.16 38.88 25.19 38.86 25.22 38.83 25.25 38.81 25.29 38.8 25.33 38.78 25.37 38.76 25.47 38.76 25.59 38.76 25.66 38.77 25.73 38.79 25.79 38.81 25.86 39.31 26.63 39.32 26.75 39.34 26.88 39.35 27.05 39.36 27.24 39.36 27.6 39.35 27.89"/>
    <path class="cls-1" d="M43.8,31.53l.09.04.1.03.11.02.11.02h.24s.1-.02.1-.02l.11-.02.11-.03.1-.03.1-.04.09-.05.09-.05.09-.07.07-.07.06-.08.06-.09.05-.11.03-.11.03-.12.02-.13.03-.25.02-.23v-.19s.03-.17.03-.17v-.5l-.09-1.07-.02-.26v-.24s-.03-.2-.03-.2l-.02-.18-.02-.15-.02-.12-.03-.1-.03-.07-.03-.05-.02-.04-.03-.04-.03-.02-.04-.02-.03-.02h-.03s-.04-.01-.04-.01h-.05s-.05.02-.05.02l-.04.02-.05.03-.04.03-.03.03-.03.04-.03.05-.05.08-.03.06-.02.06v.11s.03.08.03.08v.06s.02.09.02.09l.02.12v.15s.02.15.02.15l.02.14v.12s.01.08.01.08v.08s.01.09.01.09v.09s.03.09.03.09l-.98.1v-.33l.03-.67v-.19s-.03-.16-.03-.16v-.07s-.03-.07-.03-.07l-.02-.06-.02-.05-.02-.04-.03-.03-.03-.04-.03-.02-.03-.03h-.03s-.04-.02-.04-.02h-.03s-.09.01-.09.01l-.08.03-.03.02-.03.02-.02.04-.03.02-.05.08-.03.09-.03.1-.02.12-.02.14v.14s-.02.17-.02.17v.36s0,.15,0,.15v.23s0,.08,0,.08v.15s.01.07.01.07v.68s.02.19.02.19v.18s.03.17.03.17v.16s.04.15.04.15l.03.14.03.14.03.12.04.11.04.1.05.09.05.09.05.07.07.07.08.08.08.07.09.06ZM43.9,29.51h0s.01-.02.01-.02l.95-.04v.53l-.02.16-.02.12-.02.06v.05s-.04.05-.04.05l-.02.04-.03.04-.03.03-.03.02-.03.02-.04.02h-.04s-.05.02-.05.02h-.1s-.05,0-.05,0h-.04s-.05-.02-.05-.02l-.04-.02-.04-.04-.03-.04-.03-.05-.03-.06-.03-.06-.02-.06-.02-.07v-.08s-.03-.07-.03-.07v-.08s-.02-.08-.02-.08v-.26s0-.08,0-.08v-.03h-.01Z"/>
    <polygon class="cls-1" points="47.18 62.75 46.38 62.55 45.56 62.35 44.72 62.15 43.87 61.93 43.02 61.71 42.18 61.49 41.37 61.26 40.58 61.03 39.84 60.8 39.15 60.58 38.82 60.47 38.51 60.36 38.23 60.25 37.95 60.15 37.7 60.04 37.48 59.94 37.27 59.84 37.08 59.74 36.84 59.61 36.57 59.49 36.29 59.39 36.01 59.3 35.72 59.22 35.42 59.15 35.11 59.1 34.79 59.06 34.48 59.02 34.15 59 33.82 58.98 33.48 58.98 33.14 58.98 32.79 59 32.45 59.02 32.1 59.04 31.76 59.08 31.41 59.12 31.06 59.17 30.71 59.22 30.36 59.27 30.02 59.33 29.68 59.4 29.35 59.47 28.69 59.61 28.06 59.76 27.45 59.92 26.87 60.08 26.5 60.19 26.13 60.3 25.78 60.43 25.42 60.55 25.07 60.7 24.72 60.82 24.39 60.98 24.07 61.12 24.45 61.36 24.84 61.59 25.24 61.81 25.65 62.04 26.05 62.25 26.46 62.45 26.87 62.64 27.29 62.84 27.7 63.03 28.13 63.21 28.56 63.37 28.99 63.54 29.42 63.7 29.86 63.84 30.31 63.98 30.75 64.11 31.2 64.25 31.65 64.36 32.1 64.47 32.56 64.58 33.02 64.67 33.49 64.77 33.94 64.84 34.41 64.91 34.89 64.97 35.36 65.03 35.84 65.07 36.31 65.11 36.79 65.14 37.27 65.16 37.75 65.18 38.25 65.18 38.59 65.18 38.93 65.17 39.27 65.16 39.61 65.14 39.96 65.13 40.3 65.11 40.63 65.08 40.97 65.05 41.31 65.01 41.64 64.97 41.97 64.92 42.31 64.87 42.64 64.82 42.96 64.77 43.29 64.7 43.63 64.64 44.27 64.5 44.92 64.34 45.55 64.17 46.19 63.98 46.81 63.78 47.43 63.56 48.04 63.33 48.64 63.09 47.93 62.92 47.18 62.75"/>
    <polygon class="cls-1" points="42.1 41.6 42.07 41.34 42.02 41.1 41.97 40.86 41.91 40.64 41.84 40.44 41.78 40.26 41.69 40.08 41.61 39.92 41.53 39.76 41.43 39.63 41.33 39.5 41.24 39.38 41.14 39.27 41.04 39.17 40.94 39.07 40.84 38.99 40.75 38.92 40.56 38.79 40.37 38.69 40.21 38.61 40.07 38.54 40.06 38.54 40.05 38.54 40 38.5 39.96 38.46 39.9 38.43 39.83 38.4 39.78 38.39 39.73 38.38 39.69 38.37 39.64 38.38 39.59 38.38 39.54 38.4 39.49 38.42 39.45 38.43 39.4 38.46 39.36 38.48 39.33 38.52 39.3 38.55 39.26 38.59 39.24 38.63 39.21 38.68 39.2 38.72 39.17 38.81 39.15 38.88 39.15 38.95 39.15 39.01 39.15 39.07 39.17 39.12 39.2 39.17 39.22 39.21 39.26 39.24 39.31 39.28 39.35 39.31 39.4 39.34 39.52 39.4 39.66 39.47 39.79 39.52 39.94 39.6 40.02 39.64 40.1 39.7 40.19 39.76 40.28 39.83 40.37 39.9 40.46 39.99 40.56 40.08 40.65 40.19 40.73 40.31 40.81 40.44 40.9 40.59 40.97 40.74 40.77 40.87 40.54 41.02 40.29 41.2 40.03 41.4 39.9 41.51 39.77 41.63 39.65 41.75 39.53 41.88 39.42 42.01 39.32 42.15 39.23 42.3 39.15 42.43 39.15 42.44 39.12 42.55 39.07 42.66 39.03 42.78 38.99 42.91 38.94 43.17 38.89 43.45 38.86 43.75 38.84 44.05 38.81 44.36 38.8 44.66 38.8 45.21 38.81 45.66 38.82 45.96 38.83 46.08 38.84 46.13 38.85 46.18 38.86 46.23 38.89 46.28 38.9 46.32 38.94 46.36 38.97 46.4 39 46.43 39.04 46.46 39.08 46.48 39.12 46.51 39.17 46.53 39.22 46.54 39.26 46.55 39.31 46.56 39.37 46.56 39.42 46.55 39.47 46.54 39.51 46.53 39.56 46.5 39.61 46.47 39.65 46.45 39.68 46.41 39.72 46.38 39.75 46.35 39.77 46.31 39.8 46.26 39.82 46.21 39.83 46.17 39.84 46.12 39.84 46.07 39.84 46.02 39.83 45.91 39.82 45.64 39.82 45.23 39.81 44.75 39.82 44.49 39.82 44.22 39.84 43.96 39.87 43.71 39.91 43.46 39.95 43.24 39.97 43.14 40 43.04 40.03 42.95 40.07 42.87 40.1 42.79 40.16 42.71 40.21 42.63 40.28 42.56 40.42 42.4 40.57 42.25 40.74 42.11 40.92 41.99 41.08 41.87 41.24 41.76 41.27 41.96 41.28 42.18 41.29 42.4 41.29 42.65 41.28 42.9 41.27 43.17 41.24 43.45 41.2 43.74 41.2 43.75 41.2 43.75 41.15 44.09 41.1 44.41 41.04 44.73 40.98 45.05 40.92 45.35 40.85 45.65 40.78 45.93 40.7 46.21 40.56 46.75 40.4 47.25 40.24 47.72 40.08 48.15 39.92 48.55 39.77 48.91 39.62 49.23 39.49 49.53 39.36 49.77 39.25 49.99 39.15 50.16 39.09 50.3 39.02 50.41 38.97 50.52 38.93 50.61 38.91 50.7 38.91 50.75 38.91 50.79 38.93 50.83 38.95 50.88 38.96 50.93 38.99 50.97 39.04 51.02 39.08 51.07 39.13 51.11 39.17 51.15 39.22 51.18 39.26 51.2 39.31 51.23 39.36 51.24 39.4 51.24 39.45 51.25 39.49 51.24 39.54 51.24 39.58 51.22 39.63 51.2 39.67 51.17 39.72 51.14 39.76 51.1 39.82 51.05 39.86 50.99 39.91 50.94 39.93 50.86 39.96 50.79 39.96 50.79 39.96 50.79 39.96 50.75 39.96 50.7 39.98 50.64 40 50.56 40.07 50.35 40.16 50.08 40.27 49.74 40.42 49.37 40.57 48.95 40.73 48.47 40.9 47.97 41.08 47.45 41.26 46.89 41.43 46.31 41.61 45.71 41.76 45.11 41.84 44.8 41.91 44.49 41.97 44.18 42.03 43.87 42.08 43.49 42.12 43.13 42.13 42.79 42.14 42.46 42.14 42.16 42.13 41.87 42.1 41.6"/>
    <polygon class="cls-1" points="39.82 33.64 40.07 31.36 40.06 31.26 40.04 31.19 40.01 31.11 39.98 31.05 39.95 31.01 39.9 30.98 39.84 30.96 39.8 30.95 39.73 30.97 39.68 30.98 39.63 31 39.58 31.03 39.54 31.05 39.5 31.09 39.47 31.12 39.44 31.16 39.41 31.21 39.39 31.27 39.36 31.35 39.34 31.44 39.29 31.67 39.25 31.96 38.99 33.7 38.97 35.12 38.99 35.58 38.99 35.76 38.98 35.95 38.98 36.12 38.99 36.29 39 36.46 39.02 36.62 39.05 36.78 39.07 36.92 39.11 37.06 39.14 37.18 39.18 37.31 39.22 37.41 39.26 37.51 39.31 37.6 39.36 37.67 39.4 37.74 39.46 37.77 39.49 37.81 39.55 37.82 39.59 37.82 39.63 37.8 39.67 37.76 39.72 37.7 39.75 37.63 39.78 37.53 39.81 37.41 39.83 37.27 39.84 37.11 39.85 36.93 39.86 36.72 39.86 36.48 39.85 36.21 39.82 35.51 39.8 35.32 39.79 35.16 39.78 35.05 39.8 34.98 39.82 33.64"/>
    <polygon class="cls-1" points="37.92 45.52 37.87 45.35 37.81 45.17 37.68 44.73 37.5 44.2 37.47 44.14 37.44 44.07 37.4 44.01 37.36 43.96 37.32 43.89 37.27 43.84 37.22 43.79 37.15 43.74 37.09 43.69 37.02 43.64 36.96 43.6 36.87 43.54 36.7 43.47 36.51 43.4 36.3 43.33 36.07 43.26 35.83 43.21 35.56 43.17 35.28 43.13 34.98 43.1 34.66 43.07 34.32 43.05 34.32 43 34.29 42.91 34.24 42.82 34.19 42.75 34.15 42.69 34.1 42.62 34.06 42.57 34.01 42.53 33.97 42.5 33.92 42.46 33.87 42.44 33.82 42.43 33.77 42.43 33.71 42.43 33.67 42.43 33.62 42.45 33.57 42.48 33.57 42.59 33.52 42.71 33.46 42.82 33.39 42.91 33.33 42.98 33.26 43.04 33.18 43.08 33.14 43.1 33.1 43.1 33.06 43.11 33.02 43.11 32.71 43.12 32.41 43.15 32.14 43.17 31.88 43.21 31.64 43.26 31.42 43.31 31.2 43.37 31.02 43.45 30.84 43.52 30.68 43.61 30.53 43.71 30.41 43.81 30.35 43.87 30.3 43.93 30.25 43.99 30.2 44.05 30.16 44.11 30.12 44.18 30.09 44.24 30.06 44.31 30.02 44.4 29.98 44.47 29.95 44.51 29.91 44.56 29.86 44.62 29.81 44.7 29.78 44.75 29.76 44.81 29.73 44.89 29.71 44.99 29.68 45.12 29.66 45.28 29.64 45.47 29.62 45.7 29.58 46.15 29.55 46.56 29.55 46.93 29.55 47.26 29.57 47.53 29.6 47.77 29.62 47.87 29.64 47.97 29.65 48.05 29.68 48.12 29.74 48.14 29.8 48.16 29.86 48.17 29.9 48.17 29.95 48.16 30 48.14 30.04 48.12 30.07 48.08 30.11 48.05 30.14 48 30.16 47.94 30.19 47.87 30.21 47.81 30.22 47.73 30.23 47.64 30.24 47.54 30.25 46.98 30.26 46.54 30.27 46.36 30.28 46.19 30.3 46.04 30.32 45.89 30.34 45.76 30.36 45.62 30.4 45.49 30.44 45.36 30.54 45.04 30.67 44.66 30.7 44.6 30.73 44.55 30.76 44.5 30.81 44.44 30.85 44.39 30.9 44.35 30.95 44.3 31.02 44.25 31.15 44.17 31.31 44.11 31.48 44.04 31.67 43.98 31.89 43.93 32.13 43.89 32.38 43.86 32.65 43.83 32.93 43.81 33.24 43.8 33.57 43.8 33.92 43.8 33.98 43.8 34.05 43.8 34.31 43.79 34.56 43.79 34.79 43.8 35.02 43.8 35.24 43.83 35.43 43.86 35.62 43.89 35.79 43.95 35.95 43.99 36.1 44.05 36.24 44.13 36.36 44.21 36.48 44.3 36.58 44.39 36.66 44.49 36.73 44.6 36.79 44.69 36.84 44.78 36.89 44.89 36.94 45.01 36.98 45.14 37.02 45.29 37.06 45.44 37.1 45.61 37.18 45.97 37.24 46.39 37.31 46.85 37.35 47.24 37.34 47.15 37.32 46.91 37.31 46.64 37.28 46.37 37.26 46.15 37.26 46.02 37.26 46.01 37.32 46.34 37.37 46.64 37.41 46.91 37.45 47.16 37.5 47.38 37.54 47.56 37.57 47.72 37.6 47.85 37.63 47.9 37.66 47.95 37.68 47.98 37.71 48.02 37.75 48.04 37.79 48.06 37.83 48.08 37.88 48.08 37.93 48.06 37.97 48.03 38.01 48.01 38.04 47.97 38.06 47.94 38.08 47.89 38.09 47.84 38.09 47.79 38.09 47.14 38.07 46.63 38.06 46.41 38.04 46.21 38.02 46.03 38 45.87 37.96 45.69 37.92 45.52"/>
    <polygon class="cls-1" points="29.5 40.6 29.52 40.88 29.54 41.16 29.57 41.44 29.62 41.6 29.66 41.74 29.71 41.88 29.76 42 29.81 42.12 29.86 42.23 29.91 42.33 29.97 42.42 30.03 42.5 30.09 42.58 30.15 42.64 30.21 42.7 30.27 42.74 30.34 42.78 30.4 42.8 30.47 42.82 30.67 42.83 30.86 42.83 31.04 42.84 31.2 42.85 31.36 42.87 31.52 42.89 31.65 42.91 31.78 42.94 31.89 42.91 31.97 42.86 32.02 42.84 32.04 42.81 32.06 42.78 32.09 42.75 32.1 42.72 32.12 42.68 32.12 42.65 32.12 42.6 32.11 42.56 32.1 42.52 32.07 42.47 32.06 42.42 31.93 42.38 31.81 42.34 31.67 42.32 31.53 42.3 31.4 42.27 31.25 42.26 31.11 42.25 30.95 42.24 30.88 42.23 30.82 42.2 30.76 42.17 30.71 42.14 30.65 42.1 30.6 42.05 30.55 42.01 30.51 41.96 30.46 41.91 30.42 41.85 30.39 41.8 30.36 41.74 30.33 41.67 30.31 41.6 30.28 41.52 30.26 41.44 30.23 41.39 30.22 41.33 30.2 41.28 30.2 41.22 30.31 41.26 30.43 41.3 30.58 41.34 30.75 41.38 30.92 41.41 31.12 41.44 31.34 41.48 31.57 41.51 31.65 41.49 31.71 41.45 31.73 41.44 31.75 41.41 31.77 41.39 31.78 41.36 31.78 41.33 31.79 41.29 31.78 41.26 31.78 41.22 31.76 41.13 31.71 41.04 31.53 40.97 31.38 40.91 31.28 40.88 31.23 40.87 31.02 40.85 30.82 40.8 30.67 40.76 30.52 40.71 30.41 40.66 30.31 40.6 30.27 40.57 30.24 40.53 30.22 40.5 30.2 40.47 30.2 40.29 30.22 40.13 30.23 39.95 30.26 39.79 30.44 39.86 30.62 39.93 30.81 40 31.01 40.05 31.2 40.1 31.42 40.14 31.62 40.17 31.85 40.18 31.88 40.13 31.9 40.07 31.91 40.01 31.91 39.95 31.91 39.9 31.9 39.83 31.88 39.79 31.85 39.73 31.68 39.63 31.54 39.55 31.47 39.53 31.41 39.51 31.35 39.49 31.3 39.49 31.13 39.45 30.98 39.39 30.84 39.33 30.71 39.27 30.6 39.2 30.5 39.11 30.41 39.02 30.33 38.92 30.31 38.78 30.28 38.66 30.24 38.54 30.19 38.44 30.14 38.36 30.07 38.28 30 38.23 29.91 38.18 29.87 38.2 29.84 38.23 29.8 38.27 29.76 38.31 29.73 38.35 29.7 38.41 29.67 38.47 29.64 38.53 29.6 38.69 29.55 38.85 29.53 39.05 29.5 39.27 29.49 39.53 29.48 39.79 29.48 40.05 29.49 40.33 29.5 40.6"/>
    <path class="cls-1" d="M64.87,41.83l.09-.7.07-.69.04-.7.03-.71v-.72s-.03-1.38-.03-1.38l-.1-1.36-.18-1.34-.23-1.32-.3-1.3-.37-1.28-.41-1.24-.49-1.21-.54-1.2-.59-1.16-.65-1.13-.7-1.08-.75-1.06-.79-1.02-.86-.97-.89-.94-.94-.89-.98-.85-1.01-.79-1.06-.75-1.08-.7-1.13-.65-1.16-.59-1.19-.54-1.21-.49-1.24-.41-1.28-.37-1.3-.3-1.32-.24-1.34-.18-1.36-.11-1.38-.03-1.39.03-1.36.11-1.34.18-1.32.24-1.3.3-1.28.37-1.24.41-1.21.49-1.2.54-1.16.59-1.13.65-1.08.7-1.06.75-1.01.79-.97.85-.94.89-.89.94-.86.97-.79,1.02-.75,1.06-.7,1.08-.65,1.13-.59,1.16-.54,1.2-.48,1.21-.41,1.24-.37,1.28-.3,1.3-.24,1.32-.18,1.34-.1,1.36-.04,1.38v.72s.04.71.04.71l.04.7.07.7.09.69.1.69.12.68.13.68.15.67.17.66.18.66.2.65.22.64.23.64.25.63.26.63.28.61.29.61.31.59.32.59.35.58.35.56.36.56.38.55.39.54.4.54.41.51.44.51.43.51.46.49.46.47.47.46.44-.14.48-.15.51-.15.55-.14.59-.14.61-.13.32-.07.33-.06.34-.06.33-.05.34-.05.35-.04.35-.04.36-.03.36-.02.37-.02.37-.02h.37s.38-.01.38-.01h.38s.38.02.38.02l.38.02.38.03.39.03.39.05.39.06.59.09.58.1.59.11.58.11,1.18.23,1.18.24,1.18.25,1.16.23,1.15.23,1.14.23.57.11.56.1.56.1.56.09.55.09.54.07.54.07.54.07.53.05.51.05.52.03.52.02h.5s.5.01.5.01h.49s.48-.03.48-.03l.44-.03.47-.04.5-.06.51-.07.52-.07.54-.09.56-.09.57-.1.58-.1.58-.11.59-.11.6-.12.6-.12.59-.13.6-.14.58-.12.48-.47.46-.47.45-.5.44-.5.42-.51.42-.52.4-.53.39-.53.37-.55.36-.56.35-.58.34-.58.32-.59.31-.6.29-.6.28-.62.26-.61.24-.62.23-.64.22-.65.2-.65.18-.65.17-.67.15-.67.13-.68.12-.68.1-.69ZM25.68,19.82h6.11v3.78h3.13v-3.78h6.78v3.78h3.13v-3.78h5.96v21.28l-.02.64-.05.63-.09.63-.11.61-.14.61-.16.59-.2.59-.23.57-.26.56-.27.54-.3.53-.33.51-.35.49-.37.47-.4.46-.42.43-.43.42-.46.4-.17.13.02-.04v-.04s.03-.05.03-.05v-.09l-.02-.09-.03-.09-.05-.11-.07-.11-.07-.14-.1-.17-.11-.22-.13-.25-.14-.29-.15-.34-.16-.37-.16-.4-.17-.43-.16-.47-.16-.5-.16-.54-.08-.28-.07-.29-.07-.29-.07-.31-.06-.32-.06-.31-.06-.34-.05-.33h0v-.02l-.04-.32-.02-.3-.02-.28v-.52l.02-.24v-.23s.05-.21.05-.21l.16.09.19.12.21.14.21.16.11.08.1.09.1.09.09.09.09.1.07.1.07.1.06.1.03.08.03.09.03.1.02.1.04.23.03.24.03.25v.26s.03.27.03.27v1.15s-.02.27-.02.27v.1s0,.06,0,.06v.1s.03.04.03.04v.05s.04.04.04.04l.02.04.03.03.03.03.03.04.04.02.04.03.04.03h.05s.05.02.05.02h.05s.05,0,.05,0h.05s.05-.02.05-.02h.05s.05-.03.05-.03l.04-.02.04-.02.03-.02.03-.03.03-.04.02-.04.02-.04.03-.05v-.05s.02-.05.02-.05v-.05s0-.12,0-.12l.02-.31v-.45s0-.55,0-.55l-.02-.3v-.3s-.04-.3-.04-.3l-.03-.3-.04-.28-.06-.26-.03-.13-.04-.12-.04-.11-.04-.1h0s-.09-.16-.09-.16l-.09-.15-.11-.15-.12-.14-.13-.13-.13-.14-.14-.11-.14-.12-.27-.21-.26-.18-.24-.15-.19-.11h0v.02l-.03-.03-.03-.03-.03-.03-.04-.03.08-.14.08-.12.09-.12.08-.1.09-.09.08-.1.09-.07.09-.07.17-.11.16-.09.14-.07.12-.05.14-.06.13-.06.06-.03.05-.03.04-.03.03-.05.03-.04.02-.04.02-.05v-.05s0-.06,0-.06v-.08s-.02-.07-.02-.07l-.02-.09-.02-.05-.02-.04-.03-.04-.02-.04-.03-.03-.04-.03-.04-.02-.04-.03-.04-.02-.04-.02-.05-.02h-.2s-.05.02-.05.02l-.05.02-.06.03-.05.03-.04.04h-.01l-.24.17-.23.17-.22.17-.21.18-.1.09-.1.1-.09.1-.09.12-.09.1-.09.13-.08.12-.08.14-.07.14-.07.15-.06.17-.06.17-.06.18-.04.19-.04.21-.04.22-.03.24-.02.24-.02.26v.27s-.01.29-.01.29v.3s.01.32.01.32l.02.33.17.7.17.68.17.64.17.6.17.58.17.53.16.49.16.47.14.41.14.39.12.34.12.31.1.27.09.23.08.18.06.15h.01s.02.08.02.08l.02.07.04.07.05.05.05.05.04.03.05.04.04.02.05.03h.04s.05.02.05.02h.09l-.37.26-.51.33-.53.3-.54.27-.56.26-.57.23-.59.2-.59.17-.61.14-.62.11-.62.08-.63.05-.64.02-.65-.02-.63-.05-.63-.08-.61-.11-.61-.14-.59-.17-.59-.2-.57-.23-.56-.26-.54-.27-.52-.3-.51-.33-.49-.35-.48-.37-.46-.4-.43-.42-.42-.43-.39-.46-.38-.47-.35-.49-.33-.51-.31-.53-.28-.54-.25-.56-.23-.57-.2-.59-.18-.59-.13-.61-.11-.61-.08-.63-.05-.63v-.64s-.01-21.28-.01-21.28ZM53.11,41.61l-.02.77-.06.75-.1.74-.12.73-.16.72-.21.7-.23.69-.27.67-.3.66-.32.64-.36.62-.39.61-.42.58-.44.56-.47.54-.49.52-.52.49-.54.47-.56.44-.58.42-.6.38-.63.37-.64.32-.66.3-.67.27-.7.23-.7.2-.72.17-.73.14-.74.09-.75.06-.76.02-.77-.02-.75-.06-.74-.09-.73-.14-.72-.17-.7-.2-.69-.23-.68-.27-.66-.3-.64-.32-.62-.37-.6-.38-.59-.42-.56-.44-.54-.47-.52-.49-.49-.52-.47-.54-.44-.56-.42-.58-.39-.61-.36-.62-.33-.64-.3-.66-.27-.67-.24-.69-.2-.7-.17-.72-.13-.73-.09-.74-.06-.75-.02-.77v-21.47h1.16v21.22l.02.7.06.69.08.69.13.68.15.66.19.65.22.64.25.62.27.61.3.59.33.58.36.55.38.54.41.52.43.5.45.47.47.46.5.43.51.41.54.38.56.36.57.33.59.3.61.28.62.25.63.22.65.18.66.16.68.12.68.09.69.05.71.02.7-.02.69-.05.69-.09.67-.12.66-.16.65-.18.64-.22.62-.25.6-.28.6-.3.58-.33.56-.36.53-.38.52-.41.5-.43.47-.46.46-.47.42-.5.41-.52.38-.54.36-.55.34-.58.3-.59.28-.61.25-.62.21-.64.18-.65.16-.66.11-.68.1-.69.05-.69v-.7s.01-21.22.01-21.22h1.16v21.47Z"/>
    <polygon class="cls-1" points="29.58 31.4 29.6 31.73 29.61 31.85 29.61 31.9 29.62 31.95 29.63 32 29.65 32.05 29.68 32.1 29.71 32.13 29.74 32.17 29.77 32.21 29.81 32.24 29.85 32.26 29.89 32.29 29.94 32.3 29.98 32.32 30.03 32.33 30.08 32.33 30.13 32.33 30.19 32.33 30.24 32.31 30.28 32.3 30.33 32.28 30.37 32.25 30.41 32.23 30.45 32.2 30.48 32.16 30.51 32.13 30.54 32.09 30.57 32.05 30.58 31.99 30.6 31.95 30.6 31.9 30.61 31.85 30.61 31.79 30.6 31.69 30.59 31.38 30.57 30.94 30.56 30.43 30.56 29.89 30.57 29.38 30.57 29.15 30.59 28.95 30.61 28.78 30.65 28.66 30.68 28.56 30.71 28.45 30.73 28.35 30.75 28.25 30.78 28.13 30.82 28 30.84 27.94 30.87 27.89 30.92 27.83 30.95 27.78 31.02 27.73 31.08 27.69 31.16 27.65 31.25 27.61 31.36 27.57 31.48 27.55 31.62 27.52 31.78 27.5 31.78 27.5 31.91 27.49 32.06 27.48 32.25 27.47 32.44 27.46 32.61 27.45 32.76 27.44 32.92 27.43 33.08 27.43 33.08 27.78 33.08 28.13 33.08 28.44 33.08 28.73 33.07 28.97 33.06 29.18 33.05 29.32 33.03 29.39 29.65 37.08 29.63 37.13 29.62 37.18 29.61 37.23 29.61 37.28 29.61 37.33 29.62 37.38 29.62 37.42 29.64 37.48 29.65 37.51 29.68 37.56 29.71 37.6 29.74 37.63 29.77 37.67 29.81 37.7 29.86 37.73 29.9 37.75 29.95 37.77 30 37.78 30.05 37.79 30.1 37.79 30.15 37.79 30.2 37.78 30.24 37.77 30.29 37.76 30.33 37.74 30.37 37.72 30.41 37.68 30.45 37.66 30.49 37.62 30.51 37.58 30.55 37.54 30.57 37.49 33.61 30.59 33.78 30.94 33.95 31.3 34.12 31.66 34.28 32.02 34.44 32.38 34.6 32.74 34.75 33.1 34.91 33.45 35.12 33.95 35.32 34.45 35.52 34.94 35.72 35.43 35.91 35.92 36.1 36.42 36.29 36.91 36.47 37.4 36.49 37.45 36.52 37.49 36.54 37.53 36.58 37.58 36.61 37.61 36.65 37.63 36.7 37.67 36.73 37.68 36.78 37.7 36.83 37.72 36.87 37.73 36.92 37.74 36.97 37.74 37.02 37.73 37.07 37.72 37.12 37.7 37.16 37.67 37.21 37.65 37.25 37.63 37.29 37.59 37.32 37.56 37.35 37.51 37.38 37.48 37.4 37.43 37.42 37.39 37.43 37.35 37.44 37.3 37.44 37.25 37.44 37.2 37.44 37.15 37.43 37.1 37.41 37.05 37.22 36.55 37.04 36.05 36.84 35.55 36.64 35.05 36.45 34.55 36.24 34.05 36.04 33.55 35.84 33.07 35.63 32.57 35.41 32.09 35.19 31.59 34.97 31.11 34.74 30.63 34.51 30.14 34.28 29.67 34.03 29.19 34.04 29.01 34.05 28.81 34.06 28.59 34.07 28.38 34.07 28.14 34.07 27.9 34.07 27.66 34.07 27.41 34.4 27.41 34.7 27.42 34.98 27.43 35.23 27.45 35.45 27.47 35.64 27.48 35.78 27.5 35.87 27.54 35.92 27.56 35.97 27.58 36.02 27.63 36.08 27.67 36.13 27.73 36.17 27.78 36.21 27.84 36.25 27.92 36.29 27.99 36.33 28.08 36.36 28.17 36.39 28.27 36.42 28.38 36.45 28.49 36.47 28.62 36.48 28.75 36.49 28.9 36.5 29.05 36.5 29.22 36.5 29.4 36.48 29.97 36.48 30.47 36.49 30.91 36.51 31.25 36.53 31.53 36.54 31.73 36.56 31.85 36.57 31.89 36.58 31.94 36.59 31.99 36.61 32.04 36.63 32.09 36.66 32.13 36.69 32.16 36.72 32.2 36.76 32.23 36.8 32.25 36.85 32.28 36.89 32.3 36.94 32.31 36.98 32.32 37.03 32.33 37.08 32.33 37.14 32.33 37.19 32.31 37.23 32.3 37.28 32.28 37.32 32.26 37.36 32.23 37.4 32.21 37.44 32.17 37.46 32.13 37.5 32.09 37.51 32.05 37.54 32 37.55 31.95 37.56 31.91 37.56 31.86 37.57 31.81 37.56 31.76 37.55 31.72 37.55 31.61 37.53 31.43 37.51 31.18 37.5 30.85 37.49 30.45 37.5 29.98 37.5 29.44 37.51 29.19 37.5 28.96 37.5 28.76 37.47 28.55 37.44 28.36 37.41 28.18 37.37 28.01 37.32 27.87 37.27 27.72 37.21 27.58 37.15 27.46 37.08 27.34 37.01 27.23 36.95 27.14 36.87 27.05 36.8 26.96 36.73 26.9 36.66 26.85 36.59 26.79 36.52 26.75 36.45 26.7 36.38 26.67 36.31 26.63 36.24 26.6 36.11 26.56 35.93 26.52 35.7 26.49 35.43 26.46 35.13 26.44 34.8 26.43 34.44 26.42 34.07 26.41 34.07 26.15 34.07 25.91 34.07 25.69 34.07 25.5 34.06 25.35 34.06 25.23 34.06 25.16 34.06 25.13 34.06 25.08 34.04 25.03 34.03 24.98 34.02 24.94 33.99 24.9 33.97 24.86 33.94 24.81 33.9 24.78 33.87 24.74 33.83 24.72 33.78 24.7 33.74 24.68 33.69 24.66 33.65 24.64 33.6 24.64 33.54 24.64 33.49 24.64 33.44 24.66 33.39 24.66 33.35 24.68 33.31 24.71 33.27 24.73 33.22 24.76 33.19 24.8 33.16 24.83 33.13 24.87 33.11 24.91 33.08 24.96 33.07 25.01 33.06 25.05 33.05 25.11 33.05 25.15 33.05 25.18 33.05 25.25 33.06 25.37 33.06 25.52 33.06 25.71 33.07 25.92 33.07 26.17 33.08 26.43 32.89 26.43 32.72 26.43 32.55 26.44 32.39 26.45 32.23 26.46 32.06 26.47 31.88 26.49 31.69 26.51 31.68 26.51 31.67 26.51 31.39 26.54 31.14 26.58 31.02 26.62 30.92 26.64 30.82 26.67 30.72 26.71 30.63 26.75 30.55 26.78 30.47 26.82 30.41 26.87 30.34 26.92 30.28 26.96 30.22 27.02 30.17 27.06 30.09 27.16 30.01 27.28 29.96 27.4 29.9 27.52 29.86 27.65 29.82 27.77 29.8 27.91 29.76 28.04 29.74 28.12 29.73 28.19 29.71 28.27 29.69 28.34 29.65 28.5 29.62 28.7 29.59 28.94 29.57 29.2 29.56 29.49 29.55 29.78 29.55 30.08 29.55 30.37 29.56 30.94 29.58 31.4"/>
    <path class="cls-1" d="M37.5,38.28l-.05.02-.05.02-.04.02-.04.02-.04.03-.03.03-.03.03-.03.04-.06.09-.04.11-.03.12-.02.13-.09.06-.09.06-.1.05-.11.05-.24.1-.26.09h-.07s-.08.02-.08.02l-.07.02-.08.04-.08.04-.08.05-.08.06-.09.07-.07.06-.04.06-.03.05v.06s0,.03,0,.03v.02s.02.01.02.01h.02s.03.02.03.02h.03s.04,0,.04,0l.05-.02.24-.02.23-.03.22-.02.2-.03.19-.04.18-.04.17-.05.16-.05.02.06.03.07v.07s.01.09.01.09l.03.1.02.09.02.09v.07l-.05.02-.07.04-.1.05-.12.05-.1.09-.09.06-.09.05-.06.04-.08.06-.22.08-.18.07-.13.08-.1.06.02-.06v-.11l-.02-.05-.02-.05-.02-.04-.04-.05-.05-.04-.07-.06-.07-.06-.2-.19-.19-.16-.19-.15-.17-.14-.17-.13-.16-.12-.15-.11-.14-.09h.06s.02-.02.02-.02h.01s.02-.02.02-.02v-.03s.01-.01.01-.01v-.03l.17-.12.14-.12.13-.12.1-.11.09-.11.07-.1.04-.09.02-.09v-.04s-.02-.05-.02-.05v-.03s-.03-.04-.03-.04l-.02-.02-.02-.03-.03-.02-.02-.02h-.04s-.04-.02-.04-.02h-.08l-.1.02-.11.03-.09.07-.17.17-.27.26-.36.36-.08-.03-.07-.05-.07-.07-.07-.07-.12-.06-.1-.05-.07-.03-.05-.03-.09-.05-.15-.08-.19-.12-.25-.16-.07-.02-.06-.02-.04-.03-.04-.02-.06.06-.04.08-.04.07-.03.07v.07s-.03.07-.03.07v.12l.02.07v.05s.05.06.05.06l.04.05.04.06.06.05.07.06.08.05.13.06.2.08.2.09.18.09.18.08-.1.12-.1.11-.09.1-.08.08-.09.08-.08.06-.08.05-.07.03-.05.05-.06.06-.07.07-.07.08-.14.19-.17.23-.06.04-.04.02-.02.04v.02s-.03.08-.03.08v.08s0,.03,0,.03v.03s.02.03.02.03l.02.02.03.02h.03s.03,0,.03,0h.03s.03-.01.03-.01l.04-.02.03-.02.03-.02.11-.08.14-.1.17-.14.19-.15.15.09.16.12.19.14.2.16-.23.25-.2.23-.18.21-.16.18-.13.16-.12.14-.09.12-.07.1-.02.04-.02.03v.03s-.02.03-.02.03v.02s.02.03.02.03h.02s.02.03.02.03l.03.03h.01s.03.03.03.03h.07l.04-.02h.04s.05-.04.05-.04l.09-.05.1-.07.1-.07.11-.09.11-.11.12-.13.13-.13.13-.15.07-.06.07-.06.1-.09.09-.09.09-.07.07-.03.11.1.14.13.17.16.19.18.23.19.18.18.16.14.12.13.06.04.05.02.05.03h.05s.06.02.06.02h.05s.05-.02.05-.02l.05-.02.03-.04v-.05s.03-.04.03-.04v-.1l-.02-.06v-.05s-.05-.06-.05-.06l-.05-.07-.09-.09-.11-.13-.14-.15-.18-.18-.21-.2-.25-.23-.28-.26.17-.14.16-.13.15-.12.14-.12.07.03.07.03.07.05.07.05.1.08.08.07.06.05.05.03.03.03.03.02h.03s.03.01.03.01h.03s.03,0,.03,0h.03s.03-.02.03-.02v.07s0,.07,0,.07v.03s.01.03.01.03l.02.03.02.02h.02s.02.03.02.03h.03s.03.01.03.01h.18s.11-.01.11-.01l.12-.02.13-.02.15-.03.16-.05.17-.05.19-.07.2-.09v.23l-.03.18-.02.16-.03.12-.04.11-.03.04v.03s-.05.03-.05.03l-.02.03-.02.02h-.03s-.03.02-.03.02h-.03s-.15.04-.15.04l-.14.03-.14.04-.13.05-.12.05-.12.06-.11.07-.11.07-.02.06-.02.05-.02.05v.04s-.02.04-.02.04v.08s.02.02.02.02l.03.03.02.02.03.02h.04s.04.02.04.02h.06s.06.02.06.02h.07l.22-.03.21-.04.2-.05.17-.05.16-.07.15-.07.13-.09.11-.08.06-.05.04-.05.05-.05.04-.06.03-.05.04-.06.02-.07.02-.06.03-.07.02-.06v-.08s.01-.07.01-.07v-.14s0-.16,0-.16v-2.29l-.04-.19-.04-.17-.05-.14-.06-.12-.03-.05-.02-.05-.04-.03-.03-.03-.03-.03-.04-.02h-.04s-.04-.04-.04-.04ZM34.29,40.45l-.13.1-.14.12-.16.14-.17-.14-.18-.12-.17-.1-.17-.1.08-.07.12-.1.12-.08.1-.08.07-.07.05-.06.16.1.18.1.17.12.17.13-.11.1Z"/>
    <path class="cls-1" d="M36.43,47.47l-.02-.04-.02-.03-.03-.02-.03-.02-.05-.02h-.05l-.04.02-.04.02-.04.03-.04.05-.04.05-.03.06-.08.13-.08.11-.07.11-.09.11-.1.09-.09.1-.1.08-.11.08-.11.08-.12.06-.12.07-.12.06-.13.05-.14.05-.14.04-.14.03v-.1s.01-.2.01-.2v-.26s-.01-.3-.01-.3v-.32s-.02-.29-.02-.29v-.04s-.03,0-.03,0v-.37.17s.03.2.03.2l.13-.02.15-.03.14-.05.13-.04.12-.07.12-.07.1-.08.09-.09.08-.1.07-.11.07-.12.05-.12.04-.13.03-.15.02-.16v-.16s0-.12,0-.12v-.11s-.03-.05-.03-.05v-.05s-.04-.05-.04-.05l-.03-.05-.03-.05-.03-.04-.04-.04-.04-.04-.05-.04-.05-.03-.06-.04-.06-.02-.13-.06-.13-.05-.14-.04-.14-.03-.15-.03-.16-.02h-.16s-.16,0-.16,0h-.35s-.18.03-.18.03l-.18.03-.19.03-.2.03-.2.05-.2.06-.05.02-.05.02-.04.02-.04.03-.04.03-.03.04-.04.04-.02.04-.02.06-.03.06v.06s-.03.06-.03.06v.07s-.02.08-.02.08v.17l.02.15v.13s.05.14.05.14l.05.12.06.12.06.11.08.1.09.1.1.09.11.08.12.08.13.07.15.06.15.05.17.05.17.04v.32s.02.2.02.2v.22s.01.21.01.21l.02.21v.31s-.14-.05-.14-.05l-.14-.06-.15-.07-.14-.07-.14-.09-.15-.08-.14-.09-.14-.1-.14-.11-.14-.12-.14-.12-.13-.13-.14-.14-.14-.14-.13-.15-.14-.15-.03-.04-.03-.03-.02-.02h-.03s-.02-.01-.02-.01h-.02l-.02.02v.02s-.05.03-.05.03l-.02.03v.04s-.03.05-.03.05v.17s.02.07.02.07l.03.16.06.15.07.15.08.14.09.14.12.14.13.13.14.13.17.12.17.11.2.12.21.11.23.11.24.11.25.1.28.09-.03.28-.02.16v.07s0,.02,0,.02h-.04s-.06,0-.06,0l-.04.02-.06.03-.08.06-.08.09-.18.17-.18.21-.19.22-.2.25-.03.11v.09s0,.04,0,.04v.07s.03.03.03.03l.04.02.07.02.09.03h.09s.09.02.09.02h.17s.07-.03.07-.03l.4-.24.3-.18.11-.08.1-.06.07-.07.07-.07.05-.09.04-.09.03-.11.02-.12.05-.34.06-.47.23-.05.22-.07.21-.08.2-.07.18-.1.17-.09.16-.11.14-.12.14-.12.11-.13.11-.14.09-.15.07-.15.07-.17.05-.17.03-.18v-.07s0-.07,0-.07v-.05s-.02-.05-.02-.05ZM34.13,46.68h-.08s-.12.01-.12.01h-.23s-.1-.01-.1-.01h-.1s-.09-.03-.09-.03l-.09-.02-.09-.03-.08-.03-.07-.04-.07-.04-.07-.05-.06-.06-.05-.06-.06-.06-.04-.07v-.11s0-.09,0-.09l.02-.08.03-.06.04-.06.05-.05.07-.03.08-.03.19-.05.19-.04.18-.02.18-.02h.36s.17.04.17.04l.18.04.07.02.08.03.06.05.05.06.04.07.03.08v.1s.01.1.01.1v.06s-.02.06-.02.06l-.02.06-.02.05-.02.05-.04.04-.03.04-.05.04-.05.03-.06.03-.06.02-.07.02-.07.02-.07.02h-.09Z"/>
    <polygon class="cls-1" points="37.36 47.36 37.35 47.24 37.35 47.32 37.36 47.36"/>
    <path class="cls-1" d="M38.27,0C17.17,0,0,17.17,0,38.27s17.17,38.27,38.27,38.27,38.27-17.17,38.27-38.27S59.37,0,38.27,0ZM38.27,75.03C18,75.03,1.51,58.54,1.51,38.27S18,1.51,38.27,1.51s36.76,16.49,36.76,36.76-16.49,36.76-36.76,36.76Z"/>
  </g>
  <g>
    <path class="cls-2" d="M174.42,76.66c.44.37.82.73,1.25,1.02.23.15.54.23.82.24.54.02,1.09-.02,1.63-.06.49-.04.84-.38.9-.86.11-.93-.24-1.75-.63-2.56-.05-.1-.28-.18-.41-.16-.77.11-1.52-.05-2.28-.13-.27-.03-.37-.12-.4-.39-.2-1.81-.41-3.61-.63-5.42-.03-.22-.14-.44-.26-.64-.41-.66-.85-1.31-.99-2.1-.13-.73.15-1.11.88-1.18.69-.07,1.32.15,1.95.41.45.19.9.38,1.41.37.61-.01,1.08-.32,1.29-.9.21-.57.28-1.18.19-1.77-.05-.32-.25-.64-.44-.92-.82-1.2-1.66-2.38-2.48-3.58-.34-.49-.65-1.01-.92-1.54-.43-.81-.45-1.68-.26-2.55.11-.51.55-.87,1.09-.89.76-.03,1.48.17,2.13.54.78.45,1.55.94,2.3,1.44,1.03.68,2.03,1.41,3.06,2.07.41.26.85.48,1.2.82.81.79,1.23,1.75,1.18,2.88-.09,2-.21,4-.29,5.99-.05,1.16-.07,2.33-.09,3.49,0,.27.05.54.13.8.44,1.47,1.22,1.45,2.18,1.03.76-.34,1.43-.86,2.04-1.44.13-.12.25-.26.38-.37.92-.77,1.26-1.84,1.56-2.93.16-.58.28-1.16.39-1.75.05-.25.05-.5.04-.76-.02-.45-.07-.9-.09-1.36-.12-2.4-.23-4.8-.34-7.2-.07-1.45-.13-2.9-.23-4.36-.02-.32-.12-.63-.23-.94-.47-1.39-.82-2.82-1.06-4.28-.05-.28-.09-.56-.14-.83.91-.63,1.81-.77,2.83-.45,1.37.43,2.48,1.24,3.54,2.15,1.23,1.06,2.31,2.26,3.3,3.53.59.75,1.24,1.41,1.89,2.1.62.65.97,1.44.89,2.37-.05.64-.34,1.18-.71,1.68-.47.61-1.02,1.13-1.67,1.55-.11.07-.2.21-.25.33-.3.64-.26,1.32-.16,1.99.06.43.5.75,1.01.74.45-.02.89-.11,1.33-.22.28-.07.53-.24.8-.34.31-.12.43-.35.49-.66.1-.55.22-1.1.37-1.64.08-.27.24-.54.41-.76.27-.36.82-.38,1.14-.05.43.43.85.89,1.28,1.33.4.42.79.85,1.2,1.26.71.72,1.16,1.6,1.4,2.55.24.98-.16,1.95-1.22,2.48-1.05.53-2.15.74-3.32.75-.45,0-.91,0-1.37,0-1.42.04-2.83.16-4.18.61-.61.2-1.17.47-1.69.85-.51.37-.95.76-1.26,1.32-.26.47-.42.95-.47,1.48-.04.43-.08.87-.13,1.3-.06.53-.09,1.05.1,1.56.13.35.35.57.71.54.38-.02.78-.04,1.11-.2.61-.3,1.18-.71,1.76-1.06.21-.12.29-.3.31-.54.07-.85.57-1.38,1.31-1.72,1.06-.49,2.19-.46,3.32-.4.23.01.42.12.56.36.55.99,1.14,1.94,1.67,2.94.24.46.44.97.49,1.48.11,1.15-.26,1.62-1.33,2.02-.88.33-1.85.36-2.8.23-.47-.06-.9-.04-1.34.11-1.52.49-2.99,1.1-4.43,1.76-1.65.75-3.29,1.53-4.93,2.29-.68.31-1.41-.1-1.49-.83-.07-.68.02-1.35.26-1.99.22-.59.41-1.21.73-1.76.5-.86-.14-1.89-.88-2.19-.69-.28-1.37-.39-2.11-.33-.48.04-.97-.03-1.43.24-.72.42-1.28.97-1.62,1.75-.53,1.22-.55,2.48-.35,3.75.19,1.26.04,2.47-.28,3.67-.16.61-.38,1.23-.72,1.75-.8,1.27-2,1.86-3.51,1.71-.45-.05-.88-.19-1.32-.28-.65-.14-1.09-.56-1.47-1.06-1.09-1.43-2.04-2.96-2.93-4.53-.12-.21-.31-.39-.48-.57-.4-.42-.85-.79-1.05-1.37-.26-.76-.18-1.47.28-2.13.18-.27.4-.51.57-.72Z"/>
    <path class="cls-2" d="M228.14,64.03c1.17.44,2.23.86,3.3,1.23.41.15.76.35,1.11.61.89.67,1.9,1.01,3.03,1.03,1.57.03,3-.38,4.38-1.09,1.29-.66,2.42-1.53,3.54-2.42.21-.17.39-.37.57-.57.17-.18.13-.4.06-.61-.46-1.46-.9-2.92-1.35-4.37-.41-1.32-.8-2.64-1.22-3.96-.06-.18-.15-.37-.29-.5-.62-.65-.94-1.43-1.12-2.3-.34-1.68-.26-3.37-.2-5.06.04-.94.19-1.88.3-2.82.02-.15.08-.31.14-.48.86.04,1.68.13,2.5.33,1.03.25,2.04.53,2.97,1.02.83.44,1.61.94,2.3,1.6,1.48,1.42,2.29,3.17,2.61,5.14.13.81.28,1.67.04,2.49-.13.45-.35.88-.5,1.32-.41,1.24-.74,2.5-.69,3.83.02.6.17,1.15.45,1.66.08.14.26.29.41.31.98.14,1.78-.02,2.43-1.04.52-.82.67-1.76.75-2.71.01-.18.03-.36.05-.59.27.01.53.01.77.05.97.12,1.94.26,2.91.39.66.09,1.3-.08,1.95-.18.82-.13,1.64-.08,2.44.1.39.09.74.37,1.09.6.19.13.28.34.28.61,0,.94-.16,1.81-.84,2.51-.54.55-1.2.94-1.95,1.14-.83.22-1.66.42-2.52.34-.71-.06-1.38.11-2.02.36-1.36.52-2.72,1.03-4.02,1.65-1.16.55-2.31,1.15-3.18,2.13-.22.25-.43.55-.54.86-.65,1.71-1.23,3.46-1.91,5.16-1.31,3.28-2.85,6.44-4.86,9.35-.64.91-1.08,1.93-1.72,2.84-.5.69-1.06,1.31-1.78,1.73-.85.5-1.79.63-2.78.44-1.43-.27-2.56-1.07-3.64-1.97-.67-.56-1.24-1.21-1.82-1.86-.33-.38-.76-.67-1.13-1.02-.57-.52-1.06-1.09-1.26-1.86-.13-.49,0-.94.26-1.35.33-.49.77-.86,1.29-1.14.23-.12.45-.24.67-.36.39-.21.44-.19.73.14.55.63,1.07,1.27,1.65,1.87.55.56,1.19,1.01,1.93,1.3.7.28,1.42.33,2.11-.02.27-.13.49-.37.71-.57.45-.42.87-.87,1.32-1.28,1.62-1.48,2.9-3.2,3.71-5.25.47-1.2.74-2.43.76-3.72,0-.14-.02-.27-.04-.48-.16.09-.27.13-.36.21-.7.58-1.36,1.21-2.1,1.72-.79.55-1.69.87-2.67,1-1.53.2-2.96-.08-4.32-.78-.85-.44-1.64-.99-2.37-1.63-.4-.34-.93-.55-1.41-.79-.56-.28-1.05-.65-1.48-1.1-.39-.42-.59-.92-.51-1.5.02-.15.07-.32.15-.45.28-.42.59-.82.9-1.26Z"/>
    <path class="cls-2" d="M284.45,76.35c.56.13,1.06.22,1.55.36,1.47.41,2.97.57,4.48.46,1.09-.08,2.14-.31,3.03-1.06.56-.47,1.24-.74,1.92-.99,1.33-.5,2.71-.78,4.1-1.05,1.17-.23,2.37-.32,3.55-.48.32-.04.64-.11.96-.18.46-.11.67-.48.84-.86.31-.69.44-1.42.45-2.17,0-.95-.02-1.89-.03-2.84,0-.06-.04-.13-.06-.21-.25,0-.31.19-.39.34-.48.86-1.02,1.67-1.68,2.41-.53.59-1.13,1.09-1.89,1.35-1.01.36-1.96.14-2.82-.49-.15-.11-.28-.24-.42-.35-.36-.27-.48-.66-.38-1.06.12-.53.25-1.07.48-1.55.73-1.59,1.76-3.01,2.84-4.39.29-.38.78-.43,1.2-.57.82-.28,1.67-.46,2.54-.55,1.17-.11,2.29,0,3.28.7.53.37.94.84,1.24,1.41.75,1.43.92,2.98.84,4.55-.05.98-.2,1.95-.31,2.92-.01.09-.02.18-.03.32.79.15,1.57.32,2.35.46,1.16.2,2.33.35,3.44.78.54.21,1.04.48,1.46.92.52.56.6,1.2.41,1.87-.16.59-.47,1.13-.93,1.58-.36-.08-.72-.15-1.07-.24-.75-.18-1.5-.14-2.26-.02-1.56.25-2.86.99-4.01,2.03-.23.2-.45.42-.68.62-.21.18-.26.37-.15.63.45,1.08.37,2.22.24,3.34-.25,2.1-.8,4.14-1.5,6.13-.46,1.29-1.35,2.15-2.69,2.55-.95.29-1.93.45-2.9.34-1.06-.12-2.1-.36-3.15-.58-.46-.1-.9-.25-1.36-.39-.59-.18-1.12-.42-1.57-.9-.37-.39-.93-.61-1.42-.89-.27-.15-.57-.23-.84-.36-.5-.24-.9-.6-1.22-1.06-.55-.8-.37-1.57.29-2.2.38-.36.84-.63,1.28-.95.26.18.5.31.7.48,1.32,1.09,2.75,2.01,4.35,2.61.95.36,1.96.54,2.98.22.62-.2,1.05-.62,1.41-1.15.18-.27.34-.56.57-.78.62-.6.81-1.36.85-2.17.04-.76-.06-1.5-.32-2.2-.28-.78-.61-1.55-.94-2.31-.16-.36-.22-.32-.54-.08-.49.37-.99.73-1.54,1.01-1.81.92-3.72,1.61-5.64,2.25-.81.27-1.62.53-2.44.75-1.2.33-2.34.11-3.42-.45-1.24-.65-2.25-1.58-3.15-2.64-.7-.82-1.28-1.71-1.76-2.67-.27-.53-.35-1.11-.34-1.69,0-.27.14-.54.22-.83Z"/>
    <path class="cls-2" d="M311.01,39.71c.18-.12.35-.23.51-.35,1.01-.77,2.04-1.53,3.3-1.84,1.51-.38,2.89-.08,4.08.92.45.38.82.87,1.23,1.31.52.57.68,1.27.73,2,.08,1.22-.04,2.4-.79,3.44-.42.58-.94,1.08-1.59,1.39-1.44.68-2.75,1.59-4.09,2.45-1.08.7-2.18,1.36-3.27,2.04-1.06.66-2.12,1.33-3.17,2-.92.58-1.85,1.15-2.77,1.73-.06.04-.13.06-.27.12.49.26.88.2,1.23.15,1.08-.14,2.14.03,3.22.04,1.29.02,2.58.1,3.85.27,1.41.19,2.83.44,4.16,1.01.41.18.86.28,1.29.42,1.79.58,2.35,2.3,2.08,3.61-.16.79-.4,1.54-.78,2.25-.11.22-.26.3-.5.35-.88.16-1.72.41-2.5.85-.75.43-1.48.88-2.23,1.31-.45.26-.91.43-1.45.3-.65-.16-.99-.65-1.28-1.18-.15-.27-.23-.57-.32-.82.29-.37.61-.67.82-1.04.33-.58.27-1.19.06-1.83-.33-1.01-1.03-1.55-2.03-1.74-1.21-.22-2.45-.32-3.68-.36-.45-.01-.91-.09-1.36-.08-1.53.04-3.06.09-4.58.17-.41.02-.82.15-1.22.28-1.39.42-2.72,1.01-3.93,1.83-.72.49-1.38,1.08-1.87,1.81-.18.27-.24.64-.31.98-.25,1.26-.49,2.53-.71,3.8-.16.88-.62,1.62-1.1,2.35-.34.52-.8.9-1.32,1.19-.66.36-1.4.34-2.12.2-.95-.2-1.73-.72-2.48-1.3-.2-.15-.4-.31-.58-.48-.3-.28-.43-.65-.52-1.05-.37-1.54-.79-3.06-1.13-4.6-.27-1.21-.36-2.45.04-3.66.36-1.11,1.09-1.84,2.22-2.2.63-.2,1.27-.28,1.93-.28,1.49-.02,2.97-.18,4.43-.51.63-.14,1.29-.18,1.93-.32,1.15-.24,2.3-.5,3.44-.76.49-.11.96-.27,1.4-.57,1.29-.88,2.61-1.71,3.91-2.57,1.83-1.2,3.66-2.4,5.49-3.6,1.37-.89,2.74-1.77,4.1-2.66.62-.41,1.22-.84,1.69-1.43.54-.68.5-1.49-.1-2.12-.31-.32-.67-.5-1.12-.61-.58-.14-1.02-.55-1.31-1.08-.23-.43-.4-.89-.67-1.51Z"/>
    <path class="cls-2" d="M99.81,74.54c.29.15.55.27.8.39.76.37,1.55.63,2.41.59.2,0,.39-.06.58-.12.28-.09.42-.27.49-.58.34-1.41.45-2.84.38-4.28-.12-2.65-.84-5.12-2.37-7.32-.49-.71-1.09-1.36-1.67-2.01-.23-.26-.41-.51-.5-.87-.15-.63-.15-1.26-.07-1.88.09-.64.63-1.1,1.27-1.15.43-.04.87-.11,1.3-.11,1.53-.02,3.01.26,4.35,1.02.82.46,1.54,1.09,2.07,1.9.28.42.55.85.83,1.31.78.04,1.54-.01,2.19-.54.1-.08.22-.16.27-.26.4-.76,1.17-1.13,1.78-1.66.24-.22.51-.4.77-.6.5-.39.98-.39,1.48-.02.18.13.26.28.29.5.06.46-.07.87-.28,1.26-.35.64-.72,1.26-1.1,1.88-.81,1.3-1.53,2.62-2.18,4.01-.73,1.55-1.31,3.15-1.71,4.81-.2.85-.31,1.71-.42,2.58-.07.58-.11,1.16-.1,1.74,0,.52.07,1.05.16,1.56.4,2.19.69,4.38.53,6.61-.08,1.09-.32,2.15-.84,3.13-.35.67-.93,1.05-1.55,1.4-.92.52-1.86.98-2.77,1.51-.6.36-1.18.29-1.76.03-.45-.2-.82-.53-1.12-.94-.56-.78-.84-1.67-1.07-2.6-.34-1.37-.14-2.71.08-4.05.06-.43.13-.86.19-1.29.04-.26-.02-.46-.22-.68-.87-.96-1.61-2.01-2.15-3.19-.29-.63-.46-1.29-.36-2.07Z"/>
    <path class="cls-2" d="M145.18,51.18c-.55-.31-1.07-.24-1.57-.19-.48.05-.97.17-1.43.32-1.31.42-2.57.96-3.81,1.57-2.14,1.04-4.18,2.25-6.21,3.47-1.12.67-2.2,1.41-3.3,2.11-.47.3-.94.6-1.43.87-.7.37-1.48.44-2.25.52-.77.08-1.53-.04-2.26-.27-.79-.24-1.53-.65-2.18-1.18-1.52-1.26-2.41-2.92-3.09-4.72-.05-.12-.08-.24-.11-.36-.14-.55,0-.95.51-1.18.49-.22,1.02-.38,1.55-.47,1.3-.24,2.61-.17,3.92-.12.98.04,1.95.2,2.92.27.39.03.8-.01,1.18-.1,2.01-.49,4.01-1,6.01-1.51,1-.26,1.99-.53,2.99-.78,2.49-.64,4.99-1.26,7.48-1.9,1.85-.47,3.68-.97,5.53-1.41,1.05-.25,2.08-.59,3.2-.53,1.36.06,2.47.88,2.83,2.15.09.33.25.53.53.69.59.35,1.19.69,1.78,1.04.95.57,1.67,1.33,2.07,2.37.31.81.11,1.42-.64,1.84-.45.26-.95.45-1.45.59-.91.25-1.83.43-2.79.44-1.51.03-3.02.07-4.52.09-.4,0-.8-.05-1.2-.09-.32-.04-.6.07-.89.19-.53.23-1.06.47-1.62.62-.41.11-.86.14-1.28-.05-.61-.28-.82-.8-.84-1.41-.03-.78-.02-1.56.25-2.31.06-.16.08-.34.12-.54Z"/>
    <path class="cls-2" d="M144.64,58.06c-.09.44-.18.88-.27,1.32-.16.82-.35,1.63-.47,2.45-.17,1.17-.29,2.34-.41,3.51-.08.8-.15,1.6-.14,2.39,0,1.71.05,3.42.09,5.13.04,1.7.27,3.37.6,5.03.26,1.33.64,2.64.99,3.95.15.58.41,1.12.57,1.7.08.29.1.62.04.91-.4,2.04-.94,4.03-1.85,5.91-.38.78-.78,1.54-1.44,2.14-.34.3-.71.5-1.13.63-.56.17-1.07-.05-1.55-.32-.13-.07-.24-.17-.36-.24-.38-.23-.54-.53-.58-1.01-.2-2.21-1.35-3.79-3.37-4.7-1.17-.53-2.4-.79-3.69-.8-.92-.01-1.85-.08-2.77-.11-.42-.01-.77-.18-1.11-.4-.29-.19-.39-.46-.34-.8.11-.73.69-1.27,1.43-1.31,1.23-.08,2.47-.13,3.7-.22,1.99-.13,3.98-.29,5.97-.42.29-.02.45-.15.58-.41.34-.74.54-1.51.56-2.31.02-.87.07-1.74-.02-2.6-.12-1.17,2.09-21.22,2.61-21.3.52-.08,1.07-.04,1.48.2.43.25.81.68.82,1.28v.38s.04,0,.06.01Z"/>
    <path class="cls-2" d="M127.98,71.26c.75-.46,1.42-.86,2.07-1.28.27-.17.42-.42.56-.72.18-.39.03-.68-.21-.94-.17-.18-.39-.31-.59-.46-.32-.24-.65-.23-1.02-.09-1.53.56-2.45,1.66-2.85,3.19-.15.57-.16,1.19-.17,1.79,0,.9-.54,1.39-1.24,1.76-.71.37-1.38.17-1.9-.36-.53-.54-1.03-1.14-1.41-1.79-.37-.63-.83-1.18-1.31-1.72-.61-.7-1.06-1.5-1.22-2.4-.14-.8.12-1.56.62-2.25,1.01-1.4,1.97-2.83,3-4.29.52-.04,1.08,0,1.59.35.31.21.5.49.5.86,0,.31.14.5.36.69.65.57,1.31,1.09,2.19,1.26.75.14,1.36.04,1.88-.61.79-.99,1.65-1.93,2.46-2.9.86-1.03,1.8-1.98,2.79-2.88.03-.02.06-.05.08-.07.75-.65.9-.6,1.25.3.59,1.52,1.2,3.04,1.78,4.57.1.25.17.53.16.8-.01,1.38-.05,2.76-.28,4.13-.1.59-.17,1.18-.26,1.78-.17,1.06-.47,2.08-.82,3.09-.41,1.2-.99,2.3-1.82,3.27-.57.67-1.26,1.19-2.08,1.53-.63.27-1.21.04-1.77-.23-1.05-.52-1.82-1.35-2.19-2.45-.27-.78-.44-1.6-.27-2.46.1-.52.1-1.05.13-1.45Z"/>
    <path class="cls-2" d="M290.72,33.59c.04.79-.38,2.1-.37,2.04-.2,1.29-.28,2.6-.21,3.91.08,1.47.19,2.94.49,4.38.06.3.13.6.22.9.11.36.27.4.52.14.27-.27.53-.56.79-.83.7-.74,1.41-1.47,2.15-2.24.1.15.18.25.25.37.1.19.15.43.29.59.43.5.42,1.05.21,1.62-.41,1.09-.8,2.18-1.24,3.25-.31.72-.69,1.41-1.05,2.09-.39.73-.96,1.31-1.67,1.75-1.06.66-2.15.6-3.22.08-.53-.26-1.41-.55-1.67-1.14-.21-.48-.11-1.14-.22-1.66-.13-.66-.3-1.3-.3-1.98,0-2.04.8-4.43,1.37-6.36.67-2.29,1.18-6.18,2.77-8.04.42-.5.87.44.91,1.13Z"/>
    <path class="cls-2" d="M253.7,73.66c.94.13,1.94.25,2.94.41.57.09,1.14.22,1.7.36,1.17.29,2.11.99,2.99,1.79.56.51,1,1.11,1.25,1.82.39,1.1.25,2.19-.25,3.22-.83,1.67-2.05,2.97-3.73,3.82-.4.2-.82.39-1.22.6-.5.26-1.05.28-1.59.29-.5,0-1.22-.6-1.41-1.14-.32-.93-.39-1.88-.18-2.84.13-.58.14-1.13,0-1.72-.12-.48-.35-.89-.69-1.21-.49-.46-1-.94-1.71-1.09-.19-.04-.39-.08-.58-.11-1.08-.17-1.48-.64-1.25-1.71.14-.62.44-1.18.79-1.72.25-.38.65-.46,1.03-.53.6-.11,1.22-.16,1.91-.24Z"/>
    <path class="cls-2" d="M103.31,41.13c.87.02,1.62.35,2.37.69,1.09.49,2.17,1,3.26,1.49,1.24.55,2.49,1.08,3.74,1.62.46.2.84.49,1.18.85.57.61.64,1.31.43,2.08-.24.85-.72,1.56-1.31,2.18-.75.79-1.54,1.54-2.37,2.24-.59.5-1.3.61-2.05.31-.41-.16-.67-.49-.92-.82-.05-.07-.09-.18-.08-.26.12-.81-.38-1.38-.84-1.92-1.26-1.49-2.76-2.72-4.34-3.87-.04-.03-.08-.07-.13-.09-.81-.35-1.03-1.02-.95-1.83.05-.56.17-1.11.25-1.67.05-.3.19-.51.48-.61.43-.14.86-.26,1.28-.39Z"/>
    <path class="cls-2" d="M309.33,43.01c.1.19.21.36.29.54.4.84.21,1.64-.21,2.4-.45.82-1.12,1.47-1.84,2.07-1.12.93-2.36,1.69-3.65,2.36-.59.3-1.22.34-1.86.25-.55-.07-.95-.42-1.28-.85-.58-.74-.91-1.6-1.13-2.51-.39-1.69-.58-3.41-.45-5.14.08-1.1.3-2.19.66-3.25.04-.1.08-.2.13-.3.12-.27.25-.57.58-.59.33-.01.49.29.64.53.48.84.74,1.77,1,2.69.12.43.19.88.33,1.3.09.29.25.57.43.81.23.31.55.43.95.44.9.03,1.76-.18,2.62-.38.9-.21,1.79-.5,2.78-.38Z"/>
  </g>
</svg>